G75*
%MOIN*%
%OFA0B0*%
%FSLAX25Y25*%
%IPPOS*%
%LPD*%
%AMOC8*
5,1,8,0,0,1.08239X$1,22.5*
%
%ADD10C,0.00000*%
D10*
X0043293Y0012419D02*
X0043293Y0189521D01*
X0043295Y0189608D01*
X0043301Y0189695D01*
X0043310Y0189782D01*
X0043323Y0189868D01*
X0043340Y0189954D01*
X0043361Y0190039D01*
X0043386Y0190122D01*
X0043414Y0190205D01*
X0043445Y0190286D01*
X0043480Y0190366D01*
X0043519Y0190444D01*
X0043561Y0190521D01*
X0043606Y0190596D01*
X0043655Y0190668D01*
X0043706Y0190739D01*
X0043761Y0190807D01*
X0043818Y0190872D01*
X0043879Y0190935D01*
X0043942Y0190996D01*
X0044007Y0191053D01*
X0044075Y0191108D01*
X0044146Y0191159D01*
X0044218Y0191208D01*
X0044293Y0191253D01*
X0044370Y0191295D01*
X0044448Y0191334D01*
X0044528Y0191369D01*
X0044609Y0191400D01*
X0044692Y0191428D01*
X0044775Y0191453D01*
X0044860Y0191474D01*
X0044946Y0191491D01*
X0045032Y0191504D01*
X0045119Y0191513D01*
X0045206Y0191519D01*
X0045293Y0191521D01*
X0222396Y0191521D01*
X0222483Y0191519D01*
X0222570Y0191513D01*
X0222657Y0191504D01*
X0222743Y0191491D01*
X0222829Y0191474D01*
X0222914Y0191453D01*
X0222997Y0191428D01*
X0223080Y0191400D01*
X0223161Y0191369D01*
X0223241Y0191334D01*
X0223319Y0191295D01*
X0223396Y0191253D01*
X0223471Y0191208D01*
X0223543Y0191159D01*
X0223614Y0191108D01*
X0223682Y0191053D01*
X0223747Y0190996D01*
X0223810Y0190935D01*
X0223871Y0190872D01*
X0223928Y0190807D01*
X0223983Y0190739D01*
X0224034Y0190668D01*
X0224083Y0190596D01*
X0224128Y0190521D01*
X0224170Y0190444D01*
X0224209Y0190366D01*
X0224244Y0190286D01*
X0224275Y0190205D01*
X0224303Y0190122D01*
X0224328Y0190039D01*
X0224349Y0189954D01*
X0224366Y0189868D01*
X0224379Y0189782D01*
X0224388Y0189695D01*
X0224394Y0189608D01*
X0224396Y0189521D01*
X0224396Y0012419D01*
X0224394Y0012332D01*
X0224388Y0012245D01*
X0224379Y0012158D01*
X0224366Y0012072D01*
X0224349Y0011986D01*
X0224328Y0011901D01*
X0224303Y0011818D01*
X0224275Y0011735D01*
X0224244Y0011654D01*
X0224209Y0011574D01*
X0224170Y0011496D01*
X0224128Y0011419D01*
X0224083Y0011344D01*
X0224034Y0011272D01*
X0223983Y0011201D01*
X0223928Y0011133D01*
X0223871Y0011068D01*
X0223810Y0011005D01*
X0223747Y0010944D01*
X0223682Y0010887D01*
X0223614Y0010832D01*
X0223543Y0010781D01*
X0223471Y0010732D01*
X0223396Y0010687D01*
X0223319Y0010645D01*
X0223241Y0010606D01*
X0223161Y0010571D01*
X0223080Y0010540D01*
X0222997Y0010512D01*
X0222914Y0010487D01*
X0222829Y0010466D01*
X0222743Y0010449D01*
X0222657Y0010436D01*
X0222570Y0010427D01*
X0222483Y0010421D01*
X0222396Y0010419D01*
X0045293Y0010419D01*
X0045206Y0010421D01*
X0045119Y0010427D01*
X0045032Y0010436D01*
X0044946Y0010449D01*
X0044860Y0010466D01*
X0044775Y0010487D01*
X0044692Y0010512D01*
X0044609Y0010540D01*
X0044528Y0010571D01*
X0044448Y0010606D01*
X0044370Y0010645D01*
X0044293Y0010687D01*
X0044218Y0010732D01*
X0044146Y0010781D01*
X0044075Y0010832D01*
X0044007Y0010887D01*
X0043942Y0010944D01*
X0043879Y0011005D01*
X0043818Y0011068D01*
X0043761Y0011133D01*
X0043706Y0011201D01*
X0043655Y0011272D01*
X0043606Y0011344D01*
X0043561Y0011419D01*
X0043519Y0011496D01*
X0043480Y0011574D01*
X0043445Y0011654D01*
X0043414Y0011735D01*
X0043386Y0011818D01*
X0043361Y0011901D01*
X0043340Y0011986D01*
X0043323Y0012072D01*
X0043310Y0012158D01*
X0043301Y0012245D01*
X0043295Y0012332D01*
X0043293Y0012419D01*
X0027037Y0052100D02*
X0027039Y0052205D01*
X0027045Y0052310D01*
X0027055Y0052414D01*
X0027069Y0052518D01*
X0027087Y0052622D01*
X0027109Y0052724D01*
X0027134Y0052826D01*
X0027164Y0052927D01*
X0027197Y0053026D01*
X0027234Y0053124D01*
X0027275Y0053221D01*
X0027320Y0053316D01*
X0027368Y0053409D01*
X0027419Y0053501D01*
X0027475Y0053590D01*
X0027533Y0053677D01*
X0027595Y0053762D01*
X0027659Y0053845D01*
X0027727Y0053925D01*
X0027798Y0054002D01*
X0027872Y0054076D01*
X0027949Y0054148D01*
X0028028Y0054217D01*
X0028110Y0054282D01*
X0028194Y0054345D01*
X0028281Y0054404D01*
X0028370Y0054460D01*
X0028461Y0054513D01*
X0028554Y0054562D01*
X0028648Y0054607D01*
X0028744Y0054649D01*
X0028842Y0054687D01*
X0028941Y0054721D01*
X0029042Y0054752D01*
X0029143Y0054778D01*
X0029246Y0054801D01*
X0029349Y0054820D01*
X0029453Y0054835D01*
X0029557Y0054846D01*
X0029662Y0054853D01*
X0029767Y0054856D01*
X0029872Y0054855D01*
X0029977Y0054850D01*
X0030081Y0054841D01*
X0030185Y0054828D01*
X0030289Y0054811D01*
X0030392Y0054790D01*
X0030494Y0054765D01*
X0030595Y0054737D01*
X0030694Y0054704D01*
X0030793Y0054668D01*
X0030890Y0054628D01*
X0030985Y0054585D01*
X0031079Y0054537D01*
X0031171Y0054487D01*
X0031261Y0054433D01*
X0031349Y0054375D01*
X0031434Y0054314D01*
X0031517Y0054250D01*
X0031598Y0054183D01*
X0031676Y0054113D01*
X0031751Y0054039D01*
X0031823Y0053964D01*
X0031893Y0053885D01*
X0031959Y0053804D01*
X0032023Y0053720D01*
X0032083Y0053634D01*
X0032139Y0053546D01*
X0032193Y0053455D01*
X0032243Y0053363D01*
X0032289Y0053269D01*
X0032332Y0053173D01*
X0032371Y0053075D01*
X0032406Y0052977D01*
X0032437Y0052876D01*
X0032465Y0052775D01*
X0032489Y0052673D01*
X0032509Y0052570D01*
X0032525Y0052466D01*
X0032537Y0052362D01*
X0032545Y0052257D01*
X0032549Y0052152D01*
X0032549Y0052048D01*
X0032545Y0051943D01*
X0032537Y0051838D01*
X0032525Y0051734D01*
X0032509Y0051630D01*
X0032489Y0051527D01*
X0032465Y0051425D01*
X0032437Y0051324D01*
X0032406Y0051223D01*
X0032371Y0051125D01*
X0032332Y0051027D01*
X0032289Y0050931D01*
X0032243Y0050837D01*
X0032193Y0050745D01*
X0032139Y0050654D01*
X0032083Y0050566D01*
X0032023Y0050480D01*
X0031959Y0050396D01*
X0031893Y0050315D01*
X0031823Y0050236D01*
X0031751Y0050161D01*
X0031676Y0050087D01*
X0031598Y0050017D01*
X0031517Y0049950D01*
X0031434Y0049886D01*
X0031349Y0049825D01*
X0031261Y0049767D01*
X0031171Y0049713D01*
X0031079Y0049663D01*
X0030985Y0049615D01*
X0030890Y0049572D01*
X0030793Y0049532D01*
X0030694Y0049496D01*
X0030595Y0049463D01*
X0030494Y0049435D01*
X0030392Y0049410D01*
X0030289Y0049389D01*
X0030185Y0049372D01*
X0030081Y0049359D01*
X0029977Y0049350D01*
X0029872Y0049345D01*
X0029767Y0049344D01*
X0029662Y0049347D01*
X0029557Y0049354D01*
X0029453Y0049365D01*
X0029349Y0049380D01*
X0029246Y0049399D01*
X0029143Y0049422D01*
X0029042Y0049448D01*
X0028941Y0049479D01*
X0028842Y0049513D01*
X0028744Y0049551D01*
X0028648Y0049593D01*
X0028554Y0049638D01*
X0028461Y0049687D01*
X0028370Y0049740D01*
X0028281Y0049796D01*
X0028194Y0049855D01*
X0028110Y0049918D01*
X0028028Y0049983D01*
X0027949Y0050052D01*
X0027872Y0050124D01*
X0027798Y0050198D01*
X0027727Y0050275D01*
X0027659Y0050355D01*
X0027595Y0050438D01*
X0027533Y0050523D01*
X0027475Y0050610D01*
X0027419Y0050699D01*
X0027368Y0050791D01*
X0027320Y0050884D01*
X0027275Y0050979D01*
X0027234Y0051076D01*
X0027197Y0051174D01*
X0027164Y0051273D01*
X0027134Y0051374D01*
X0027109Y0051476D01*
X0027087Y0051578D01*
X0027069Y0051682D01*
X0027055Y0051786D01*
X0027045Y0051890D01*
X0027039Y0051995D01*
X0027037Y0052100D01*
X0027037Y0072100D02*
X0027039Y0072205D01*
X0027045Y0072310D01*
X0027055Y0072414D01*
X0027069Y0072518D01*
X0027087Y0072622D01*
X0027109Y0072724D01*
X0027134Y0072826D01*
X0027164Y0072927D01*
X0027197Y0073026D01*
X0027234Y0073124D01*
X0027275Y0073221D01*
X0027320Y0073316D01*
X0027368Y0073409D01*
X0027419Y0073501D01*
X0027475Y0073590D01*
X0027533Y0073677D01*
X0027595Y0073762D01*
X0027659Y0073845D01*
X0027727Y0073925D01*
X0027798Y0074002D01*
X0027872Y0074076D01*
X0027949Y0074148D01*
X0028028Y0074217D01*
X0028110Y0074282D01*
X0028194Y0074345D01*
X0028281Y0074404D01*
X0028370Y0074460D01*
X0028461Y0074513D01*
X0028554Y0074562D01*
X0028648Y0074607D01*
X0028744Y0074649D01*
X0028842Y0074687D01*
X0028941Y0074721D01*
X0029042Y0074752D01*
X0029143Y0074778D01*
X0029246Y0074801D01*
X0029349Y0074820D01*
X0029453Y0074835D01*
X0029557Y0074846D01*
X0029662Y0074853D01*
X0029767Y0074856D01*
X0029872Y0074855D01*
X0029977Y0074850D01*
X0030081Y0074841D01*
X0030185Y0074828D01*
X0030289Y0074811D01*
X0030392Y0074790D01*
X0030494Y0074765D01*
X0030595Y0074737D01*
X0030694Y0074704D01*
X0030793Y0074668D01*
X0030890Y0074628D01*
X0030985Y0074585D01*
X0031079Y0074537D01*
X0031171Y0074487D01*
X0031261Y0074433D01*
X0031349Y0074375D01*
X0031434Y0074314D01*
X0031517Y0074250D01*
X0031598Y0074183D01*
X0031676Y0074113D01*
X0031751Y0074039D01*
X0031823Y0073964D01*
X0031893Y0073885D01*
X0031959Y0073804D01*
X0032023Y0073720D01*
X0032083Y0073634D01*
X0032139Y0073546D01*
X0032193Y0073455D01*
X0032243Y0073363D01*
X0032289Y0073269D01*
X0032332Y0073173D01*
X0032371Y0073075D01*
X0032406Y0072977D01*
X0032437Y0072876D01*
X0032465Y0072775D01*
X0032489Y0072673D01*
X0032509Y0072570D01*
X0032525Y0072466D01*
X0032537Y0072362D01*
X0032545Y0072257D01*
X0032549Y0072152D01*
X0032549Y0072048D01*
X0032545Y0071943D01*
X0032537Y0071838D01*
X0032525Y0071734D01*
X0032509Y0071630D01*
X0032489Y0071527D01*
X0032465Y0071425D01*
X0032437Y0071324D01*
X0032406Y0071223D01*
X0032371Y0071125D01*
X0032332Y0071027D01*
X0032289Y0070931D01*
X0032243Y0070837D01*
X0032193Y0070745D01*
X0032139Y0070654D01*
X0032083Y0070566D01*
X0032023Y0070480D01*
X0031959Y0070396D01*
X0031893Y0070315D01*
X0031823Y0070236D01*
X0031751Y0070161D01*
X0031676Y0070087D01*
X0031598Y0070017D01*
X0031517Y0069950D01*
X0031434Y0069886D01*
X0031349Y0069825D01*
X0031261Y0069767D01*
X0031171Y0069713D01*
X0031079Y0069663D01*
X0030985Y0069615D01*
X0030890Y0069572D01*
X0030793Y0069532D01*
X0030694Y0069496D01*
X0030595Y0069463D01*
X0030494Y0069435D01*
X0030392Y0069410D01*
X0030289Y0069389D01*
X0030185Y0069372D01*
X0030081Y0069359D01*
X0029977Y0069350D01*
X0029872Y0069345D01*
X0029767Y0069344D01*
X0029662Y0069347D01*
X0029557Y0069354D01*
X0029453Y0069365D01*
X0029349Y0069380D01*
X0029246Y0069399D01*
X0029143Y0069422D01*
X0029042Y0069448D01*
X0028941Y0069479D01*
X0028842Y0069513D01*
X0028744Y0069551D01*
X0028648Y0069593D01*
X0028554Y0069638D01*
X0028461Y0069687D01*
X0028370Y0069740D01*
X0028281Y0069796D01*
X0028194Y0069855D01*
X0028110Y0069918D01*
X0028028Y0069983D01*
X0027949Y0070052D01*
X0027872Y0070124D01*
X0027798Y0070198D01*
X0027727Y0070275D01*
X0027659Y0070355D01*
X0027595Y0070438D01*
X0027533Y0070523D01*
X0027475Y0070610D01*
X0027419Y0070699D01*
X0027368Y0070791D01*
X0027320Y0070884D01*
X0027275Y0070979D01*
X0027234Y0071076D01*
X0027197Y0071174D01*
X0027164Y0071273D01*
X0027134Y0071374D01*
X0027109Y0071476D01*
X0027087Y0071578D01*
X0027069Y0071682D01*
X0027055Y0071786D01*
X0027045Y0071890D01*
X0027039Y0071995D01*
X0027037Y0072100D01*
X0120923Y0156600D02*
X0120925Y0156688D01*
X0120931Y0156776D01*
X0120941Y0156864D01*
X0120955Y0156952D01*
X0120972Y0157038D01*
X0120994Y0157124D01*
X0121019Y0157208D01*
X0121049Y0157292D01*
X0121081Y0157374D01*
X0121118Y0157454D01*
X0121158Y0157533D01*
X0121202Y0157610D01*
X0121249Y0157685D01*
X0121299Y0157757D01*
X0121353Y0157828D01*
X0121409Y0157895D01*
X0121469Y0157961D01*
X0121531Y0158023D01*
X0121597Y0158083D01*
X0121664Y0158139D01*
X0121735Y0158193D01*
X0121807Y0158243D01*
X0121882Y0158290D01*
X0121959Y0158334D01*
X0122038Y0158374D01*
X0122118Y0158411D01*
X0122200Y0158443D01*
X0122284Y0158473D01*
X0122368Y0158498D01*
X0122454Y0158520D01*
X0122540Y0158537D01*
X0122628Y0158551D01*
X0122716Y0158561D01*
X0122804Y0158567D01*
X0122892Y0158569D01*
X0122980Y0158567D01*
X0123068Y0158561D01*
X0123156Y0158551D01*
X0123244Y0158537D01*
X0123330Y0158520D01*
X0123416Y0158498D01*
X0123500Y0158473D01*
X0123584Y0158443D01*
X0123666Y0158411D01*
X0123746Y0158374D01*
X0123825Y0158334D01*
X0123902Y0158290D01*
X0123977Y0158243D01*
X0124049Y0158193D01*
X0124120Y0158139D01*
X0124187Y0158083D01*
X0124253Y0158023D01*
X0124315Y0157961D01*
X0124375Y0157895D01*
X0124431Y0157828D01*
X0124485Y0157757D01*
X0124535Y0157685D01*
X0124582Y0157610D01*
X0124626Y0157533D01*
X0124666Y0157454D01*
X0124703Y0157374D01*
X0124735Y0157292D01*
X0124765Y0157208D01*
X0124790Y0157124D01*
X0124812Y0157038D01*
X0124829Y0156952D01*
X0124843Y0156864D01*
X0124853Y0156776D01*
X0124859Y0156688D01*
X0124861Y0156600D01*
X0124859Y0156512D01*
X0124853Y0156424D01*
X0124843Y0156336D01*
X0124829Y0156248D01*
X0124812Y0156162D01*
X0124790Y0156076D01*
X0124765Y0155992D01*
X0124735Y0155908D01*
X0124703Y0155826D01*
X0124666Y0155746D01*
X0124626Y0155667D01*
X0124582Y0155590D01*
X0124535Y0155515D01*
X0124485Y0155443D01*
X0124431Y0155372D01*
X0124375Y0155305D01*
X0124315Y0155239D01*
X0124253Y0155177D01*
X0124187Y0155117D01*
X0124120Y0155061D01*
X0124049Y0155007D01*
X0123977Y0154957D01*
X0123902Y0154910D01*
X0123825Y0154866D01*
X0123746Y0154826D01*
X0123666Y0154789D01*
X0123584Y0154757D01*
X0123500Y0154727D01*
X0123416Y0154702D01*
X0123330Y0154680D01*
X0123244Y0154663D01*
X0123156Y0154649D01*
X0123068Y0154639D01*
X0122980Y0154633D01*
X0122892Y0154631D01*
X0122804Y0154633D01*
X0122716Y0154639D01*
X0122628Y0154649D01*
X0122540Y0154663D01*
X0122454Y0154680D01*
X0122368Y0154702D01*
X0122284Y0154727D01*
X0122200Y0154757D01*
X0122118Y0154789D01*
X0122038Y0154826D01*
X0121959Y0154866D01*
X0121882Y0154910D01*
X0121807Y0154957D01*
X0121735Y0155007D01*
X0121664Y0155061D01*
X0121597Y0155117D01*
X0121531Y0155177D01*
X0121469Y0155239D01*
X0121409Y0155305D01*
X0121353Y0155372D01*
X0121299Y0155443D01*
X0121249Y0155515D01*
X0121202Y0155590D01*
X0121158Y0155667D01*
X0121118Y0155746D01*
X0121081Y0155826D01*
X0121049Y0155908D01*
X0121019Y0155992D01*
X0120994Y0156076D01*
X0120972Y0156162D01*
X0120955Y0156248D01*
X0120941Y0156336D01*
X0120931Y0156424D01*
X0120925Y0156512D01*
X0120923Y0156600D01*
X0149860Y0156600D02*
X0149862Y0156701D01*
X0149868Y0156802D01*
X0149878Y0156903D01*
X0149892Y0157003D01*
X0149910Y0157102D01*
X0149932Y0157201D01*
X0149957Y0157299D01*
X0149987Y0157396D01*
X0150020Y0157491D01*
X0150057Y0157585D01*
X0150098Y0157678D01*
X0150142Y0157769D01*
X0150190Y0157858D01*
X0150242Y0157945D01*
X0150297Y0158030D01*
X0150355Y0158112D01*
X0150416Y0158193D01*
X0150481Y0158271D01*
X0150548Y0158346D01*
X0150618Y0158418D01*
X0150692Y0158488D01*
X0150768Y0158555D01*
X0150846Y0158619D01*
X0150927Y0158679D01*
X0151010Y0158736D01*
X0151096Y0158790D01*
X0151184Y0158841D01*
X0151273Y0158888D01*
X0151364Y0158932D01*
X0151457Y0158971D01*
X0151552Y0159008D01*
X0151647Y0159040D01*
X0151744Y0159069D01*
X0151843Y0159093D01*
X0151941Y0159114D01*
X0152041Y0159131D01*
X0152141Y0159144D01*
X0152242Y0159153D01*
X0152343Y0159158D01*
X0152444Y0159159D01*
X0152545Y0159156D01*
X0152646Y0159149D01*
X0152747Y0159138D01*
X0152847Y0159123D01*
X0152946Y0159104D01*
X0153045Y0159081D01*
X0153142Y0159055D01*
X0153239Y0159024D01*
X0153334Y0158990D01*
X0153427Y0158952D01*
X0153520Y0158910D01*
X0153610Y0158865D01*
X0153699Y0158816D01*
X0153785Y0158764D01*
X0153869Y0158708D01*
X0153952Y0158649D01*
X0154031Y0158587D01*
X0154109Y0158522D01*
X0154183Y0158454D01*
X0154255Y0158382D01*
X0154324Y0158309D01*
X0154390Y0158232D01*
X0154453Y0158153D01*
X0154513Y0158071D01*
X0154569Y0157987D01*
X0154622Y0157901D01*
X0154672Y0157813D01*
X0154718Y0157723D01*
X0154761Y0157632D01*
X0154800Y0157538D01*
X0154835Y0157443D01*
X0154866Y0157347D01*
X0154894Y0157250D01*
X0154918Y0157152D01*
X0154938Y0157053D01*
X0154954Y0156953D01*
X0154966Y0156852D01*
X0154974Y0156752D01*
X0154978Y0156651D01*
X0154978Y0156549D01*
X0154974Y0156448D01*
X0154966Y0156348D01*
X0154954Y0156247D01*
X0154938Y0156147D01*
X0154918Y0156048D01*
X0154894Y0155950D01*
X0154866Y0155853D01*
X0154835Y0155757D01*
X0154800Y0155662D01*
X0154761Y0155568D01*
X0154718Y0155477D01*
X0154672Y0155387D01*
X0154622Y0155299D01*
X0154569Y0155213D01*
X0154513Y0155129D01*
X0154453Y0155047D01*
X0154390Y0154968D01*
X0154324Y0154891D01*
X0154255Y0154818D01*
X0154183Y0154746D01*
X0154109Y0154678D01*
X0154031Y0154613D01*
X0153952Y0154551D01*
X0153869Y0154492D01*
X0153785Y0154436D01*
X0153698Y0154384D01*
X0153610Y0154335D01*
X0153520Y0154290D01*
X0153427Y0154248D01*
X0153334Y0154210D01*
X0153239Y0154176D01*
X0153142Y0154145D01*
X0153045Y0154119D01*
X0152946Y0154096D01*
X0152847Y0154077D01*
X0152747Y0154062D01*
X0152646Y0154051D01*
X0152545Y0154044D01*
X0152444Y0154041D01*
X0152343Y0154042D01*
X0152242Y0154047D01*
X0152141Y0154056D01*
X0152041Y0154069D01*
X0151941Y0154086D01*
X0151843Y0154107D01*
X0151744Y0154131D01*
X0151647Y0154160D01*
X0151552Y0154192D01*
X0151457Y0154229D01*
X0151364Y0154268D01*
X0151273Y0154312D01*
X0151184Y0154359D01*
X0151096Y0154410D01*
X0151010Y0154464D01*
X0150927Y0154521D01*
X0150846Y0154581D01*
X0150768Y0154645D01*
X0150692Y0154712D01*
X0150618Y0154782D01*
X0150548Y0154854D01*
X0150481Y0154929D01*
X0150416Y0155007D01*
X0150355Y0155088D01*
X0150297Y0155170D01*
X0150242Y0155255D01*
X0150190Y0155342D01*
X0150142Y0155431D01*
X0150098Y0155522D01*
X0150057Y0155615D01*
X0150020Y0155709D01*
X0149987Y0155804D01*
X0149957Y0155901D01*
X0149932Y0155999D01*
X0149910Y0156098D01*
X0149892Y0156197D01*
X0149878Y0156297D01*
X0149868Y0156398D01*
X0149862Y0156499D01*
X0149860Y0156600D01*
X0197616Y0185600D02*
X0197618Y0185684D01*
X0197624Y0185767D01*
X0197634Y0185850D01*
X0197648Y0185933D01*
X0197665Y0186015D01*
X0197687Y0186096D01*
X0197712Y0186175D01*
X0197741Y0186254D01*
X0197774Y0186331D01*
X0197810Y0186406D01*
X0197850Y0186480D01*
X0197893Y0186552D01*
X0197940Y0186621D01*
X0197990Y0186688D01*
X0198043Y0186753D01*
X0198099Y0186815D01*
X0198157Y0186875D01*
X0198219Y0186932D01*
X0198283Y0186985D01*
X0198350Y0187036D01*
X0198419Y0187083D01*
X0198490Y0187128D01*
X0198563Y0187168D01*
X0198638Y0187205D01*
X0198715Y0187239D01*
X0198793Y0187269D01*
X0198872Y0187295D01*
X0198953Y0187318D01*
X0199035Y0187336D01*
X0199117Y0187351D01*
X0199200Y0187362D01*
X0199283Y0187369D01*
X0199367Y0187372D01*
X0199451Y0187371D01*
X0199534Y0187366D01*
X0199618Y0187357D01*
X0199700Y0187344D01*
X0199782Y0187328D01*
X0199863Y0187307D01*
X0199944Y0187283D01*
X0200022Y0187255D01*
X0200100Y0187223D01*
X0200176Y0187187D01*
X0200250Y0187148D01*
X0200322Y0187106D01*
X0200392Y0187060D01*
X0200460Y0187011D01*
X0200525Y0186959D01*
X0200588Y0186904D01*
X0200648Y0186846D01*
X0200706Y0186785D01*
X0200760Y0186721D01*
X0200812Y0186655D01*
X0200860Y0186587D01*
X0200905Y0186516D01*
X0200946Y0186443D01*
X0200985Y0186369D01*
X0201019Y0186293D01*
X0201050Y0186215D01*
X0201077Y0186136D01*
X0201101Y0186055D01*
X0201120Y0185974D01*
X0201136Y0185892D01*
X0201148Y0185809D01*
X0201156Y0185725D01*
X0201160Y0185642D01*
X0201160Y0185558D01*
X0201156Y0185475D01*
X0201148Y0185391D01*
X0201136Y0185308D01*
X0201120Y0185226D01*
X0201101Y0185145D01*
X0201077Y0185064D01*
X0201050Y0184985D01*
X0201019Y0184907D01*
X0200985Y0184831D01*
X0200946Y0184757D01*
X0200905Y0184684D01*
X0200860Y0184613D01*
X0200812Y0184545D01*
X0200760Y0184479D01*
X0200706Y0184415D01*
X0200648Y0184354D01*
X0200588Y0184296D01*
X0200525Y0184241D01*
X0200460Y0184189D01*
X0200392Y0184140D01*
X0200322Y0184094D01*
X0200250Y0184052D01*
X0200176Y0184013D01*
X0200100Y0183977D01*
X0200022Y0183945D01*
X0199944Y0183917D01*
X0199863Y0183893D01*
X0199782Y0183872D01*
X0199700Y0183856D01*
X0199618Y0183843D01*
X0199534Y0183834D01*
X0199451Y0183829D01*
X0199367Y0183828D01*
X0199283Y0183831D01*
X0199200Y0183838D01*
X0199117Y0183849D01*
X0199035Y0183864D01*
X0198953Y0183882D01*
X0198872Y0183905D01*
X0198793Y0183931D01*
X0198715Y0183961D01*
X0198638Y0183995D01*
X0198563Y0184032D01*
X0198490Y0184072D01*
X0198419Y0184117D01*
X0198350Y0184164D01*
X0198283Y0184215D01*
X0198219Y0184268D01*
X0198157Y0184325D01*
X0198099Y0184385D01*
X0198043Y0184447D01*
X0197990Y0184512D01*
X0197940Y0184579D01*
X0197893Y0184648D01*
X0197850Y0184720D01*
X0197810Y0184794D01*
X0197774Y0184869D01*
X0197741Y0184946D01*
X0197712Y0185025D01*
X0197687Y0185104D01*
X0197665Y0185185D01*
X0197648Y0185267D01*
X0197634Y0185350D01*
X0197624Y0185433D01*
X0197618Y0185516D01*
X0197616Y0185600D01*
X0209427Y0185600D02*
X0209429Y0185684D01*
X0209435Y0185767D01*
X0209445Y0185850D01*
X0209459Y0185933D01*
X0209476Y0186015D01*
X0209498Y0186096D01*
X0209523Y0186175D01*
X0209552Y0186254D01*
X0209585Y0186331D01*
X0209621Y0186406D01*
X0209661Y0186480D01*
X0209704Y0186552D01*
X0209751Y0186621D01*
X0209801Y0186688D01*
X0209854Y0186753D01*
X0209910Y0186815D01*
X0209968Y0186875D01*
X0210030Y0186932D01*
X0210094Y0186985D01*
X0210161Y0187036D01*
X0210230Y0187083D01*
X0210301Y0187128D01*
X0210374Y0187168D01*
X0210449Y0187205D01*
X0210526Y0187239D01*
X0210604Y0187269D01*
X0210683Y0187295D01*
X0210764Y0187318D01*
X0210846Y0187336D01*
X0210928Y0187351D01*
X0211011Y0187362D01*
X0211094Y0187369D01*
X0211178Y0187372D01*
X0211262Y0187371D01*
X0211345Y0187366D01*
X0211429Y0187357D01*
X0211511Y0187344D01*
X0211593Y0187328D01*
X0211674Y0187307D01*
X0211755Y0187283D01*
X0211833Y0187255D01*
X0211911Y0187223D01*
X0211987Y0187187D01*
X0212061Y0187148D01*
X0212133Y0187106D01*
X0212203Y0187060D01*
X0212271Y0187011D01*
X0212336Y0186959D01*
X0212399Y0186904D01*
X0212459Y0186846D01*
X0212517Y0186785D01*
X0212571Y0186721D01*
X0212623Y0186655D01*
X0212671Y0186587D01*
X0212716Y0186516D01*
X0212757Y0186443D01*
X0212796Y0186369D01*
X0212830Y0186293D01*
X0212861Y0186215D01*
X0212888Y0186136D01*
X0212912Y0186055D01*
X0212931Y0185974D01*
X0212947Y0185892D01*
X0212959Y0185809D01*
X0212967Y0185725D01*
X0212971Y0185642D01*
X0212971Y0185558D01*
X0212967Y0185475D01*
X0212959Y0185391D01*
X0212947Y0185308D01*
X0212931Y0185226D01*
X0212912Y0185145D01*
X0212888Y0185064D01*
X0212861Y0184985D01*
X0212830Y0184907D01*
X0212796Y0184831D01*
X0212757Y0184757D01*
X0212716Y0184684D01*
X0212671Y0184613D01*
X0212623Y0184545D01*
X0212571Y0184479D01*
X0212517Y0184415D01*
X0212459Y0184354D01*
X0212399Y0184296D01*
X0212336Y0184241D01*
X0212271Y0184189D01*
X0212203Y0184140D01*
X0212133Y0184094D01*
X0212061Y0184052D01*
X0211987Y0184013D01*
X0211911Y0183977D01*
X0211833Y0183945D01*
X0211755Y0183917D01*
X0211674Y0183893D01*
X0211593Y0183872D01*
X0211511Y0183856D01*
X0211429Y0183843D01*
X0211345Y0183834D01*
X0211262Y0183829D01*
X0211178Y0183828D01*
X0211094Y0183831D01*
X0211011Y0183838D01*
X0210928Y0183849D01*
X0210846Y0183864D01*
X0210764Y0183882D01*
X0210683Y0183905D01*
X0210604Y0183931D01*
X0210526Y0183961D01*
X0210449Y0183995D01*
X0210374Y0184032D01*
X0210301Y0184072D01*
X0210230Y0184117D01*
X0210161Y0184164D01*
X0210094Y0184215D01*
X0210030Y0184268D01*
X0209968Y0184325D01*
X0209910Y0184385D01*
X0209854Y0184447D01*
X0209801Y0184512D01*
X0209751Y0184579D01*
X0209704Y0184648D01*
X0209661Y0184720D01*
X0209621Y0184794D01*
X0209585Y0184869D01*
X0209552Y0184946D01*
X0209523Y0185025D01*
X0209498Y0185104D01*
X0209476Y0185185D01*
X0209459Y0185267D01*
X0209445Y0185350D01*
X0209435Y0185433D01*
X0209429Y0185516D01*
X0209427Y0185600D01*
X0078183Y0167600D02*
X0078185Y0167684D01*
X0078191Y0167767D01*
X0078201Y0167850D01*
X0078215Y0167933D01*
X0078232Y0168015D01*
X0078254Y0168096D01*
X0078279Y0168175D01*
X0078308Y0168254D01*
X0078341Y0168331D01*
X0078377Y0168406D01*
X0078417Y0168480D01*
X0078460Y0168552D01*
X0078507Y0168621D01*
X0078557Y0168688D01*
X0078610Y0168753D01*
X0078666Y0168815D01*
X0078724Y0168875D01*
X0078786Y0168932D01*
X0078850Y0168985D01*
X0078917Y0169036D01*
X0078986Y0169083D01*
X0079057Y0169128D01*
X0079130Y0169168D01*
X0079205Y0169205D01*
X0079282Y0169239D01*
X0079360Y0169269D01*
X0079439Y0169295D01*
X0079520Y0169318D01*
X0079602Y0169336D01*
X0079684Y0169351D01*
X0079767Y0169362D01*
X0079850Y0169369D01*
X0079934Y0169372D01*
X0080018Y0169371D01*
X0080101Y0169366D01*
X0080185Y0169357D01*
X0080267Y0169344D01*
X0080349Y0169328D01*
X0080430Y0169307D01*
X0080511Y0169283D01*
X0080589Y0169255D01*
X0080667Y0169223D01*
X0080743Y0169187D01*
X0080817Y0169148D01*
X0080889Y0169106D01*
X0080959Y0169060D01*
X0081027Y0169011D01*
X0081092Y0168959D01*
X0081155Y0168904D01*
X0081215Y0168846D01*
X0081273Y0168785D01*
X0081327Y0168721D01*
X0081379Y0168655D01*
X0081427Y0168587D01*
X0081472Y0168516D01*
X0081513Y0168443D01*
X0081552Y0168369D01*
X0081586Y0168293D01*
X0081617Y0168215D01*
X0081644Y0168136D01*
X0081668Y0168055D01*
X0081687Y0167974D01*
X0081703Y0167892D01*
X0081715Y0167809D01*
X0081723Y0167725D01*
X0081727Y0167642D01*
X0081727Y0167558D01*
X0081723Y0167475D01*
X0081715Y0167391D01*
X0081703Y0167308D01*
X0081687Y0167226D01*
X0081668Y0167145D01*
X0081644Y0167064D01*
X0081617Y0166985D01*
X0081586Y0166907D01*
X0081552Y0166831D01*
X0081513Y0166757D01*
X0081472Y0166684D01*
X0081427Y0166613D01*
X0081379Y0166545D01*
X0081327Y0166479D01*
X0081273Y0166415D01*
X0081215Y0166354D01*
X0081155Y0166296D01*
X0081092Y0166241D01*
X0081027Y0166189D01*
X0080959Y0166140D01*
X0080889Y0166094D01*
X0080817Y0166052D01*
X0080743Y0166013D01*
X0080667Y0165977D01*
X0080589Y0165945D01*
X0080511Y0165917D01*
X0080430Y0165893D01*
X0080349Y0165872D01*
X0080267Y0165856D01*
X0080185Y0165843D01*
X0080101Y0165834D01*
X0080018Y0165829D01*
X0079934Y0165828D01*
X0079850Y0165831D01*
X0079767Y0165838D01*
X0079684Y0165849D01*
X0079602Y0165864D01*
X0079520Y0165882D01*
X0079439Y0165905D01*
X0079360Y0165931D01*
X0079282Y0165961D01*
X0079205Y0165995D01*
X0079130Y0166032D01*
X0079057Y0166072D01*
X0078986Y0166117D01*
X0078917Y0166164D01*
X0078850Y0166215D01*
X0078786Y0166268D01*
X0078724Y0166325D01*
X0078666Y0166385D01*
X0078610Y0166447D01*
X0078557Y0166512D01*
X0078507Y0166579D01*
X0078460Y0166648D01*
X0078417Y0166720D01*
X0078377Y0166794D01*
X0078341Y0166869D01*
X0078308Y0166946D01*
X0078279Y0167025D01*
X0078254Y0167104D01*
X0078232Y0167185D01*
X0078215Y0167267D01*
X0078201Y0167350D01*
X0078191Y0167433D01*
X0078185Y0167516D01*
X0078183Y0167600D01*
X0060860Y0167600D02*
X0060862Y0167684D01*
X0060868Y0167767D01*
X0060878Y0167850D01*
X0060892Y0167933D01*
X0060909Y0168015D01*
X0060931Y0168096D01*
X0060956Y0168175D01*
X0060985Y0168254D01*
X0061018Y0168331D01*
X0061054Y0168406D01*
X0061094Y0168480D01*
X0061137Y0168552D01*
X0061184Y0168621D01*
X0061234Y0168688D01*
X0061287Y0168753D01*
X0061343Y0168815D01*
X0061401Y0168875D01*
X0061463Y0168932D01*
X0061527Y0168985D01*
X0061594Y0169036D01*
X0061663Y0169083D01*
X0061734Y0169128D01*
X0061807Y0169168D01*
X0061882Y0169205D01*
X0061959Y0169239D01*
X0062037Y0169269D01*
X0062116Y0169295D01*
X0062197Y0169318D01*
X0062279Y0169336D01*
X0062361Y0169351D01*
X0062444Y0169362D01*
X0062527Y0169369D01*
X0062611Y0169372D01*
X0062695Y0169371D01*
X0062778Y0169366D01*
X0062862Y0169357D01*
X0062944Y0169344D01*
X0063026Y0169328D01*
X0063107Y0169307D01*
X0063188Y0169283D01*
X0063266Y0169255D01*
X0063344Y0169223D01*
X0063420Y0169187D01*
X0063494Y0169148D01*
X0063566Y0169106D01*
X0063636Y0169060D01*
X0063704Y0169011D01*
X0063769Y0168959D01*
X0063832Y0168904D01*
X0063892Y0168846D01*
X0063950Y0168785D01*
X0064004Y0168721D01*
X0064056Y0168655D01*
X0064104Y0168587D01*
X0064149Y0168516D01*
X0064190Y0168443D01*
X0064229Y0168369D01*
X0064263Y0168293D01*
X0064294Y0168215D01*
X0064321Y0168136D01*
X0064345Y0168055D01*
X0064364Y0167974D01*
X0064380Y0167892D01*
X0064392Y0167809D01*
X0064400Y0167725D01*
X0064404Y0167642D01*
X0064404Y0167558D01*
X0064400Y0167475D01*
X0064392Y0167391D01*
X0064380Y0167308D01*
X0064364Y0167226D01*
X0064345Y0167145D01*
X0064321Y0167064D01*
X0064294Y0166985D01*
X0064263Y0166907D01*
X0064229Y0166831D01*
X0064190Y0166757D01*
X0064149Y0166684D01*
X0064104Y0166613D01*
X0064056Y0166545D01*
X0064004Y0166479D01*
X0063950Y0166415D01*
X0063892Y0166354D01*
X0063832Y0166296D01*
X0063769Y0166241D01*
X0063704Y0166189D01*
X0063636Y0166140D01*
X0063566Y0166094D01*
X0063494Y0166052D01*
X0063420Y0166013D01*
X0063344Y0165977D01*
X0063266Y0165945D01*
X0063188Y0165917D01*
X0063107Y0165893D01*
X0063026Y0165872D01*
X0062944Y0165856D01*
X0062862Y0165843D01*
X0062778Y0165834D01*
X0062695Y0165829D01*
X0062611Y0165828D01*
X0062527Y0165831D01*
X0062444Y0165838D01*
X0062361Y0165849D01*
X0062279Y0165864D01*
X0062197Y0165882D01*
X0062116Y0165905D01*
X0062037Y0165931D01*
X0061959Y0165961D01*
X0061882Y0165995D01*
X0061807Y0166032D01*
X0061734Y0166072D01*
X0061663Y0166117D01*
X0061594Y0166164D01*
X0061527Y0166215D01*
X0061463Y0166268D01*
X0061401Y0166325D01*
X0061343Y0166385D01*
X0061287Y0166447D01*
X0061234Y0166512D01*
X0061184Y0166579D01*
X0061137Y0166648D01*
X0061094Y0166720D01*
X0061054Y0166794D01*
X0061018Y0166869D01*
X0060985Y0166946D01*
X0060956Y0167025D01*
X0060931Y0167104D01*
X0060909Y0167185D01*
X0060892Y0167267D01*
X0060878Y0167350D01*
X0060868Y0167433D01*
X0060862Y0167516D01*
X0060860Y0167600D01*
X0201128Y0053443D02*
X0201130Y0053536D01*
X0201136Y0053628D01*
X0201146Y0053720D01*
X0201160Y0053811D01*
X0201177Y0053902D01*
X0201199Y0053992D01*
X0201224Y0054081D01*
X0201253Y0054169D01*
X0201286Y0054255D01*
X0201323Y0054340D01*
X0201363Y0054424D01*
X0201407Y0054505D01*
X0201454Y0054585D01*
X0201504Y0054663D01*
X0201558Y0054738D01*
X0201615Y0054811D01*
X0201675Y0054881D01*
X0201738Y0054949D01*
X0201804Y0055014D01*
X0201872Y0055076D01*
X0201943Y0055136D01*
X0202017Y0055192D01*
X0202093Y0055245D01*
X0202171Y0055294D01*
X0202251Y0055341D01*
X0202333Y0055383D01*
X0202417Y0055423D01*
X0202502Y0055458D01*
X0202589Y0055490D01*
X0202677Y0055519D01*
X0202766Y0055543D01*
X0202856Y0055564D01*
X0202947Y0055580D01*
X0203039Y0055593D01*
X0203131Y0055602D01*
X0203224Y0055607D01*
X0203316Y0055608D01*
X0203409Y0055605D01*
X0203501Y0055598D01*
X0203593Y0055587D01*
X0203684Y0055572D01*
X0203775Y0055554D01*
X0203865Y0055531D01*
X0203953Y0055505D01*
X0204041Y0055475D01*
X0204127Y0055441D01*
X0204211Y0055404D01*
X0204294Y0055362D01*
X0204375Y0055318D01*
X0204455Y0055270D01*
X0204532Y0055219D01*
X0204606Y0055164D01*
X0204679Y0055106D01*
X0204749Y0055046D01*
X0204816Y0054982D01*
X0204880Y0054916D01*
X0204942Y0054846D01*
X0205000Y0054775D01*
X0205055Y0054701D01*
X0205107Y0054624D01*
X0205156Y0054545D01*
X0205202Y0054465D01*
X0205244Y0054382D01*
X0205282Y0054298D01*
X0205317Y0054212D01*
X0205348Y0054125D01*
X0205375Y0054037D01*
X0205398Y0053947D01*
X0205418Y0053857D01*
X0205434Y0053766D01*
X0205446Y0053674D01*
X0205454Y0053582D01*
X0205458Y0053489D01*
X0205458Y0053397D01*
X0205454Y0053304D01*
X0205446Y0053212D01*
X0205434Y0053120D01*
X0205418Y0053029D01*
X0205398Y0052939D01*
X0205375Y0052849D01*
X0205348Y0052761D01*
X0205317Y0052674D01*
X0205282Y0052588D01*
X0205244Y0052504D01*
X0205202Y0052421D01*
X0205156Y0052341D01*
X0205107Y0052262D01*
X0205055Y0052185D01*
X0205000Y0052111D01*
X0204942Y0052040D01*
X0204880Y0051970D01*
X0204816Y0051904D01*
X0204749Y0051840D01*
X0204679Y0051780D01*
X0204606Y0051722D01*
X0204532Y0051667D01*
X0204455Y0051616D01*
X0204376Y0051568D01*
X0204294Y0051524D01*
X0204211Y0051482D01*
X0204127Y0051445D01*
X0204041Y0051411D01*
X0203953Y0051381D01*
X0203865Y0051355D01*
X0203775Y0051332D01*
X0203684Y0051314D01*
X0203593Y0051299D01*
X0203501Y0051288D01*
X0203409Y0051281D01*
X0203316Y0051278D01*
X0203224Y0051279D01*
X0203131Y0051284D01*
X0203039Y0051293D01*
X0202947Y0051306D01*
X0202856Y0051322D01*
X0202766Y0051343D01*
X0202677Y0051367D01*
X0202589Y0051396D01*
X0202502Y0051428D01*
X0202417Y0051463D01*
X0202333Y0051503D01*
X0202251Y0051545D01*
X0202171Y0051592D01*
X0202093Y0051641D01*
X0202017Y0051694D01*
X0201943Y0051750D01*
X0201872Y0051810D01*
X0201804Y0051872D01*
X0201738Y0051937D01*
X0201675Y0052005D01*
X0201615Y0052075D01*
X0201558Y0052148D01*
X0201504Y0052223D01*
X0201454Y0052301D01*
X0201407Y0052381D01*
X0201363Y0052462D01*
X0201323Y0052546D01*
X0201286Y0052631D01*
X0201253Y0052717D01*
X0201224Y0052805D01*
X0201199Y0052894D01*
X0201177Y0052984D01*
X0201160Y0053075D01*
X0201146Y0053166D01*
X0201136Y0053258D01*
X0201130Y0053350D01*
X0201128Y0053443D01*
X0201128Y0033757D02*
X0201130Y0033850D01*
X0201136Y0033942D01*
X0201146Y0034034D01*
X0201160Y0034125D01*
X0201177Y0034216D01*
X0201199Y0034306D01*
X0201224Y0034395D01*
X0201253Y0034483D01*
X0201286Y0034569D01*
X0201323Y0034654D01*
X0201363Y0034738D01*
X0201407Y0034819D01*
X0201454Y0034899D01*
X0201504Y0034977D01*
X0201558Y0035052D01*
X0201615Y0035125D01*
X0201675Y0035195D01*
X0201738Y0035263D01*
X0201804Y0035328D01*
X0201872Y0035390D01*
X0201943Y0035450D01*
X0202017Y0035506D01*
X0202093Y0035559D01*
X0202171Y0035608D01*
X0202251Y0035655D01*
X0202333Y0035697D01*
X0202417Y0035737D01*
X0202502Y0035772D01*
X0202589Y0035804D01*
X0202677Y0035833D01*
X0202766Y0035857D01*
X0202856Y0035878D01*
X0202947Y0035894D01*
X0203039Y0035907D01*
X0203131Y0035916D01*
X0203224Y0035921D01*
X0203316Y0035922D01*
X0203409Y0035919D01*
X0203501Y0035912D01*
X0203593Y0035901D01*
X0203684Y0035886D01*
X0203775Y0035868D01*
X0203865Y0035845D01*
X0203953Y0035819D01*
X0204041Y0035789D01*
X0204127Y0035755D01*
X0204211Y0035718D01*
X0204294Y0035676D01*
X0204375Y0035632D01*
X0204455Y0035584D01*
X0204532Y0035533D01*
X0204606Y0035478D01*
X0204679Y0035420D01*
X0204749Y0035360D01*
X0204816Y0035296D01*
X0204880Y0035230D01*
X0204942Y0035160D01*
X0205000Y0035089D01*
X0205055Y0035015D01*
X0205107Y0034938D01*
X0205156Y0034859D01*
X0205202Y0034779D01*
X0205244Y0034696D01*
X0205282Y0034612D01*
X0205317Y0034526D01*
X0205348Y0034439D01*
X0205375Y0034351D01*
X0205398Y0034261D01*
X0205418Y0034171D01*
X0205434Y0034080D01*
X0205446Y0033988D01*
X0205454Y0033896D01*
X0205458Y0033803D01*
X0205458Y0033711D01*
X0205454Y0033618D01*
X0205446Y0033526D01*
X0205434Y0033434D01*
X0205418Y0033343D01*
X0205398Y0033253D01*
X0205375Y0033163D01*
X0205348Y0033075D01*
X0205317Y0032988D01*
X0205282Y0032902D01*
X0205244Y0032818D01*
X0205202Y0032735D01*
X0205156Y0032655D01*
X0205107Y0032576D01*
X0205055Y0032499D01*
X0205000Y0032425D01*
X0204942Y0032354D01*
X0204880Y0032284D01*
X0204816Y0032218D01*
X0204749Y0032154D01*
X0204679Y0032094D01*
X0204606Y0032036D01*
X0204532Y0031981D01*
X0204455Y0031930D01*
X0204376Y0031882D01*
X0204294Y0031838D01*
X0204211Y0031796D01*
X0204127Y0031759D01*
X0204041Y0031725D01*
X0203953Y0031695D01*
X0203865Y0031669D01*
X0203775Y0031646D01*
X0203684Y0031628D01*
X0203593Y0031613D01*
X0203501Y0031602D01*
X0203409Y0031595D01*
X0203316Y0031592D01*
X0203224Y0031593D01*
X0203131Y0031598D01*
X0203039Y0031607D01*
X0202947Y0031620D01*
X0202856Y0031636D01*
X0202766Y0031657D01*
X0202677Y0031681D01*
X0202589Y0031710D01*
X0202502Y0031742D01*
X0202417Y0031777D01*
X0202333Y0031817D01*
X0202251Y0031859D01*
X0202171Y0031906D01*
X0202093Y0031955D01*
X0202017Y0032008D01*
X0201943Y0032064D01*
X0201872Y0032124D01*
X0201804Y0032186D01*
X0201738Y0032251D01*
X0201675Y0032319D01*
X0201615Y0032389D01*
X0201558Y0032462D01*
X0201504Y0032537D01*
X0201454Y0032615D01*
X0201407Y0032695D01*
X0201363Y0032776D01*
X0201323Y0032860D01*
X0201286Y0032945D01*
X0201253Y0033031D01*
X0201224Y0033119D01*
X0201199Y0033208D01*
X0201177Y0033298D01*
X0201160Y0033389D01*
X0201146Y0033480D01*
X0201136Y0033572D01*
X0201130Y0033664D01*
X0201128Y0033757D01*
M02*
