G75*
%MOIN*%
%OFA0B0*%
%FSLAX25Y25*%
%IPPOS*%
%LPD*%
%AMOC8*
5,1,8,0,0,1.08239X$1,22.5*
%
%ADD10C,0.00000*%
D10*
X0004628Y0021185D02*
X0004628Y0375516D01*
X0004634Y0375992D01*
X0004651Y0376467D01*
X0004680Y0376942D01*
X0004720Y0377416D01*
X0004772Y0377889D01*
X0004835Y0378360D01*
X0004909Y0378830D01*
X0004995Y0379298D01*
X0005092Y0379764D01*
X0005200Y0380227D01*
X0005319Y0380687D01*
X0005450Y0381145D01*
X0005591Y0381599D01*
X0005744Y0382050D01*
X0005907Y0382496D01*
X0006081Y0382939D01*
X0006266Y0383377D01*
X0006461Y0383811D01*
X0006667Y0384240D01*
X0006883Y0384664D01*
X0007109Y0385083D01*
X0007345Y0385496D01*
X0007591Y0385903D01*
X0007847Y0386304D01*
X0008113Y0386698D01*
X0008388Y0387087D01*
X0008672Y0387468D01*
X0008965Y0387842D01*
X0009267Y0388210D01*
X0009579Y0388570D01*
X0009898Y0388922D01*
X0010226Y0389266D01*
X0010563Y0389603D01*
X0010907Y0389931D01*
X0011259Y0390250D01*
X0011619Y0390562D01*
X0011987Y0390864D01*
X0012361Y0391157D01*
X0012742Y0391441D01*
X0013131Y0391716D01*
X0013525Y0391982D01*
X0013926Y0392238D01*
X0014333Y0392484D01*
X0014746Y0392720D01*
X0015165Y0392946D01*
X0015589Y0393162D01*
X0016018Y0393368D01*
X0016452Y0393563D01*
X0016890Y0393748D01*
X0017333Y0393922D01*
X0017779Y0394085D01*
X0018230Y0394238D01*
X0018684Y0394379D01*
X0019142Y0394510D01*
X0019602Y0394629D01*
X0020065Y0394737D01*
X0020531Y0394834D01*
X0020999Y0394920D01*
X0021469Y0394994D01*
X0021940Y0395057D01*
X0022413Y0395109D01*
X0022887Y0395149D01*
X0023362Y0395178D01*
X0023837Y0395195D01*
X0024313Y0395201D01*
X0378644Y0395201D01*
X0379120Y0395195D01*
X0379595Y0395178D01*
X0380070Y0395149D01*
X0380544Y0395109D01*
X0381017Y0395057D01*
X0381488Y0394994D01*
X0381958Y0394920D01*
X0382426Y0394834D01*
X0382892Y0394737D01*
X0383355Y0394629D01*
X0383815Y0394510D01*
X0384273Y0394379D01*
X0384727Y0394238D01*
X0385178Y0394085D01*
X0385624Y0393922D01*
X0386067Y0393748D01*
X0386505Y0393563D01*
X0386939Y0393368D01*
X0387368Y0393162D01*
X0387792Y0392946D01*
X0388211Y0392720D01*
X0388624Y0392484D01*
X0389031Y0392238D01*
X0389432Y0391982D01*
X0389826Y0391716D01*
X0390215Y0391441D01*
X0390596Y0391157D01*
X0390970Y0390864D01*
X0391338Y0390562D01*
X0391698Y0390250D01*
X0392050Y0389931D01*
X0392394Y0389603D01*
X0392731Y0389266D01*
X0393059Y0388922D01*
X0393378Y0388570D01*
X0393690Y0388210D01*
X0393992Y0387842D01*
X0394285Y0387468D01*
X0394569Y0387087D01*
X0394844Y0386698D01*
X0395110Y0386304D01*
X0395366Y0385903D01*
X0395612Y0385496D01*
X0395848Y0385083D01*
X0396074Y0384664D01*
X0396290Y0384240D01*
X0396496Y0383811D01*
X0396691Y0383377D01*
X0396876Y0382939D01*
X0397050Y0382496D01*
X0397213Y0382050D01*
X0397366Y0381599D01*
X0397507Y0381145D01*
X0397638Y0380687D01*
X0397757Y0380227D01*
X0397865Y0379764D01*
X0397962Y0379298D01*
X0398048Y0378830D01*
X0398122Y0378360D01*
X0398185Y0377889D01*
X0398237Y0377416D01*
X0398277Y0376942D01*
X0398306Y0376467D01*
X0398323Y0375992D01*
X0398329Y0375516D01*
X0398329Y0363705D01*
X0398323Y0363229D01*
X0398306Y0362754D01*
X0398277Y0362279D01*
X0398237Y0361805D01*
X0398185Y0361332D01*
X0398122Y0360861D01*
X0398048Y0360391D01*
X0397962Y0359923D01*
X0397865Y0359457D01*
X0397757Y0358994D01*
X0397638Y0358534D01*
X0397507Y0358076D01*
X0397366Y0357622D01*
X0397213Y0357171D01*
X0397050Y0356725D01*
X0396876Y0356282D01*
X0396691Y0355844D01*
X0396496Y0355410D01*
X0396290Y0354981D01*
X0396074Y0354557D01*
X0395848Y0354138D01*
X0395612Y0353725D01*
X0395366Y0353318D01*
X0395110Y0352917D01*
X0394844Y0352523D01*
X0394569Y0352134D01*
X0394285Y0351753D01*
X0393992Y0351379D01*
X0393690Y0351011D01*
X0393378Y0350651D01*
X0393059Y0350299D01*
X0392731Y0349955D01*
X0392394Y0349618D01*
X0392050Y0349290D01*
X0391698Y0348971D01*
X0391338Y0348659D01*
X0390970Y0348357D01*
X0390596Y0348064D01*
X0390215Y0347780D01*
X0389826Y0347505D01*
X0389432Y0347239D01*
X0389031Y0346983D01*
X0388624Y0346737D01*
X0388211Y0346501D01*
X0387792Y0346275D01*
X0387368Y0346059D01*
X0386939Y0345853D01*
X0386505Y0345658D01*
X0386067Y0345473D01*
X0385624Y0345299D01*
X0385178Y0345136D01*
X0384727Y0344983D01*
X0384273Y0344842D01*
X0383815Y0344711D01*
X0383355Y0344592D01*
X0382892Y0344484D01*
X0382426Y0344387D01*
X0381958Y0344301D01*
X0381488Y0344227D01*
X0381017Y0344164D01*
X0380544Y0344112D01*
X0380070Y0344072D01*
X0379595Y0344043D01*
X0379120Y0344026D01*
X0378644Y0344020D01*
X0378644Y0336146D01*
X0386518Y0336146D01*
X0398329Y0324335D01*
X0398329Y0273154D01*
X0386518Y0261343D01*
X0378644Y0261343D01*
X0378644Y0253469D01*
X0370770Y0253469D02*
X0256597Y0253469D01*
X0240849Y0269217D01*
X0240849Y0288902D01*
X0248723Y0288902D01*
X0248723Y0273154D01*
X0260534Y0261343D01*
X0370770Y0261343D01*
X0370770Y0253469D01*
X0378644Y0253468D02*
X0379120Y0253462D01*
X0379595Y0253445D01*
X0380070Y0253416D01*
X0380544Y0253376D01*
X0381017Y0253324D01*
X0381488Y0253261D01*
X0381958Y0253187D01*
X0382426Y0253101D01*
X0382892Y0253004D01*
X0383355Y0252896D01*
X0383815Y0252777D01*
X0384273Y0252646D01*
X0384727Y0252505D01*
X0385178Y0252352D01*
X0385624Y0252189D01*
X0386067Y0252015D01*
X0386505Y0251830D01*
X0386939Y0251635D01*
X0387368Y0251429D01*
X0387792Y0251213D01*
X0388211Y0250987D01*
X0388624Y0250751D01*
X0389031Y0250505D01*
X0389432Y0250249D01*
X0389826Y0249983D01*
X0390215Y0249708D01*
X0390596Y0249424D01*
X0390970Y0249131D01*
X0391338Y0248829D01*
X0391698Y0248517D01*
X0392050Y0248198D01*
X0392394Y0247870D01*
X0392731Y0247533D01*
X0393059Y0247189D01*
X0393378Y0246837D01*
X0393690Y0246477D01*
X0393992Y0246109D01*
X0394285Y0245735D01*
X0394569Y0245354D01*
X0394844Y0244965D01*
X0395110Y0244571D01*
X0395366Y0244170D01*
X0395612Y0243763D01*
X0395848Y0243350D01*
X0396074Y0242931D01*
X0396290Y0242507D01*
X0396496Y0242078D01*
X0396691Y0241644D01*
X0396876Y0241206D01*
X0397050Y0240763D01*
X0397213Y0240317D01*
X0397366Y0239866D01*
X0397507Y0239412D01*
X0397638Y0238954D01*
X0397757Y0238494D01*
X0397865Y0238031D01*
X0397962Y0237565D01*
X0398048Y0237097D01*
X0398122Y0236627D01*
X0398185Y0236156D01*
X0398237Y0235683D01*
X0398277Y0235209D01*
X0398306Y0234734D01*
X0398323Y0234259D01*
X0398329Y0233783D01*
X0398329Y0021185D01*
X0398323Y0020709D01*
X0398306Y0020234D01*
X0398277Y0019759D01*
X0398237Y0019285D01*
X0398185Y0018812D01*
X0398122Y0018341D01*
X0398048Y0017871D01*
X0397962Y0017403D01*
X0397865Y0016937D01*
X0397757Y0016474D01*
X0397638Y0016014D01*
X0397507Y0015556D01*
X0397366Y0015102D01*
X0397213Y0014651D01*
X0397050Y0014205D01*
X0396876Y0013762D01*
X0396691Y0013324D01*
X0396496Y0012890D01*
X0396290Y0012461D01*
X0396074Y0012037D01*
X0395848Y0011618D01*
X0395612Y0011205D01*
X0395366Y0010798D01*
X0395110Y0010397D01*
X0394844Y0010003D01*
X0394569Y0009614D01*
X0394285Y0009233D01*
X0393992Y0008859D01*
X0393690Y0008491D01*
X0393378Y0008131D01*
X0393059Y0007779D01*
X0392731Y0007435D01*
X0392394Y0007098D01*
X0392050Y0006770D01*
X0391698Y0006451D01*
X0391338Y0006139D01*
X0390970Y0005837D01*
X0390596Y0005544D01*
X0390215Y0005260D01*
X0389826Y0004985D01*
X0389432Y0004719D01*
X0389031Y0004463D01*
X0388624Y0004217D01*
X0388211Y0003981D01*
X0387792Y0003755D01*
X0387368Y0003539D01*
X0386939Y0003333D01*
X0386505Y0003138D01*
X0386067Y0002953D01*
X0385624Y0002779D01*
X0385178Y0002616D01*
X0384727Y0002463D01*
X0384273Y0002322D01*
X0383815Y0002191D01*
X0383355Y0002072D01*
X0382892Y0001964D01*
X0382426Y0001867D01*
X0381958Y0001781D01*
X0381488Y0001707D01*
X0381017Y0001644D01*
X0380544Y0001592D01*
X0380070Y0001552D01*
X0379595Y0001523D01*
X0379120Y0001506D01*
X0378644Y0001500D01*
X0024313Y0001500D01*
X0023837Y0001506D01*
X0023362Y0001523D01*
X0022887Y0001552D01*
X0022413Y0001592D01*
X0021940Y0001644D01*
X0021469Y0001707D01*
X0020999Y0001781D01*
X0020531Y0001867D01*
X0020065Y0001964D01*
X0019602Y0002072D01*
X0019142Y0002191D01*
X0018684Y0002322D01*
X0018230Y0002463D01*
X0017779Y0002616D01*
X0017333Y0002779D01*
X0016890Y0002953D01*
X0016452Y0003138D01*
X0016018Y0003333D01*
X0015589Y0003539D01*
X0015165Y0003755D01*
X0014746Y0003981D01*
X0014333Y0004217D01*
X0013926Y0004463D01*
X0013525Y0004719D01*
X0013131Y0004985D01*
X0012742Y0005260D01*
X0012361Y0005544D01*
X0011987Y0005837D01*
X0011619Y0006139D01*
X0011259Y0006451D01*
X0010907Y0006770D01*
X0010563Y0007098D01*
X0010226Y0007435D01*
X0009898Y0007779D01*
X0009579Y0008131D01*
X0009267Y0008491D01*
X0008965Y0008859D01*
X0008672Y0009233D01*
X0008388Y0009614D01*
X0008113Y0010003D01*
X0007847Y0010397D01*
X0007591Y0010798D01*
X0007345Y0011205D01*
X0007109Y0011618D01*
X0006883Y0012037D01*
X0006667Y0012461D01*
X0006461Y0012890D01*
X0006266Y0013324D01*
X0006081Y0013762D01*
X0005907Y0014205D01*
X0005744Y0014651D01*
X0005591Y0015102D01*
X0005450Y0015556D01*
X0005319Y0016014D01*
X0005200Y0016474D01*
X0005092Y0016937D01*
X0004995Y0017403D01*
X0004909Y0017871D01*
X0004835Y0018341D01*
X0004772Y0018812D01*
X0004720Y0019285D01*
X0004680Y0019759D01*
X0004651Y0020234D01*
X0004634Y0020709D01*
X0004628Y0021185D01*
X0022856Y0057839D02*
X0022858Y0057923D01*
X0022864Y0058006D01*
X0022874Y0058089D01*
X0022888Y0058172D01*
X0022905Y0058254D01*
X0022927Y0058335D01*
X0022952Y0058414D01*
X0022981Y0058493D01*
X0023014Y0058570D01*
X0023050Y0058645D01*
X0023090Y0058719D01*
X0023133Y0058791D01*
X0023180Y0058860D01*
X0023230Y0058927D01*
X0023283Y0058992D01*
X0023339Y0059054D01*
X0023397Y0059114D01*
X0023459Y0059171D01*
X0023523Y0059224D01*
X0023590Y0059275D01*
X0023659Y0059322D01*
X0023730Y0059367D01*
X0023803Y0059407D01*
X0023878Y0059444D01*
X0023955Y0059478D01*
X0024033Y0059508D01*
X0024112Y0059534D01*
X0024193Y0059557D01*
X0024275Y0059575D01*
X0024357Y0059590D01*
X0024440Y0059601D01*
X0024523Y0059608D01*
X0024607Y0059611D01*
X0024691Y0059610D01*
X0024774Y0059605D01*
X0024858Y0059596D01*
X0024940Y0059583D01*
X0025022Y0059567D01*
X0025103Y0059546D01*
X0025184Y0059522D01*
X0025262Y0059494D01*
X0025340Y0059462D01*
X0025416Y0059426D01*
X0025490Y0059387D01*
X0025562Y0059345D01*
X0025632Y0059299D01*
X0025700Y0059250D01*
X0025765Y0059198D01*
X0025828Y0059143D01*
X0025888Y0059085D01*
X0025946Y0059024D01*
X0026000Y0058960D01*
X0026052Y0058894D01*
X0026100Y0058826D01*
X0026145Y0058755D01*
X0026186Y0058682D01*
X0026225Y0058608D01*
X0026259Y0058532D01*
X0026290Y0058454D01*
X0026317Y0058375D01*
X0026341Y0058294D01*
X0026360Y0058213D01*
X0026376Y0058131D01*
X0026388Y0058048D01*
X0026396Y0057964D01*
X0026400Y0057881D01*
X0026400Y0057797D01*
X0026396Y0057714D01*
X0026388Y0057630D01*
X0026376Y0057547D01*
X0026360Y0057465D01*
X0026341Y0057384D01*
X0026317Y0057303D01*
X0026290Y0057224D01*
X0026259Y0057146D01*
X0026225Y0057070D01*
X0026186Y0056996D01*
X0026145Y0056923D01*
X0026100Y0056852D01*
X0026052Y0056784D01*
X0026000Y0056718D01*
X0025946Y0056654D01*
X0025888Y0056593D01*
X0025828Y0056535D01*
X0025765Y0056480D01*
X0025700Y0056428D01*
X0025632Y0056379D01*
X0025562Y0056333D01*
X0025490Y0056291D01*
X0025416Y0056252D01*
X0025340Y0056216D01*
X0025262Y0056184D01*
X0025184Y0056156D01*
X0025103Y0056132D01*
X0025022Y0056111D01*
X0024940Y0056095D01*
X0024858Y0056082D01*
X0024774Y0056073D01*
X0024691Y0056068D01*
X0024607Y0056067D01*
X0024523Y0056070D01*
X0024440Y0056077D01*
X0024357Y0056088D01*
X0024275Y0056103D01*
X0024193Y0056121D01*
X0024112Y0056144D01*
X0024033Y0056170D01*
X0023955Y0056200D01*
X0023878Y0056234D01*
X0023803Y0056271D01*
X0023730Y0056311D01*
X0023659Y0056356D01*
X0023590Y0056403D01*
X0023523Y0056454D01*
X0023459Y0056507D01*
X0023397Y0056564D01*
X0023339Y0056624D01*
X0023283Y0056686D01*
X0023230Y0056751D01*
X0023180Y0056818D01*
X0023133Y0056887D01*
X0023090Y0056959D01*
X0023050Y0057033D01*
X0023014Y0057108D01*
X0022981Y0057185D01*
X0022952Y0057264D01*
X0022927Y0057343D01*
X0022905Y0057424D01*
X0022888Y0057506D01*
X0022874Y0057589D01*
X0022864Y0057672D01*
X0022858Y0057755D01*
X0022856Y0057839D01*
X0022856Y0075161D02*
X0022858Y0075245D01*
X0022864Y0075328D01*
X0022874Y0075411D01*
X0022888Y0075494D01*
X0022905Y0075576D01*
X0022927Y0075657D01*
X0022952Y0075736D01*
X0022981Y0075815D01*
X0023014Y0075892D01*
X0023050Y0075967D01*
X0023090Y0076041D01*
X0023133Y0076113D01*
X0023180Y0076182D01*
X0023230Y0076249D01*
X0023283Y0076314D01*
X0023339Y0076376D01*
X0023397Y0076436D01*
X0023459Y0076493D01*
X0023523Y0076546D01*
X0023590Y0076597D01*
X0023659Y0076644D01*
X0023730Y0076689D01*
X0023803Y0076729D01*
X0023878Y0076766D01*
X0023955Y0076800D01*
X0024033Y0076830D01*
X0024112Y0076856D01*
X0024193Y0076879D01*
X0024275Y0076897D01*
X0024357Y0076912D01*
X0024440Y0076923D01*
X0024523Y0076930D01*
X0024607Y0076933D01*
X0024691Y0076932D01*
X0024774Y0076927D01*
X0024858Y0076918D01*
X0024940Y0076905D01*
X0025022Y0076889D01*
X0025103Y0076868D01*
X0025184Y0076844D01*
X0025262Y0076816D01*
X0025340Y0076784D01*
X0025416Y0076748D01*
X0025490Y0076709D01*
X0025562Y0076667D01*
X0025632Y0076621D01*
X0025700Y0076572D01*
X0025765Y0076520D01*
X0025828Y0076465D01*
X0025888Y0076407D01*
X0025946Y0076346D01*
X0026000Y0076282D01*
X0026052Y0076216D01*
X0026100Y0076148D01*
X0026145Y0076077D01*
X0026186Y0076004D01*
X0026225Y0075930D01*
X0026259Y0075854D01*
X0026290Y0075776D01*
X0026317Y0075697D01*
X0026341Y0075616D01*
X0026360Y0075535D01*
X0026376Y0075453D01*
X0026388Y0075370D01*
X0026396Y0075286D01*
X0026400Y0075203D01*
X0026400Y0075119D01*
X0026396Y0075036D01*
X0026388Y0074952D01*
X0026376Y0074869D01*
X0026360Y0074787D01*
X0026341Y0074706D01*
X0026317Y0074625D01*
X0026290Y0074546D01*
X0026259Y0074468D01*
X0026225Y0074392D01*
X0026186Y0074318D01*
X0026145Y0074245D01*
X0026100Y0074174D01*
X0026052Y0074106D01*
X0026000Y0074040D01*
X0025946Y0073976D01*
X0025888Y0073915D01*
X0025828Y0073857D01*
X0025765Y0073802D01*
X0025700Y0073750D01*
X0025632Y0073701D01*
X0025562Y0073655D01*
X0025490Y0073613D01*
X0025416Y0073574D01*
X0025340Y0073538D01*
X0025262Y0073506D01*
X0025184Y0073478D01*
X0025103Y0073454D01*
X0025022Y0073433D01*
X0024940Y0073417D01*
X0024858Y0073404D01*
X0024774Y0073395D01*
X0024691Y0073390D01*
X0024607Y0073389D01*
X0024523Y0073392D01*
X0024440Y0073399D01*
X0024357Y0073410D01*
X0024275Y0073425D01*
X0024193Y0073443D01*
X0024112Y0073466D01*
X0024033Y0073492D01*
X0023955Y0073522D01*
X0023878Y0073556D01*
X0023803Y0073593D01*
X0023730Y0073633D01*
X0023659Y0073678D01*
X0023590Y0073725D01*
X0023523Y0073776D01*
X0023459Y0073829D01*
X0023397Y0073886D01*
X0023339Y0073946D01*
X0023283Y0074008D01*
X0023230Y0074073D01*
X0023180Y0074140D01*
X0023133Y0074209D01*
X0023090Y0074281D01*
X0023050Y0074355D01*
X0023014Y0074430D01*
X0022981Y0074507D01*
X0022952Y0074586D01*
X0022927Y0074665D01*
X0022905Y0074746D01*
X0022888Y0074828D01*
X0022874Y0074911D01*
X0022864Y0074994D01*
X0022858Y0075077D01*
X0022856Y0075161D01*
X0150085Y0199500D02*
X0150087Y0199618D01*
X0150093Y0199737D01*
X0150103Y0199855D01*
X0150117Y0199972D01*
X0150134Y0200089D01*
X0150156Y0200206D01*
X0150182Y0200321D01*
X0150211Y0200436D01*
X0150244Y0200550D01*
X0150281Y0200662D01*
X0150322Y0200773D01*
X0150366Y0200883D01*
X0150414Y0200991D01*
X0150466Y0201098D01*
X0150521Y0201203D01*
X0150580Y0201306D01*
X0150642Y0201406D01*
X0150707Y0201505D01*
X0150776Y0201602D01*
X0150847Y0201696D01*
X0150922Y0201787D01*
X0151000Y0201877D01*
X0151081Y0201963D01*
X0151165Y0202047D01*
X0151251Y0202128D01*
X0151341Y0202206D01*
X0151432Y0202281D01*
X0151526Y0202352D01*
X0151623Y0202421D01*
X0151722Y0202486D01*
X0151822Y0202548D01*
X0151925Y0202607D01*
X0152030Y0202662D01*
X0152137Y0202714D01*
X0152245Y0202762D01*
X0152355Y0202806D01*
X0152466Y0202847D01*
X0152578Y0202884D01*
X0152692Y0202917D01*
X0152807Y0202946D01*
X0152922Y0202972D01*
X0153039Y0202994D01*
X0153156Y0203011D01*
X0153273Y0203025D01*
X0153391Y0203035D01*
X0153510Y0203041D01*
X0153628Y0203043D01*
X0153746Y0203041D01*
X0153865Y0203035D01*
X0153983Y0203025D01*
X0154100Y0203011D01*
X0154217Y0202994D01*
X0154334Y0202972D01*
X0154449Y0202946D01*
X0154564Y0202917D01*
X0154678Y0202884D01*
X0154790Y0202847D01*
X0154901Y0202806D01*
X0155011Y0202762D01*
X0155119Y0202714D01*
X0155226Y0202662D01*
X0155331Y0202607D01*
X0155434Y0202548D01*
X0155534Y0202486D01*
X0155633Y0202421D01*
X0155730Y0202352D01*
X0155824Y0202281D01*
X0155915Y0202206D01*
X0156005Y0202128D01*
X0156091Y0202047D01*
X0156175Y0201963D01*
X0156256Y0201877D01*
X0156334Y0201787D01*
X0156409Y0201696D01*
X0156480Y0201602D01*
X0156549Y0201505D01*
X0156614Y0201406D01*
X0156676Y0201306D01*
X0156735Y0201203D01*
X0156790Y0201098D01*
X0156842Y0200991D01*
X0156890Y0200883D01*
X0156934Y0200773D01*
X0156975Y0200662D01*
X0157012Y0200550D01*
X0157045Y0200436D01*
X0157074Y0200321D01*
X0157100Y0200206D01*
X0157122Y0200089D01*
X0157139Y0199972D01*
X0157153Y0199855D01*
X0157163Y0199737D01*
X0157169Y0199618D01*
X0157171Y0199500D01*
X0157169Y0199382D01*
X0157163Y0199263D01*
X0157153Y0199145D01*
X0157139Y0199028D01*
X0157122Y0198911D01*
X0157100Y0198794D01*
X0157074Y0198679D01*
X0157045Y0198564D01*
X0157012Y0198450D01*
X0156975Y0198338D01*
X0156934Y0198227D01*
X0156890Y0198117D01*
X0156842Y0198009D01*
X0156790Y0197902D01*
X0156735Y0197797D01*
X0156676Y0197694D01*
X0156614Y0197594D01*
X0156549Y0197495D01*
X0156480Y0197398D01*
X0156409Y0197304D01*
X0156334Y0197213D01*
X0156256Y0197123D01*
X0156175Y0197037D01*
X0156091Y0196953D01*
X0156005Y0196872D01*
X0155915Y0196794D01*
X0155824Y0196719D01*
X0155730Y0196648D01*
X0155633Y0196579D01*
X0155534Y0196514D01*
X0155434Y0196452D01*
X0155331Y0196393D01*
X0155226Y0196338D01*
X0155119Y0196286D01*
X0155011Y0196238D01*
X0154901Y0196194D01*
X0154790Y0196153D01*
X0154678Y0196116D01*
X0154564Y0196083D01*
X0154449Y0196054D01*
X0154334Y0196028D01*
X0154217Y0196006D01*
X0154100Y0195989D01*
X0153983Y0195975D01*
X0153865Y0195965D01*
X0153746Y0195959D01*
X0153628Y0195957D01*
X0153510Y0195959D01*
X0153391Y0195965D01*
X0153273Y0195975D01*
X0153156Y0195989D01*
X0153039Y0196006D01*
X0152922Y0196028D01*
X0152807Y0196054D01*
X0152692Y0196083D01*
X0152578Y0196116D01*
X0152466Y0196153D01*
X0152355Y0196194D01*
X0152245Y0196238D01*
X0152137Y0196286D01*
X0152030Y0196338D01*
X0151925Y0196393D01*
X0151822Y0196452D01*
X0151722Y0196514D01*
X0151623Y0196579D01*
X0151526Y0196648D01*
X0151432Y0196719D01*
X0151341Y0196794D01*
X0151251Y0196872D01*
X0151165Y0196953D01*
X0151081Y0197037D01*
X0151000Y0197123D01*
X0150922Y0197213D01*
X0150847Y0197304D01*
X0150776Y0197398D01*
X0150707Y0197495D01*
X0150642Y0197594D01*
X0150580Y0197694D01*
X0150521Y0197797D01*
X0150466Y0197902D01*
X0150414Y0198009D01*
X0150366Y0198117D01*
X0150322Y0198227D01*
X0150281Y0198338D01*
X0150244Y0198450D01*
X0150211Y0198564D01*
X0150182Y0198679D01*
X0150156Y0198794D01*
X0150134Y0198911D01*
X0150117Y0199028D01*
X0150103Y0199145D01*
X0150093Y0199263D01*
X0150087Y0199382D01*
X0150085Y0199500D01*
X0160085Y0199500D02*
X0160087Y0199618D01*
X0160093Y0199737D01*
X0160103Y0199855D01*
X0160117Y0199972D01*
X0160134Y0200089D01*
X0160156Y0200206D01*
X0160182Y0200321D01*
X0160211Y0200436D01*
X0160244Y0200550D01*
X0160281Y0200662D01*
X0160322Y0200773D01*
X0160366Y0200883D01*
X0160414Y0200991D01*
X0160466Y0201098D01*
X0160521Y0201203D01*
X0160580Y0201306D01*
X0160642Y0201406D01*
X0160707Y0201505D01*
X0160776Y0201602D01*
X0160847Y0201696D01*
X0160922Y0201787D01*
X0161000Y0201877D01*
X0161081Y0201963D01*
X0161165Y0202047D01*
X0161251Y0202128D01*
X0161341Y0202206D01*
X0161432Y0202281D01*
X0161526Y0202352D01*
X0161623Y0202421D01*
X0161722Y0202486D01*
X0161822Y0202548D01*
X0161925Y0202607D01*
X0162030Y0202662D01*
X0162137Y0202714D01*
X0162245Y0202762D01*
X0162355Y0202806D01*
X0162466Y0202847D01*
X0162578Y0202884D01*
X0162692Y0202917D01*
X0162807Y0202946D01*
X0162922Y0202972D01*
X0163039Y0202994D01*
X0163156Y0203011D01*
X0163273Y0203025D01*
X0163391Y0203035D01*
X0163510Y0203041D01*
X0163628Y0203043D01*
X0163746Y0203041D01*
X0163865Y0203035D01*
X0163983Y0203025D01*
X0164100Y0203011D01*
X0164217Y0202994D01*
X0164334Y0202972D01*
X0164449Y0202946D01*
X0164564Y0202917D01*
X0164678Y0202884D01*
X0164790Y0202847D01*
X0164901Y0202806D01*
X0165011Y0202762D01*
X0165119Y0202714D01*
X0165226Y0202662D01*
X0165331Y0202607D01*
X0165434Y0202548D01*
X0165534Y0202486D01*
X0165633Y0202421D01*
X0165730Y0202352D01*
X0165824Y0202281D01*
X0165915Y0202206D01*
X0166005Y0202128D01*
X0166091Y0202047D01*
X0166175Y0201963D01*
X0166256Y0201877D01*
X0166334Y0201787D01*
X0166409Y0201696D01*
X0166480Y0201602D01*
X0166549Y0201505D01*
X0166614Y0201406D01*
X0166676Y0201306D01*
X0166735Y0201203D01*
X0166790Y0201098D01*
X0166842Y0200991D01*
X0166890Y0200883D01*
X0166934Y0200773D01*
X0166975Y0200662D01*
X0167012Y0200550D01*
X0167045Y0200436D01*
X0167074Y0200321D01*
X0167100Y0200206D01*
X0167122Y0200089D01*
X0167139Y0199972D01*
X0167153Y0199855D01*
X0167163Y0199737D01*
X0167169Y0199618D01*
X0167171Y0199500D01*
X0167169Y0199382D01*
X0167163Y0199263D01*
X0167153Y0199145D01*
X0167139Y0199028D01*
X0167122Y0198911D01*
X0167100Y0198794D01*
X0167074Y0198679D01*
X0167045Y0198564D01*
X0167012Y0198450D01*
X0166975Y0198338D01*
X0166934Y0198227D01*
X0166890Y0198117D01*
X0166842Y0198009D01*
X0166790Y0197902D01*
X0166735Y0197797D01*
X0166676Y0197694D01*
X0166614Y0197594D01*
X0166549Y0197495D01*
X0166480Y0197398D01*
X0166409Y0197304D01*
X0166334Y0197213D01*
X0166256Y0197123D01*
X0166175Y0197037D01*
X0166091Y0196953D01*
X0166005Y0196872D01*
X0165915Y0196794D01*
X0165824Y0196719D01*
X0165730Y0196648D01*
X0165633Y0196579D01*
X0165534Y0196514D01*
X0165434Y0196452D01*
X0165331Y0196393D01*
X0165226Y0196338D01*
X0165119Y0196286D01*
X0165011Y0196238D01*
X0164901Y0196194D01*
X0164790Y0196153D01*
X0164678Y0196116D01*
X0164564Y0196083D01*
X0164449Y0196054D01*
X0164334Y0196028D01*
X0164217Y0196006D01*
X0164100Y0195989D01*
X0163983Y0195975D01*
X0163865Y0195965D01*
X0163746Y0195959D01*
X0163628Y0195957D01*
X0163510Y0195959D01*
X0163391Y0195965D01*
X0163273Y0195975D01*
X0163156Y0195989D01*
X0163039Y0196006D01*
X0162922Y0196028D01*
X0162807Y0196054D01*
X0162692Y0196083D01*
X0162578Y0196116D01*
X0162466Y0196153D01*
X0162355Y0196194D01*
X0162245Y0196238D01*
X0162137Y0196286D01*
X0162030Y0196338D01*
X0161925Y0196393D01*
X0161822Y0196452D01*
X0161722Y0196514D01*
X0161623Y0196579D01*
X0161526Y0196648D01*
X0161432Y0196719D01*
X0161341Y0196794D01*
X0161251Y0196872D01*
X0161165Y0196953D01*
X0161081Y0197037D01*
X0161000Y0197123D01*
X0160922Y0197213D01*
X0160847Y0197304D01*
X0160776Y0197398D01*
X0160707Y0197495D01*
X0160642Y0197594D01*
X0160580Y0197694D01*
X0160521Y0197797D01*
X0160466Y0197902D01*
X0160414Y0198009D01*
X0160366Y0198117D01*
X0160322Y0198227D01*
X0160281Y0198338D01*
X0160244Y0198450D01*
X0160211Y0198564D01*
X0160182Y0198679D01*
X0160156Y0198794D01*
X0160134Y0198911D01*
X0160117Y0199028D01*
X0160103Y0199145D01*
X0160093Y0199263D01*
X0160087Y0199382D01*
X0160085Y0199500D01*
X0186085Y0126500D02*
X0186087Y0126618D01*
X0186093Y0126737D01*
X0186103Y0126855D01*
X0186117Y0126972D01*
X0186134Y0127089D01*
X0186156Y0127206D01*
X0186182Y0127321D01*
X0186211Y0127436D01*
X0186244Y0127550D01*
X0186281Y0127662D01*
X0186322Y0127773D01*
X0186366Y0127883D01*
X0186414Y0127991D01*
X0186466Y0128098D01*
X0186521Y0128203D01*
X0186580Y0128306D01*
X0186642Y0128406D01*
X0186707Y0128505D01*
X0186776Y0128602D01*
X0186847Y0128696D01*
X0186922Y0128787D01*
X0187000Y0128877D01*
X0187081Y0128963D01*
X0187165Y0129047D01*
X0187251Y0129128D01*
X0187341Y0129206D01*
X0187432Y0129281D01*
X0187526Y0129352D01*
X0187623Y0129421D01*
X0187722Y0129486D01*
X0187822Y0129548D01*
X0187925Y0129607D01*
X0188030Y0129662D01*
X0188137Y0129714D01*
X0188245Y0129762D01*
X0188355Y0129806D01*
X0188466Y0129847D01*
X0188578Y0129884D01*
X0188692Y0129917D01*
X0188807Y0129946D01*
X0188922Y0129972D01*
X0189039Y0129994D01*
X0189156Y0130011D01*
X0189273Y0130025D01*
X0189391Y0130035D01*
X0189510Y0130041D01*
X0189628Y0130043D01*
X0189746Y0130041D01*
X0189865Y0130035D01*
X0189983Y0130025D01*
X0190100Y0130011D01*
X0190217Y0129994D01*
X0190334Y0129972D01*
X0190449Y0129946D01*
X0190564Y0129917D01*
X0190678Y0129884D01*
X0190790Y0129847D01*
X0190901Y0129806D01*
X0191011Y0129762D01*
X0191119Y0129714D01*
X0191226Y0129662D01*
X0191331Y0129607D01*
X0191434Y0129548D01*
X0191534Y0129486D01*
X0191633Y0129421D01*
X0191730Y0129352D01*
X0191824Y0129281D01*
X0191915Y0129206D01*
X0192005Y0129128D01*
X0192091Y0129047D01*
X0192175Y0128963D01*
X0192256Y0128877D01*
X0192334Y0128787D01*
X0192409Y0128696D01*
X0192480Y0128602D01*
X0192549Y0128505D01*
X0192614Y0128406D01*
X0192676Y0128306D01*
X0192735Y0128203D01*
X0192790Y0128098D01*
X0192842Y0127991D01*
X0192890Y0127883D01*
X0192934Y0127773D01*
X0192975Y0127662D01*
X0193012Y0127550D01*
X0193045Y0127436D01*
X0193074Y0127321D01*
X0193100Y0127206D01*
X0193122Y0127089D01*
X0193139Y0126972D01*
X0193153Y0126855D01*
X0193163Y0126737D01*
X0193169Y0126618D01*
X0193171Y0126500D01*
X0193169Y0126382D01*
X0193163Y0126263D01*
X0193153Y0126145D01*
X0193139Y0126028D01*
X0193122Y0125911D01*
X0193100Y0125794D01*
X0193074Y0125679D01*
X0193045Y0125564D01*
X0193012Y0125450D01*
X0192975Y0125338D01*
X0192934Y0125227D01*
X0192890Y0125117D01*
X0192842Y0125009D01*
X0192790Y0124902D01*
X0192735Y0124797D01*
X0192676Y0124694D01*
X0192614Y0124594D01*
X0192549Y0124495D01*
X0192480Y0124398D01*
X0192409Y0124304D01*
X0192334Y0124213D01*
X0192256Y0124123D01*
X0192175Y0124037D01*
X0192091Y0123953D01*
X0192005Y0123872D01*
X0191915Y0123794D01*
X0191824Y0123719D01*
X0191730Y0123648D01*
X0191633Y0123579D01*
X0191534Y0123514D01*
X0191434Y0123452D01*
X0191331Y0123393D01*
X0191226Y0123338D01*
X0191119Y0123286D01*
X0191011Y0123238D01*
X0190901Y0123194D01*
X0190790Y0123153D01*
X0190678Y0123116D01*
X0190564Y0123083D01*
X0190449Y0123054D01*
X0190334Y0123028D01*
X0190217Y0123006D01*
X0190100Y0122989D01*
X0189983Y0122975D01*
X0189865Y0122965D01*
X0189746Y0122959D01*
X0189628Y0122957D01*
X0189510Y0122959D01*
X0189391Y0122965D01*
X0189273Y0122975D01*
X0189156Y0122989D01*
X0189039Y0123006D01*
X0188922Y0123028D01*
X0188807Y0123054D01*
X0188692Y0123083D01*
X0188578Y0123116D01*
X0188466Y0123153D01*
X0188355Y0123194D01*
X0188245Y0123238D01*
X0188137Y0123286D01*
X0188030Y0123338D01*
X0187925Y0123393D01*
X0187822Y0123452D01*
X0187722Y0123514D01*
X0187623Y0123579D01*
X0187526Y0123648D01*
X0187432Y0123719D01*
X0187341Y0123794D01*
X0187251Y0123872D01*
X0187165Y0123953D01*
X0187081Y0124037D01*
X0187000Y0124123D01*
X0186922Y0124213D01*
X0186847Y0124304D01*
X0186776Y0124398D01*
X0186707Y0124495D01*
X0186642Y0124594D01*
X0186580Y0124694D01*
X0186521Y0124797D01*
X0186466Y0124902D01*
X0186414Y0125009D01*
X0186366Y0125117D01*
X0186322Y0125227D01*
X0186281Y0125338D01*
X0186244Y0125450D01*
X0186211Y0125564D01*
X0186182Y0125679D01*
X0186156Y0125794D01*
X0186134Y0125911D01*
X0186117Y0126028D01*
X0186103Y0126145D01*
X0186093Y0126263D01*
X0186087Y0126382D01*
X0186085Y0126500D01*
X0186085Y0116500D02*
X0186087Y0116618D01*
X0186093Y0116737D01*
X0186103Y0116855D01*
X0186117Y0116972D01*
X0186134Y0117089D01*
X0186156Y0117206D01*
X0186182Y0117321D01*
X0186211Y0117436D01*
X0186244Y0117550D01*
X0186281Y0117662D01*
X0186322Y0117773D01*
X0186366Y0117883D01*
X0186414Y0117991D01*
X0186466Y0118098D01*
X0186521Y0118203D01*
X0186580Y0118306D01*
X0186642Y0118406D01*
X0186707Y0118505D01*
X0186776Y0118602D01*
X0186847Y0118696D01*
X0186922Y0118787D01*
X0187000Y0118877D01*
X0187081Y0118963D01*
X0187165Y0119047D01*
X0187251Y0119128D01*
X0187341Y0119206D01*
X0187432Y0119281D01*
X0187526Y0119352D01*
X0187623Y0119421D01*
X0187722Y0119486D01*
X0187822Y0119548D01*
X0187925Y0119607D01*
X0188030Y0119662D01*
X0188137Y0119714D01*
X0188245Y0119762D01*
X0188355Y0119806D01*
X0188466Y0119847D01*
X0188578Y0119884D01*
X0188692Y0119917D01*
X0188807Y0119946D01*
X0188922Y0119972D01*
X0189039Y0119994D01*
X0189156Y0120011D01*
X0189273Y0120025D01*
X0189391Y0120035D01*
X0189510Y0120041D01*
X0189628Y0120043D01*
X0189746Y0120041D01*
X0189865Y0120035D01*
X0189983Y0120025D01*
X0190100Y0120011D01*
X0190217Y0119994D01*
X0190334Y0119972D01*
X0190449Y0119946D01*
X0190564Y0119917D01*
X0190678Y0119884D01*
X0190790Y0119847D01*
X0190901Y0119806D01*
X0191011Y0119762D01*
X0191119Y0119714D01*
X0191226Y0119662D01*
X0191331Y0119607D01*
X0191434Y0119548D01*
X0191534Y0119486D01*
X0191633Y0119421D01*
X0191730Y0119352D01*
X0191824Y0119281D01*
X0191915Y0119206D01*
X0192005Y0119128D01*
X0192091Y0119047D01*
X0192175Y0118963D01*
X0192256Y0118877D01*
X0192334Y0118787D01*
X0192409Y0118696D01*
X0192480Y0118602D01*
X0192549Y0118505D01*
X0192614Y0118406D01*
X0192676Y0118306D01*
X0192735Y0118203D01*
X0192790Y0118098D01*
X0192842Y0117991D01*
X0192890Y0117883D01*
X0192934Y0117773D01*
X0192975Y0117662D01*
X0193012Y0117550D01*
X0193045Y0117436D01*
X0193074Y0117321D01*
X0193100Y0117206D01*
X0193122Y0117089D01*
X0193139Y0116972D01*
X0193153Y0116855D01*
X0193163Y0116737D01*
X0193169Y0116618D01*
X0193171Y0116500D01*
X0193169Y0116382D01*
X0193163Y0116263D01*
X0193153Y0116145D01*
X0193139Y0116028D01*
X0193122Y0115911D01*
X0193100Y0115794D01*
X0193074Y0115679D01*
X0193045Y0115564D01*
X0193012Y0115450D01*
X0192975Y0115338D01*
X0192934Y0115227D01*
X0192890Y0115117D01*
X0192842Y0115009D01*
X0192790Y0114902D01*
X0192735Y0114797D01*
X0192676Y0114694D01*
X0192614Y0114594D01*
X0192549Y0114495D01*
X0192480Y0114398D01*
X0192409Y0114304D01*
X0192334Y0114213D01*
X0192256Y0114123D01*
X0192175Y0114037D01*
X0192091Y0113953D01*
X0192005Y0113872D01*
X0191915Y0113794D01*
X0191824Y0113719D01*
X0191730Y0113648D01*
X0191633Y0113579D01*
X0191534Y0113514D01*
X0191434Y0113452D01*
X0191331Y0113393D01*
X0191226Y0113338D01*
X0191119Y0113286D01*
X0191011Y0113238D01*
X0190901Y0113194D01*
X0190790Y0113153D01*
X0190678Y0113116D01*
X0190564Y0113083D01*
X0190449Y0113054D01*
X0190334Y0113028D01*
X0190217Y0113006D01*
X0190100Y0112989D01*
X0189983Y0112975D01*
X0189865Y0112965D01*
X0189746Y0112959D01*
X0189628Y0112957D01*
X0189510Y0112959D01*
X0189391Y0112965D01*
X0189273Y0112975D01*
X0189156Y0112989D01*
X0189039Y0113006D01*
X0188922Y0113028D01*
X0188807Y0113054D01*
X0188692Y0113083D01*
X0188578Y0113116D01*
X0188466Y0113153D01*
X0188355Y0113194D01*
X0188245Y0113238D01*
X0188137Y0113286D01*
X0188030Y0113338D01*
X0187925Y0113393D01*
X0187822Y0113452D01*
X0187722Y0113514D01*
X0187623Y0113579D01*
X0187526Y0113648D01*
X0187432Y0113719D01*
X0187341Y0113794D01*
X0187251Y0113872D01*
X0187165Y0113953D01*
X0187081Y0114037D01*
X0187000Y0114123D01*
X0186922Y0114213D01*
X0186847Y0114304D01*
X0186776Y0114398D01*
X0186707Y0114495D01*
X0186642Y0114594D01*
X0186580Y0114694D01*
X0186521Y0114797D01*
X0186466Y0114902D01*
X0186414Y0115009D01*
X0186366Y0115117D01*
X0186322Y0115227D01*
X0186281Y0115338D01*
X0186244Y0115450D01*
X0186211Y0115564D01*
X0186182Y0115679D01*
X0186156Y0115794D01*
X0186134Y0115911D01*
X0186117Y0116028D01*
X0186103Y0116145D01*
X0186093Y0116263D01*
X0186087Y0116382D01*
X0186085Y0116500D01*
X0301085Y0040500D02*
X0301087Y0040618D01*
X0301093Y0040737D01*
X0301103Y0040855D01*
X0301117Y0040972D01*
X0301134Y0041089D01*
X0301156Y0041206D01*
X0301182Y0041321D01*
X0301211Y0041436D01*
X0301244Y0041550D01*
X0301281Y0041662D01*
X0301322Y0041773D01*
X0301366Y0041883D01*
X0301414Y0041991D01*
X0301466Y0042098D01*
X0301521Y0042203D01*
X0301580Y0042306D01*
X0301642Y0042406D01*
X0301707Y0042505D01*
X0301776Y0042602D01*
X0301847Y0042696D01*
X0301922Y0042787D01*
X0302000Y0042877D01*
X0302081Y0042963D01*
X0302165Y0043047D01*
X0302251Y0043128D01*
X0302341Y0043206D01*
X0302432Y0043281D01*
X0302526Y0043352D01*
X0302623Y0043421D01*
X0302722Y0043486D01*
X0302822Y0043548D01*
X0302925Y0043607D01*
X0303030Y0043662D01*
X0303137Y0043714D01*
X0303245Y0043762D01*
X0303355Y0043806D01*
X0303466Y0043847D01*
X0303578Y0043884D01*
X0303692Y0043917D01*
X0303807Y0043946D01*
X0303922Y0043972D01*
X0304039Y0043994D01*
X0304156Y0044011D01*
X0304273Y0044025D01*
X0304391Y0044035D01*
X0304510Y0044041D01*
X0304628Y0044043D01*
X0304746Y0044041D01*
X0304865Y0044035D01*
X0304983Y0044025D01*
X0305100Y0044011D01*
X0305217Y0043994D01*
X0305334Y0043972D01*
X0305449Y0043946D01*
X0305564Y0043917D01*
X0305678Y0043884D01*
X0305790Y0043847D01*
X0305901Y0043806D01*
X0306011Y0043762D01*
X0306119Y0043714D01*
X0306226Y0043662D01*
X0306331Y0043607D01*
X0306434Y0043548D01*
X0306534Y0043486D01*
X0306633Y0043421D01*
X0306730Y0043352D01*
X0306824Y0043281D01*
X0306915Y0043206D01*
X0307005Y0043128D01*
X0307091Y0043047D01*
X0307175Y0042963D01*
X0307256Y0042877D01*
X0307334Y0042787D01*
X0307409Y0042696D01*
X0307480Y0042602D01*
X0307549Y0042505D01*
X0307614Y0042406D01*
X0307676Y0042306D01*
X0307735Y0042203D01*
X0307790Y0042098D01*
X0307842Y0041991D01*
X0307890Y0041883D01*
X0307934Y0041773D01*
X0307975Y0041662D01*
X0308012Y0041550D01*
X0308045Y0041436D01*
X0308074Y0041321D01*
X0308100Y0041206D01*
X0308122Y0041089D01*
X0308139Y0040972D01*
X0308153Y0040855D01*
X0308163Y0040737D01*
X0308169Y0040618D01*
X0308171Y0040500D01*
X0308169Y0040382D01*
X0308163Y0040263D01*
X0308153Y0040145D01*
X0308139Y0040028D01*
X0308122Y0039911D01*
X0308100Y0039794D01*
X0308074Y0039679D01*
X0308045Y0039564D01*
X0308012Y0039450D01*
X0307975Y0039338D01*
X0307934Y0039227D01*
X0307890Y0039117D01*
X0307842Y0039009D01*
X0307790Y0038902D01*
X0307735Y0038797D01*
X0307676Y0038694D01*
X0307614Y0038594D01*
X0307549Y0038495D01*
X0307480Y0038398D01*
X0307409Y0038304D01*
X0307334Y0038213D01*
X0307256Y0038123D01*
X0307175Y0038037D01*
X0307091Y0037953D01*
X0307005Y0037872D01*
X0306915Y0037794D01*
X0306824Y0037719D01*
X0306730Y0037648D01*
X0306633Y0037579D01*
X0306534Y0037514D01*
X0306434Y0037452D01*
X0306331Y0037393D01*
X0306226Y0037338D01*
X0306119Y0037286D01*
X0306011Y0037238D01*
X0305901Y0037194D01*
X0305790Y0037153D01*
X0305678Y0037116D01*
X0305564Y0037083D01*
X0305449Y0037054D01*
X0305334Y0037028D01*
X0305217Y0037006D01*
X0305100Y0036989D01*
X0304983Y0036975D01*
X0304865Y0036965D01*
X0304746Y0036959D01*
X0304628Y0036957D01*
X0304510Y0036959D01*
X0304391Y0036965D01*
X0304273Y0036975D01*
X0304156Y0036989D01*
X0304039Y0037006D01*
X0303922Y0037028D01*
X0303807Y0037054D01*
X0303692Y0037083D01*
X0303578Y0037116D01*
X0303466Y0037153D01*
X0303355Y0037194D01*
X0303245Y0037238D01*
X0303137Y0037286D01*
X0303030Y0037338D01*
X0302925Y0037393D01*
X0302822Y0037452D01*
X0302722Y0037514D01*
X0302623Y0037579D01*
X0302526Y0037648D01*
X0302432Y0037719D01*
X0302341Y0037794D01*
X0302251Y0037872D01*
X0302165Y0037953D01*
X0302081Y0038037D01*
X0302000Y0038123D01*
X0301922Y0038213D01*
X0301847Y0038304D01*
X0301776Y0038398D01*
X0301707Y0038495D01*
X0301642Y0038594D01*
X0301580Y0038694D01*
X0301521Y0038797D01*
X0301466Y0038902D01*
X0301414Y0039009D01*
X0301366Y0039117D01*
X0301322Y0039227D01*
X0301281Y0039338D01*
X0301244Y0039450D01*
X0301211Y0039564D01*
X0301182Y0039679D01*
X0301156Y0039794D01*
X0301134Y0039911D01*
X0301117Y0040028D01*
X0301103Y0040145D01*
X0301093Y0040263D01*
X0301087Y0040382D01*
X0301085Y0040500D01*
X0311085Y0040500D02*
X0311087Y0040618D01*
X0311093Y0040737D01*
X0311103Y0040855D01*
X0311117Y0040972D01*
X0311134Y0041089D01*
X0311156Y0041206D01*
X0311182Y0041321D01*
X0311211Y0041436D01*
X0311244Y0041550D01*
X0311281Y0041662D01*
X0311322Y0041773D01*
X0311366Y0041883D01*
X0311414Y0041991D01*
X0311466Y0042098D01*
X0311521Y0042203D01*
X0311580Y0042306D01*
X0311642Y0042406D01*
X0311707Y0042505D01*
X0311776Y0042602D01*
X0311847Y0042696D01*
X0311922Y0042787D01*
X0312000Y0042877D01*
X0312081Y0042963D01*
X0312165Y0043047D01*
X0312251Y0043128D01*
X0312341Y0043206D01*
X0312432Y0043281D01*
X0312526Y0043352D01*
X0312623Y0043421D01*
X0312722Y0043486D01*
X0312822Y0043548D01*
X0312925Y0043607D01*
X0313030Y0043662D01*
X0313137Y0043714D01*
X0313245Y0043762D01*
X0313355Y0043806D01*
X0313466Y0043847D01*
X0313578Y0043884D01*
X0313692Y0043917D01*
X0313807Y0043946D01*
X0313922Y0043972D01*
X0314039Y0043994D01*
X0314156Y0044011D01*
X0314273Y0044025D01*
X0314391Y0044035D01*
X0314510Y0044041D01*
X0314628Y0044043D01*
X0314746Y0044041D01*
X0314865Y0044035D01*
X0314983Y0044025D01*
X0315100Y0044011D01*
X0315217Y0043994D01*
X0315334Y0043972D01*
X0315449Y0043946D01*
X0315564Y0043917D01*
X0315678Y0043884D01*
X0315790Y0043847D01*
X0315901Y0043806D01*
X0316011Y0043762D01*
X0316119Y0043714D01*
X0316226Y0043662D01*
X0316331Y0043607D01*
X0316434Y0043548D01*
X0316534Y0043486D01*
X0316633Y0043421D01*
X0316730Y0043352D01*
X0316824Y0043281D01*
X0316915Y0043206D01*
X0317005Y0043128D01*
X0317091Y0043047D01*
X0317175Y0042963D01*
X0317256Y0042877D01*
X0317334Y0042787D01*
X0317409Y0042696D01*
X0317480Y0042602D01*
X0317549Y0042505D01*
X0317614Y0042406D01*
X0317676Y0042306D01*
X0317735Y0042203D01*
X0317790Y0042098D01*
X0317842Y0041991D01*
X0317890Y0041883D01*
X0317934Y0041773D01*
X0317975Y0041662D01*
X0318012Y0041550D01*
X0318045Y0041436D01*
X0318074Y0041321D01*
X0318100Y0041206D01*
X0318122Y0041089D01*
X0318139Y0040972D01*
X0318153Y0040855D01*
X0318163Y0040737D01*
X0318169Y0040618D01*
X0318171Y0040500D01*
X0318169Y0040382D01*
X0318163Y0040263D01*
X0318153Y0040145D01*
X0318139Y0040028D01*
X0318122Y0039911D01*
X0318100Y0039794D01*
X0318074Y0039679D01*
X0318045Y0039564D01*
X0318012Y0039450D01*
X0317975Y0039338D01*
X0317934Y0039227D01*
X0317890Y0039117D01*
X0317842Y0039009D01*
X0317790Y0038902D01*
X0317735Y0038797D01*
X0317676Y0038694D01*
X0317614Y0038594D01*
X0317549Y0038495D01*
X0317480Y0038398D01*
X0317409Y0038304D01*
X0317334Y0038213D01*
X0317256Y0038123D01*
X0317175Y0038037D01*
X0317091Y0037953D01*
X0317005Y0037872D01*
X0316915Y0037794D01*
X0316824Y0037719D01*
X0316730Y0037648D01*
X0316633Y0037579D01*
X0316534Y0037514D01*
X0316434Y0037452D01*
X0316331Y0037393D01*
X0316226Y0037338D01*
X0316119Y0037286D01*
X0316011Y0037238D01*
X0315901Y0037194D01*
X0315790Y0037153D01*
X0315678Y0037116D01*
X0315564Y0037083D01*
X0315449Y0037054D01*
X0315334Y0037028D01*
X0315217Y0037006D01*
X0315100Y0036989D01*
X0314983Y0036975D01*
X0314865Y0036965D01*
X0314746Y0036959D01*
X0314628Y0036957D01*
X0314510Y0036959D01*
X0314391Y0036965D01*
X0314273Y0036975D01*
X0314156Y0036989D01*
X0314039Y0037006D01*
X0313922Y0037028D01*
X0313807Y0037054D01*
X0313692Y0037083D01*
X0313578Y0037116D01*
X0313466Y0037153D01*
X0313355Y0037194D01*
X0313245Y0037238D01*
X0313137Y0037286D01*
X0313030Y0037338D01*
X0312925Y0037393D01*
X0312822Y0037452D01*
X0312722Y0037514D01*
X0312623Y0037579D01*
X0312526Y0037648D01*
X0312432Y0037719D01*
X0312341Y0037794D01*
X0312251Y0037872D01*
X0312165Y0037953D01*
X0312081Y0038037D01*
X0312000Y0038123D01*
X0311922Y0038213D01*
X0311847Y0038304D01*
X0311776Y0038398D01*
X0311707Y0038495D01*
X0311642Y0038594D01*
X0311580Y0038694D01*
X0311521Y0038797D01*
X0311466Y0038902D01*
X0311414Y0039009D01*
X0311366Y0039117D01*
X0311322Y0039227D01*
X0311281Y0039338D01*
X0311244Y0039450D01*
X0311211Y0039564D01*
X0311182Y0039679D01*
X0311156Y0039794D01*
X0311134Y0039911D01*
X0311117Y0040028D01*
X0311103Y0040145D01*
X0311093Y0040263D01*
X0311087Y0040382D01*
X0311085Y0040500D01*
X0248723Y0322366D02*
X0240849Y0322366D01*
X0240849Y0328272D01*
X0256597Y0344020D01*
X0370770Y0344020D01*
X0370770Y0336146D01*
X0262502Y0336146D01*
X0248723Y0322366D01*
M02*
