G75*
%MOIN*%
%OFA0B0*%
%FSLAX25Y25*%
%IPPOS*%
%LPD*%
%AMOC8*
5,1,8,0,0,1.08239X$1,22.5*
%
%ADD10C,0.07099*%
%ADD11R,0.05131X0.04737*%
%ADD12R,0.07099X0.06312*%
%ADD13R,0.08200X0.08200*%
%ADD14C,0.08200*%
%ADD15C,0.01640*%
%ADD16R,0.04737X0.05131*%
%ADD17R,0.03800X0.06800*%
%ADD18R,0.05800X0.03300*%
%ADD19R,0.03300X0.05800*%
%ADD20R,0.03937X0.01575*%
%ADD21R,0.01575X0.03937*%
%ADD22R,0.03083X0.05524*%
%ADD23R,0.08674X0.08674*%
%ADD24R,0.01784X0.03556*%
%ADD25R,0.06706X0.04343*%
%ADD26R,0.08280X0.05131*%
%ADD27C,0.17005*%
%ADD28C,0.01421*%
D10*
X0198493Y0173315D03*
X0206367Y0173315D03*
D11*
G36*
X0090034Y0092792D02*
X0087469Y0088350D01*
X0083368Y0090718D01*
X0085933Y0095160D01*
X0090034Y0092792D01*
G37*
G36*
X0093381Y0098588D02*
X0090816Y0094146D01*
X0086715Y0096514D01*
X0089280Y0100956D01*
X0093381Y0098588D01*
G37*
G36*
X0116452Y0077831D02*
X0113887Y0073389D01*
X0109786Y0075757D01*
X0112351Y0080199D01*
X0116452Y0077831D01*
G37*
G36*
X0119798Y0083628D02*
X0117233Y0079186D01*
X0113132Y0081554D01*
X0115697Y0085996D01*
X0119798Y0083628D01*
G37*
X0108700Y0146556D03*
X0102007Y0146556D03*
G36*
X0134233Y0169678D02*
X0137860Y0166051D01*
X0134511Y0162702D01*
X0130884Y0166329D01*
X0134233Y0169678D01*
G37*
G36*
X0139717Y0175194D02*
X0143344Y0171567D01*
X0139995Y0168218D01*
X0136368Y0171845D01*
X0139717Y0175194D01*
G37*
G36*
X0144450Y0170461D02*
X0148077Y0166834D01*
X0144728Y0163485D01*
X0141101Y0167112D01*
X0144450Y0170461D01*
G37*
G36*
X0138966Y0164945D02*
X0142593Y0161318D01*
X0139244Y0157969D01*
X0135617Y0161596D01*
X0138966Y0164945D01*
G37*
X0108189Y0182548D03*
X0101496Y0182548D03*
G36*
X0118315Y0203056D02*
X0114688Y0199429D01*
X0111339Y0202778D01*
X0114966Y0206405D01*
X0118315Y0203056D01*
G37*
G36*
X0123048Y0207788D02*
X0119421Y0204161D01*
X0116072Y0207510D01*
X0119699Y0211137D01*
X0123048Y0207788D01*
G37*
G36*
X0143000Y0205772D02*
X0139373Y0202145D01*
X0136024Y0205494D01*
X0139651Y0209121D01*
X0143000Y0205772D01*
G37*
G36*
X0147733Y0210505D02*
X0144106Y0206878D01*
X0140757Y0210227D01*
X0144384Y0213854D01*
X0147733Y0210505D01*
G37*
G36*
X0179557Y0207587D02*
X0175930Y0211214D01*
X0179279Y0214563D01*
X0182906Y0210936D01*
X0179557Y0207587D01*
G37*
G36*
X0184289Y0202854D02*
X0180662Y0206481D01*
X0184011Y0209830D01*
X0187638Y0206203D01*
X0184289Y0202854D01*
G37*
G36*
X0187937Y0172465D02*
X0184310Y0168838D01*
X0180961Y0172187D01*
X0184588Y0175814D01*
X0187937Y0172465D01*
G37*
G36*
X0183205Y0167733D02*
X0179578Y0164106D01*
X0176229Y0167455D01*
X0179856Y0171082D01*
X0183205Y0167733D01*
G37*
G36*
X0206389Y0159955D02*
X0208954Y0155513D01*
X0204853Y0153145D01*
X0202288Y0157587D01*
X0206389Y0159955D01*
G37*
G36*
X0209735Y0154158D02*
X0212300Y0149716D01*
X0208199Y0147348D01*
X0205634Y0151790D01*
X0209735Y0154158D01*
G37*
X0275894Y0175913D03*
X0282587Y0175913D03*
X0282548Y0202291D03*
X0275855Y0202291D03*
G36*
X0115106Y0292681D02*
X0112541Y0297123D01*
X0116642Y0299491D01*
X0119207Y0295049D01*
X0115106Y0292681D01*
G37*
G36*
X0111760Y0298477D02*
X0109195Y0302919D01*
X0113296Y0305287D01*
X0115861Y0300845D01*
X0111760Y0298477D01*
G37*
G36*
X0089949Y0278114D02*
X0087384Y0282556D01*
X0091485Y0284924D01*
X0094050Y0280482D01*
X0089949Y0278114D01*
G37*
G36*
X0086602Y0283910D02*
X0084037Y0288352D01*
X0088138Y0290720D01*
X0090703Y0286278D01*
X0086602Y0283910D01*
G37*
D12*
G36*
X0141754Y0214337D02*
X0136736Y0219355D01*
X0141200Y0223819D01*
X0146218Y0218801D01*
X0141754Y0214337D01*
G37*
G36*
X0133959Y0206542D02*
X0128941Y0211560D01*
X0133405Y0216024D01*
X0138423Y0211006D01*
X0133959Y0206542D01*
G37*
X0194548Y0200653D03*
X0194548Y0189629D03*
X0225485Y0189330D03*
X0225485Y0200354D03*
D13*
G36*
X0191936Y0213644D02*
X0196036Y0220744D01*
X0203136Y0216644D01*
X0199036Y0209544D01*
X0191936Y0213644D01*
G37*
G36*
X0141908Y0241316D02*
X0146008Y0234216D01*
X0138908Y0230116D01*
X0134808Y0237216D01*
X0141908Y0241316D01*
G37*
D14*
X0149568Y0239850D03*
X0157728Y0245716D03*
X0166889Y0249850D03*
X0172055Y0231011D03*
X0180216Y0225144D03*
X0189376Y0221011D03*
X0231209Y0228196D03*
X0241209Y0228196D03*
X0154500Y0134207D03*
X0146340Y0140073D03*
X0137179Y0144207D03*
X0160537Y0110086D03*
X0155537Y0101426D03*
X0092826Y0230165D03*
X0087826Y0238825D03*
D15*
X0168558Y0138352D02*
X0167738Y0137532D01*
X0168441Y0140156D01*
X0170794Y0141514D01*
X0173418Y0140811D01*
X0174776Y0138458D01*
X0174073Y0135834D01*
X0171720Y0134476D01*
X0169096Y0135179D01*
X0167738Y0137532D01*
X0169058Y0137706D01*
X0169497Y0139345D01*
X0170968Y0140194D01*
X0172607Y0139755D01*
X0173456Y0138284D01*
X0173017Y0136645D01*
X0171546Y0135796D01*
X0169907Y0136235D01*
X0169058Y0137706D01*
X0170378Y0137879D01*
X0170554Y0138535D01*
X0171141Y0138874D01*
X0171797Y0138698D01*
X0172136Y0138111D01*
X0171960Y0137455D01*
X0171373Y0137116D01*
X0170717Y0137292D01*
X0170378Y0137879D01*
X0173558Y0129692D02*
X0172738Y0128872D01*
X0173441Y0131496D01*
X0175794Y0132854D01*
X0178418Y0132151D01*
X0179776Y0129798D01*
X0179073Y0127174D01*
X0176720Y0125816D01*
X0174096Y0126519D01*
X0172738Y0128872D01*
X0174058Y0129046D01*
X0174497Y0130685D01*
X0175968Y0131534D01*
X0177607Y0131095D01*
X0178456Y0129624D01*
X0178017Y0127985D01*
X0176546Y0127136D01*
X0174907Y0127575D01*
X0174058Y0129046D01*
X0175378Y0129219D01*
X0175554Y0129875D01*
X0176141Y0130214D01*
X0176797Y0130038D01*
X0177136Y0129451D01*
X0176960Y0128795D01*
X0176373Y0128456D01*
X0175717Y0128632D01*
X0175378Y0129219D01*
X0182219Y0134692D02*
X0181399Y0133872D01*
X0182102Y0136496D01*
X0184455Y0137854D01*
X0187079Y0137151D01*
X0188437Y0134798D01*
X0187734Y0132174D01*
X0185381Y0130816D01*
X0182757Y0131519D01*
X0181399Y0133872D01*
X0182719Y0134046D01*
X0183158Y0135685D01*
X0184629Y0136534D01*
X0186268Y0136095D01*
X0187117Y0134624D01*
X0186678Y0132985D01*
X0185207Y0132136D01*
X0183568Y0132575D01*
X0182719Y0134046D01*
X0184039Y0134219D01*
X0184215Y0134875D01*
X0184802Y0135214D01*
X0185458Y0135038D01*
X0185797Y0134451D01*
X0185621Y0133795D01*
X0185034Y0133456D01*
X0184378Y0133632D01*
X0184039Y0134219D01*
X0177219Y0143352D02*
X0176399Y0142532D01*
X0177102Y0145156D01*
X0179455Y0146514D01*
X0182079Y0145811D01*
X0183437Y0143458D01*
X0182734Y0140834D01*
X0180381Y0139476D01*
X0177757Y0140179D01*
X0176399Y0142532D01*
X0177719Y0142706D01*
X0178158Y0144345D01*
X0179629Y0145194D01*
X0181268Y0144755D01*
X0182117Y0143284D01*
X0181678Y0141645D01*
X0180207Y0140796D01*
X0178568Y0141235D01*
X0177719Y0142706D01*
X0179039Y0142879D01*
X0179215Y0143535D01*
X0179802Y0143874D01*
X0180458Y0143698D01*
X0180797Y0143111D01*
X0180621Y0142455D01*
X0180034Y0142116D01*
X0179378Y0142292D01*
X0179039Y0142879D01*
X0185879Y0148352D02*
X0185059Y0147532D01*
X0185762Y0150156D01*
X0188115Y0151514D01*
X0190739Y0150811D01*
X0192097Y0148458D01*
X0191394Y0145834D01*
X0189041Y0144476D01*
X0186417Y0145179D01*
X0185059Y0147532D01*
X0186379Y0147706D01*
X0186818Y0149345D01*
X0188289Y0150194D01*
X0189928Y0149755D01*
X0190777Y0148284D01*
X0190338Y0146645D01*
X0188867Y0145796D01*
X0187228Y0146235D01*
X0186379Y0147706D01*
X0187699Y0147879D01*
X0187875Y0148535D01*
X0188462Y0148874D01*
X0189118Y0148698D01*
X0189457Y0148111D01*
X0189281Y0147455D01*
X0188694Y0147116D01*
X0188038Y0147292D01*
X0187699Y0147879D01*
X0190879Y0139692D02*
X0190059Y0138872D01*
X0190762Y0141496D01*
X0193115Y0142854D01*
X0195739Y0142151D01*
X0197097Y0139798D01*
X0196394Y0137174D01*
X0194041Y0135816D01*
X0191417Y0136519D01*
X0190059Y0138872D01*
X0191379Y0139046D01*
X0191818Y0140685D01*
X0193289Y0141534D01*
X0194928Y0141095D01*
X0195777Y0139624D01*
X0195338Y0137985D01*
X0193867Y0137136D01*
X0192228Y0137575D01*
X0191379Y0139046D01*
X0192699Y0139219D01*
X0192875Y0139875D01*
X0193462Y0140214D01*
X0194118Y0140038D01*
X0194457Y0139451D01*
X0194281Y0138795D01*
X0193694Y0138456D01*
X0193038Y0138632D01*
X0192699Y0139219D01*
X0199539Y0144692D02*
X0198719Y0143872D01*
X0199422Y0146496D01*
X0201775Y0147854D01*
X0204399Y0147151D01*
X0205757Y0144798D01*
X0205054Y0142174D01*
X0202701Y0140816D01*
X0200077Y0141519D01*
X0198719Y0143872D01*
X0200039Y0144046D01*
X0200478Y0145685D01*
X0201949Y0146534D01*
X0203588Y0146095D01*
X0204437Y0144624D01*
X0203998Y0142985D01*
X0202527Y0142136D01*
X0200888Y0142575D01*
X0200039Y0144046D01*
X0201359Y0144219D01*
X0201535Y0144875D01*
X0202122Y0145214D01*
X0202778Y0145038D01*
X0203117Y0144451D01*
X0202941Y0143795D01*
X0202354Y0143456D01*
X0201698Y0143632D01*
X0201359Y0144219D01*
X0194539Y0153352D02*
X0193719Y0152532D01*
X0194422Y0155156D01*
X0196775Y0156514D01*
X0199399Y0155811D01*
X0200757Y0153458D01*
X0200054Y0150834D01*
X0197701Y0149476D01*
X0195077Y0150179D01*
X0193719Y0152532D01*
X0195039Y0152706D01*
X0195478Y0154345D01*
X0196949Y0155194D01*
X0198588Y0154755D01*
X0199437Y0153284D01*
X0198998Y0151645D01*
X0197527Y0150796D01*
X0195888Y0151235D01*
X0195039Y0152706D01*
X0196359Y0152879D01*
X0196535Y0153535D01*
X0197122Y0153874D01*
X0197778Y0153698D01*
X0198117Y0153111D01*
X0197941Y0152455D01*
X0197354Y0152116D01*
X0196698Y0152292D01*
X0196359Y0152879D01*
X0209379Y0219559D02*
X0210199Y0218739D01*
X0207575Y0218036D01*
X0205222Y0219394D01*
X0204519Y0222018D01*
X0205877Y0224371D01*
X0208501Y0225074D01*
X0210854Y0223716D01*
X0211557Y0221092D01*
X0210199Y0218739D01*
X0209388Y0219795D01*
X0207749Y0219356D01*
X0206278Y0220205D01*
X0205839Y0221844D01*
X0206688Y0223315D01*
X0208327Y0223754D01*
X0209798Y0222905D01*
X0210237Y0221266D01*
X0209388Y0219795D01*
X0208578Y0220852D01*
X0207922Y0220676D01*
X0207335Y0221015D01*
X0207159Y0221671D01*
X0207498Y0222258D01*
X0208154Y0222434D01*
X0208741Y0222095D01*
X0208917Y0221439D01*
X0208578Y0220852D01*
X0214379Y0228219D02*
X0215199Y0227399D01*
X0212575Y0226696D01*
X0210222Y0228054D01*
X0209519Y0230678D01*
X0210877Y0233031D01*
X0213501Y0233734D01*
X0215854Y0232376D01*
X0216557Y0229752D01*
X0215199Y0227399D01*
X0214388Y0228455D01*
X0212749Y0228016D01*
X0211278Y0228865D01*
X0210839Y0230504D01*
X0211688Y0231975D01*
X0213327Y0232414D01*
X0214798Y0231565D01*
X0215237Y0229926D01*
X0214388Y0228455D01*
X0213578Y0229512D01*
X0212922Y0229336D01*
X0212335Y0229675D01*
X0212159Y0230331D01*
X0212498Y0230918D01*
X0213154Y0231094D01*
X0213741Y0230755D01*
X0213917Y0230099D01*
X0213578Y0229512D01*
X0205719Y0233219D02*
X0206539Y0232399D01*
X0203915Y0231696D01*
X0201562Y0233054D01*
X0200859Y0235678D01*
X0202217Y0238031D01*
X0204841Y0238734D01*
X0207194Y0237376D01*
X0207897Y0234752D01*
X0206539Y0232399D01*
X0205728Y0233455D01*
X0204089Y0233016D01*
X0202618Y0233865D01*
X0202179Y0235504D01*
X0203028Y0236975D01*
X0204667Y0237414D01*
X0206138Y0236565D01*
X0206577Y0234926D01*
X0205728Y0233455D01*
X0204918Y0234512D01*
X0204262Y0234336D01*
X0203675Y0234675D01*
X0203499Y0235331D01*
X0203838Y0235918D01*
X0204494Y0236094D01*
X0205081Y0235755D01*
X0205257Y0235099D01*
X0204918Y0234512D01*
X0200719Y0224559D02*
X0201539Y0223739D01*
X0198915Y0223036D01*
X0196562Y0224394D01*
X0195859Y0227018D01*
X0197217Y0229371D01*
X0199841Y0230074D01*
X0202194Y0228716D01*
X0202897Y0226092D01*
X0201539Y0223739D01*
X0200728Y0224795D01*
X0199089Y0224356D01*
X0197618Y0225205D01*
X0197179Y0226844D01*
X0198028Y0228315D01*
X0199667Y0228754D01*
X0201138Y0227905D01*
X0201577Y0226266D01*
X0200728Y0224795D01*
X0199918Y0225852D01*
X0199262Y0225676D01*
X0198675Y0226015D01*
X0198499Y0226671D01*
X0198838Y0227258D01*
X0199494Y0227434D01*
X0200081Y0227095D01*
X0200257Y0226439D01*
X0199918Y0225852D01*
X0192059Y0229559D02*
X0192879Y0228739D01*
X0190255Y0228036D01*
X0187902Y0229394D01*
X0187199Y0232018D01*
X0188557Y0234371D01*
X0191181Y0235074D01*
X0193534Y0233716D01*
X0194237Y0231092D01*
X0192879Y0228739D01*
X0192068Y0229795D01*
X0190429Y0229356D01*
X0188958Y0230205D01*
X0188519Y0231844D01*
X0189368Y0233315D01*
X0191007Y0233754D01*
X0192478Y0232905D01*
X0192917Y0231266D01*
X0192068Y0229795D01*
X0191258Y0230852D01*
X0190602Y0230676D01*
X0190015Y0231015D01*
X0189839Y0231671D01*
X0190178Y0232258D01*
X0190834Y0232434D01*
X0191421Y0232095D01*
X0191597Y0231439D01*
X0191258Y0230852D01*
X0197059Y0238219D02*
X0197879Y0237399D01*
X0195255Y0236696D01*
X0192902Y0238054D01*
X0192199Y0240678D01*
X0193557Y0243031D01*
X0196181Y0243734D01*
X0198534Y0242376D01*
X0199237Y0239752D01*
X0197879Y0237399D01*
X0197068Y0238455D01*
X0195429Y0238016D01*
X0193958Y0238865D01*
X0193519Y0240504D01*
X0194368Y0241975D01*
X0196007Y0242414D01*
X0197478Y0241565D01*
X0197917Y0239926D01*
X0197068Y0238455D01*
X0196258Y0239512D01*
X0195602Y0239336D01*
X0195015Y0239675D01*
X0194839Y0240331D01*
X0195178Y0240918D01*
X0195834Y0241094D01*
X0196421Y0240755D01*
X0196597Y0240099D01*
X0196258Y0239512D01*
X0188398Y0243219D02*
X0189218Y0242399D01*
X0186594Y0241696D01*
X0184241Y0243054D01*
X0183538Y0245678D01*
X0184896Y0248031D01*
X0187520Y0248734D01*
X0189873Y0247376D01*
X0190576Y0244752D01*
X0189218Y0242399D01*
X0188407Y0243455D01*
X0186768Y0243016D01*
X0185297Y0243865D01*
X0184858Y0245504D01*
X0185707Y0246975D01*
X0187346Y0247414D01*
X0188817Y0246565D01*
X0189256Y0244926D01*
X0188407Y0243455D01*
X0187597Y0244512D01*
X0186941Y0244336D01*
X0186354Y0244675D01*
X0186178Y0245331D01*
X0186517Y0245918D01*
X0187173Y0246094D01*
X0187760Y0245755D01*
X0187936Y0245099D01*
X0187597Y0244512D01*
X0183398Y0234559D02*
X0184218Y0233739D01*
X0181594Y0233036D01*
X0179241Y0234394D01*
X0178538Y0237018D01*
X0179896Y0239371D01*
X0182520Y0240074D01*
X0184873Y0238716D01*
X0185576Y0236092D01*
X0184218Y0233739D01*
X0183407Y0234795D01*
X0181768Y0234356D01*
X0180297Y0235205D01*
X0179858Y0236844D01*
X0180707Y0238315D01*
X0182346Y0238754D01*
X0183817Y0237905D01*
X0184256Y0236266D01*
X0183407Y0234795D01*
X0182597Y0235852D01*
X0181941Y0235676D01*
X0181354Y0236015D01*
X0181178Y0236671D01*
X0181517Y0237258D01*
X0182173Y0237434D01*
X0182760Y0237095D01*
X0182936Y0236439D01*
X0182597Y0235852D01*
D16*
X0161918Y0220538D03*
X0161918Y0213845D03*
X0154044Y0213845D03*
X0154044Y0220538D03*
X0118823Y0170507D03*
X0118823Y0163815D03*
X0221631Y0154579D03*
X0221631Y0147886D03*
X0222447Y0224900D03*
X0222447Y0231593D03*
D17*
X0113322Y0176241D03*
X0098322Y0176241D03*
X0098322Y0154241D03*
X0113322Y0154241D03*
D18*
X0104258Y0191693D03*
X0104258Y0194893D03*
X0104258Y0198093D03*
D19*
X0154781Y0227448D03*
X0157981Y0227448D03*
X0161181Y0227448D03*
D20*
X0146642Y0200126D03*
X0146642Y0198157D03*
X0146642Y0196189D03*
X0146642Y0194220D03*
X0146642Y0192252D03*
X0146642Y0190283D03*
X0146642Y0188315D03*
X0146642Y0186346D03*
X0146642Y0184377D03*
X0146642Y0182409D03*
X0146642Y0180440D03*
X0146642Y0178472D03*
X0177744Y0178472D03*
X0177744Y0180440D03*
X0177744Y0182409D03*
X0177744Y0184377D03*
X0177744Y0186346D03*
X0177744Y0188315D03*
X0177744Y0190283D03*
X0177744Y0192252D03*
X0177744Y0194220D03*
X0177744Y0196189D03*
X0177744Y0198157D03*
X0177744Y0200126D03*
D21*
X0173020Y0204850D03*
X0171052Y0204850D03*
X0169083Y0204850D03*
X0167115Y0204850D03*
X0165146Y0204850D03*
X0163178Y0204850D03*
X0161209Y0204850D03*
X0159241Y0204850D03*
X0157272Y0204850D03*
X0155304Y0204850D03*
X0153335Y0204850D03*
X0151367Y0204850D03*
X0151367Y0173748D03*
X0153335Y0173748D03*
X0155304Y0173748D03*
X0157272Y0173748D03*
X0159241Y0173748D03*
X0161209Y0173748D03*
X0163178Y0173748D03*
X0165146Y0173748D03*
X0167115Y0173748D03*
X0169083Y0173748D03*
X0171052Y0173748D03*
X0173020Y0173748D03*
D22*
X0204067Y0189157D03*
X0209973Y0189157D03*
X0215878Y0189157D03*
D23*
X0209973Y0201362D03*
D24*
X0276288Y0193551D03*
X0278256Y0193551D03*
X0280225Y0193551D03*
X0282193Y0193551D03*
X0282193Y0184889D03*
X0280225Y0184889D03*
X0278256Y0184889D03*
X0276288Y0184889D03*
G36*
X0105317Y0087441D02*
X0106209Y0088986D01*
X0109287Y0087209D01*
X0108395Y0085664D01*
X0105317Y0087441D01*
G37*
G36*
X0104333Y0085737D02*
X0105225Y0087282D01*
X0108303Y0085505D01*
X0107411Y0083960D01*
X0104333Y0085737D01*
G37*
G36*
X0103349Y0084032D02*
X0104241Y0085577D01*
X0107319Y0083800D01*
X0106427Y0082255D01*
X0103349Y0084032D01*
G37*
G36*
X0102364Y0082327D02*
X0103256Y0083872D01*
X0106334Y0082095D01*
X0105442Y0080550D01*
X0102364Y0082327D01*
G37*
G36*
X0094863Y0086658D02*
X0095755Y0088203D01*
X0098833Y0086426D01*
X0097941Y0084881D01*
X0094863Y0086658D01*
G37*
G36*
X0095848Y0088363D02*
X0096740Y0089908D01*
X0099818Y0088131D01*
X0098926Y0086586D01*
X0095848Y0088363D01*
G37*
G36*
X0096832Y0090067D02*
X0097724Y0091612D01*
X0100802Y0089835D01*
X0099910Y0088290D01*
X0096832Y0090067D01*
G37*
G36*
X0097816Y0091772D02*
X0098708Y0093317D01*
X0101786Y0091540D01*
X0100894Y0089995D01*
X0097816Y0091772D01*
G37*
G36*
X0100894Y0288445D02*
X0101786Y0286900D01*
X0098708Y0285123D01*
X0097816Y0286668D01*
X0100894Y0288445D01*
G37*
G36*
X0099910Y0290150D02*
X0100802Y0288605D01*
X0097724Y0286828D01*
X0096832Y0288373D01*
X0099910Y0290150D01*
G37*
G36*
X0098926Y0291855D02*
X0099818Y0290310D01*
X0096740Y0288533D01*
X0095848Y0290078D01*
X0098926Y0291855D01*
G37*
G36*
X0097941Y0293559D02*
X0098833Y0292014D01*
X0095755Y0290237D01*
X0094863Y0291782D01*
X0097941Y0293559D01*
G37*
G36*
X0105442Y0297890D02*
X0106334Y0296345D01*
X0103256Y0294568D01*
X0102364Y0296113D01*
X0105442Y0297890D01*
G37*
G36*
X0106427Y0296185D02*
X0107319Y0294640D01*
X0104241Y0292863D01*
X0103349Y0294408D01*
X0106427Y0296185D01*
G37*
G36*
X0107411Y0294480D02*
X0108303Y0292935D01*
X0105225Y0291158D01*
X0104333Y0292703D01*
X0107411Y0294480D01*
G37*
G36*
X0108395Y0292776D02*
X0109287Y0291231D01*
X0106209Y0289454D01*
X0105317Y0290999D01*
X0108395Y0292776D01*
G37*
D25*
G36*
X0102278Y0295495D02*
X0105631Y0289688D01*
X0101872Y0287517D01*
X0098519Y0293324D01*
X0102278Y0295495D01*
G37*
X0279241Y0189220D03*
G36*
X0098519Y0085116D02*
X0101872Y0090923D01*
X0105631Y0088752D01*
X0102278Y0082945D01*
X0098519Y0085116D01*
G37*
D26*
G36*
X0131680Y0181009D02*
X0125826Y0186863D01*
X0129454Y0190491D01*
X0135308Y0184637D01*
X0131680Y0181009D01*
G37*
G36*
X0138083Y0187412D02*
X0132229Y0193266D01*
X0135857Y0196894D01*
X0141711Y0191040D01*
X0138083Y0187412D01*
G37*
G36*
X0127783Y0197713D02*
X0121929Y0203567D01*
X0125557Y0207195D01*
X0131411Y0201341D01*
X0127783Y0197713D01*
G37*
G36*
X0121380Y0191310D02*
X0115526Y0197164D01*
X0119154Y0200792D01*
X0125008Y0194938D01*
X0121380Y0191310D01*
G37*
D27*
X0106012Y0216779D03*
X0071389Y0273790D03*
X0056046Y0264932D03*
X0132761Y0309223D03*
X0148104Y0318081D03*
X0279241Y0242370D03*
X0279241Y0224653D03*
X0279241Y0153787D03*
X0279241Y0136070D03*
X0235933Y0149850D03*
X0148104Y0060359D03*
X0132761Y0069217D03*
X0071389Y0104650D03*
X0056046Y0113508D03*
X0086327Y0141976D03*
D28*
X0117149Y0174751D02*
X0117149Y0178067D01*
X0120465Y0178067D01*
X0120465Y0174751D01*
X0117149Y0174751D01*
X0117149Y0176171D02*
X0120465Y0176171D01*
X0120465Y0177591D02*
X0117149Y0177591D01*
X0124055Y0178067D02*
X0124055Y0174751D01*
X0124055Y0178067D02*
X0127371Y0178067D01*
X0127371Y0174751D01*
X0124055Y0174751D01*
X0124055Y0176171D02*
X0127371Y0176171D01*
X0127371Y0177591D02*
X0124055Y0177591D01*
X0097675Y0180907D02*
X0094359Y0180907D01*
X0094359Y0184223D01*
X0097675Y0184223D01*
X0097675Y0180907D01*
X0097675Y0182327D02*
X0094359Y0182327D01*
X0094359Y0183747D02*
X0097675Y0183747D01*
X0097675Y0187812D02*
X0094359Y0187812D01*
X0094359Y0191128D01*
X0097675Y0191128D01*
X0097675Y0187812D01*
X0097675Y0189232D02*
X0094359Y0189232D01*
X0094359Y0190652D02*
X0097675Y0190652D01*
X0193322Y0248680D02*
X0194980Y0251550D01*
X0193322Y0248680D02*
X0190452Y0250338D01*
X0192110Y0253208D01*
X0194980Y0251550D01*
X0194142Y0250100D02*
X0190864Y0250100D01*
X0191135Y0251520D02*
X0194963Y0251520D01*
X0192574Y0252940D02*
X0191955Y0252940D01*
X0200960Y0248097D02*
X0199302Y0245227D01*
X0196432Y0246885D01*
X0198090Y0249755D01*
X0200960Y0248097D01*
X0200122Y0246647D02*
X0196844Y0246647D01*
X0197115Y0248067D02*
X0200943Y0248067D01*
X0198554Y0249487D02*
X0197935Y0249487D01*
X0199424Y0133208D02*
X0201082Y0130338D01*
X0198212Y0128680D01*
X0196554Y0131550D01*
X0199424Y0133208D01*
X0200670Y0130100D02*
X0197392Y0130100D01*
X0196571Y0131520D02*
X0200399Y0131520D01*
X0199579Y0132940D02*
X0198960Y0132940D01*
X0193444Y0129755D02*
X0195102Y0126885D01*
X0192232Y0125227D01*
X0190574Y0128097D01*
X0193444Y0129755D01*
X0194690Y0126647D02*
X0191412Y0126647D01*
X0190591Y0128067D02*
X0194419Y0128067D01*
X0193599Y0129487D02*
X0192980Y0129487D01*
M02*
