G75*
%MOIN*%
%OFA0B0*%
%FSLAX25Y25*%
%IPPOS*%
%LPD*%
%AMOC8*
5,1,8,0,0,1.08239X$1,22.5*
%
%ADD10C,0.00000*%
%ADD11C,0.01600*%
%ADD12C,0.00800*%
%ADD13C,0.00100*%
%ADD14C,0.02200*%
%ADD15C,0.00500*%
%ADD16C,0.00200*%
%ADD17C,0.00600*%
%ADD18R,0.03000X0.01800*%
%ADD19C,0.03937*%
%ADD20C,0.00197*%
%ADD21R,0.01800X0.03000*%
D10*
X0048978Y0089166D02*
X0130430Y0042139D01*
X0131020Y0041808D01*
X0131618Y0041492D01*
X0132223Y0041190D01*
X0132836Y0040904D01*
X0133455Y0040632D01*
X0134081Y0040376D01*
X0134713Y0040135D01*
X0135350Y0039910D01*
X0135993Y0039700D01*
X0136641Y0039507D01*
X0137293Y0039329D01*
X0137950Y0039167D01*
X0138610Y0039022D01*
X0139274Y0038893D01*
X0139941Y0038780D01*
X0140610Y0038683D01*
X0141282Y0038603D01*
X0141955Y0038539D01*
X0142629Y0038492D01*
X0143305Y0038462D01*
X0143981Y0038448D01*
X0144657Y0038451D01*
X0145333Y0038470D01*
X0146008Y0038506D01*
X0146682Y0038558D01*
X0147355Y0038627D01*
X0148026Y0038712D01*
X0148694Y0038814D01*
X0149360Y0038933D01*
X0150023Y0039067D01*
X0150682Y0039218D01*
X0151337Y0039385D01*
X0151988Y0039567D01*
X0152635Y0039766D01*
X0153276Y0039981D01*
X0153912Y0040211D01*
X0154542Y0040457D01*
X0155165Y0040718D01*
X0155783Y0040995D01*
X0156393Y0041286D01*
X0156996Y0041592D01*
X0157591Y0041913D01*
X0158178Y0042249D01*
X0158756Y0042599D01*
X0159326Y0042963D01*
X0159887Y0043341D01*
X0160439Y0043732D01*
X0160980Y0044137D01*
X0161512Y0044555D01*
X0162033Y0044986D01*
X0162543Y0045429D01*
X0163042Y0045885D01*
X0163530Y0046354D01*
X0164007Y0046834D01*
X0164471Y0047325D01*
X0164924Y0047828D01*
X0165363Y0048341D01*
X0165790Y0048866D01*
X0166204Y0049400D01*
X0166605Y0049945D01*
X0166992Y0050499D01*
X0167366Y0051063D01*
X0167726Y0051636D01*
X0168071Y0052217D01*
X0168402Y0052806D01*
X0168719Y0053404D01*
X0169021Y0054009D01*
X0169308Y0054621D01*
X0169579Y0055241D01*
X0169836Y0055866D01*
X0170077Y0056498D01*
X0170302Y0057136D01*
X0170512Y0057778D01*
X0170706Y0058426D01*
X0170884Y0059079D01*
X0171046Y0059735D01*
X0171192Y0060395D01*
X0171321Y0061059D01*
X0171435Y0061726D01*
X0171531Y0062395D01*
X0171612Y0063066D01*
X0171676Y0063740D01*
X0171723Y0064414D01*
X0171754Y0065090D01*
X0171768Y0065766D01*
X0171766Y0066442D01*
X0171747Y0067118D01*
X0171711Y0067793D01*
X0171659Y0068467D01*
X0168744Y0100979D01*
X0168744Y0100978D02*
X0168705Y0101491D01*
X0168677Y0102005D01*
X0168663Y0102519D01*
X0168661Y0103034D01*
X0168671Y0103548D01*
X0168694Y0104062D01*
X0168730Y0104575D01*
X0168778Y0105087D01*
X0168838Y0105598D01*
X0168911Y0106107D01*
X0168996Y0106615D01*
X0169094Y0107120D01*
X0169204Y0107622D01*
X0169326Y0108122D01*
X0169460Y0108619D01*
X0169606Y0109112D01*
X0169765Y0109601D01*
X0169935Y0110087D01*
X0170117Y0110568D01*
X0170311Y0111045D01*
X0170516Y0111516D01*
X0170733Y0111983D01*
X0170960Y0112444D01*
X0171200Y0112900D01*
X0171450Y0113349D01*
X0171711Y0113792D01*
X0171983Y0114229D01*
X0172265Y0114659D01*
X0172558Y0115082D01*
X0172861Y0115498D01*
X0173174Y0115906D01*
X0173497Y0116307D01*
X0173829Y0116699D01*
X0174171Y0117083D01*
X0174522Y0117459D01*
X0174883Y0117826D01*
X0175252Y0118185D01*
X0175630Y0118534D01*
X0176016Y0118874D01*
X0176410Y0119204D01*
X0176813Y0119525D01*
X0177223Y0119835D01*
X0177640Y0120136D01*
X0178065Y0120426D01*
X0178496Y0120706D01*
X0178935Y0120976D01*
X0179379Y0121234D01*
X0179830Y0121482D01*
X0180287Y0121718D01*
X0180750Y0121944D01*
X0181217Y0122158D01*
X0181690Y0122360D01*
X0182168Y0122551D01*
X0182650Y0122730D01*
X0183137Y0122898D01*
X0183627Y0123053D01*
X0184121Y0123197D01*
X0184618Y0123329D01*
X0185119Y0123448D01*
X0185622Y0123555D01*
X0186128Y0123650D01*
X0186635Y0123732D01*
X0187145Y0123802D01*
X0187656Y0123860D01*
X0188169Y0123905D01*
X0188682Y0123937D01*
X0189196Y0123957D01*
X0189710Y0123965D01*
X0190225Y0123960D01*
X0190739Y0123942D01*
X0191253Y0123912D01*
X0191765Y0123870D01*
X0192277Y0123815D01*
X0192787Y0123747D01*
X0193295Y0123667D01*
X0193801Y0123575D01*
X0194305Y0123470D01*
X0194806Y0123353D01*
X0195304Y0123224D01*
X0195798Y0123083D01*
X0196289Y0122930D01*
X0196777Y0122765D01*
X0197260Y0122588D01*
X0197738Y0122399D01*
X0198212Y0122199D01*
X0198681Y0121987D01*
X0199145Y0121764D01*
X0199603Y0121530D01*
X0200055Y0121285D01*
X0200501Y0121028D01*
X0200500Y0121029D02*
X0200506Y0121547D01*
X0200525Y0122066D01*
X0200557Y0122583D01*
X0200602Y0123100D01*
X0200659Y0123615D01*
X0200728Y0124129D01*
X0200811Y0124640D01*
X0200905Y0125150D01*
X0201013Y0125657D01*
X0201132Y0126162D01*
X0201264Y0126663D01*
X0201409Y0127161D01*
X0201565Y0127656D01*
X0201733Y0128146D01*
X0201914Y0128632D01*
X0202106Y0129113D01*
X0202310Y0129590D01*
X0202526Y0130062D01*
X0202753Y0130528D01*
X0202991Y0130988D01*
X0203241Y0131442D01*
X0203502Y0131890D01*
X0203774Y0132332D01*
X0204056Y0132767D01*
X0204349Y0133194D01*
X0204652Y0133615D01*
X0204966Y0134028D01*
X0205290Y0134433D01*
X0205623Y0134830D01*
X0205966Y0135218D01*
X0206319Y0135599D01*
X0206680Y0135970D01*
X0207051Y0136332D01*
X0207431Y0136686D01*
X0207819Y0137030D01*
X0208215Y0137364D01*
X0208619Y0137688D01*
X0209032Y0138003D01*
X0209452Y0138307D01*
X0209879Y0138601D01*
X0210313Y0138884D01*
X0210754Y0139156D01*
X0211202Y0139418D01*
X0211656Y0139669D01*
X0212115Y0139908D01*
X0212581Y0140136D01*
X0213052Y0140353D01*
X0213528Y0140557D01*
X0214009Y0140751D01*
X0214495Y0140932D01*
X0214985Y0141101D01*
X0215479Y0141259D01*
X0215977Y0141404D01*
X0216478Y0141537D01*
X0216982Y0141657D01*
X0217489Y0141766D01*
X0217999Y0141861D01*
X0218510Y0141945D01*
X0219024Y0142015D01*
X0219539Y0142073D01*
X0220056Y0142119D01*
X0220573Y0142152D01*
X0221091Y0142172D01*
X0221610Y0142179D01*
X0222128Y0142174D01*
X0222646Y0142156D01*
X0223164Y0142125D01*
X0223680Y0142081D01*
X0224196Y0142025D01*
X0224710Y0141957D01*
X0225222Y0141875D01*
X0225732Y0141781D01*
X0226239Y0141675D01*
X0226744Y0141556D01*
X0227245Y0141425D01*
X0227744Y0141282D01*
X0228238Y0141127D01*
X0228729Y0140959D01*
X0229215Y0140780D01*
X0229697Y0140588D01*
X0230174Y0140385D01*
X0230646Y0140170D01*
X0231113Y0139944D01*
X0231573Y0139707D01*
X0232028Y0139458D01*
X0232477Y0139198D01*
X0232919Y0138927D01*
X0233354Y0138645D01*
X0233782Y0138353D01*
X0260488Y0119651D01*
X0260488Y0119650D02*
X0261046Y0119269D01*
X0261613Y0118903D01*
X0262189Y0118550D01*
X0262774Y0118211D01*
X0263367Y0117887D01*
X0263967Y0117577D01*
X0264575Y0117282D01*
X0265190Y0117002D01*
X0265811Y0116738D01*
X0266439Y0116488D01*
X0267073Y0116254D01*
X0267712Y0116036D01*
X0268357Y0115834D01*
X0269006Y0115647D01*
X0269660Y0115476D01*
X0270317Y0115322D01*
X0270979Y0115183D01*
X0271643Y0115061D01*
X0272310Y0114955D01*
X0272980Y0114865D01*
X0273651Y0114792D01*
X0274325Y0114736D01*
X0274999Y0114696D01*
X0275674Y0114672D01*
X0276350Y0114665D01*
X0277025Y0114675D01*
X0277700Y0114701D01*
X0278374Y0114743D01*
X0279047Y0114803D01*
X0279719Y0114878D01*
X0280388Y0114970D01*
X0281055Y0115079D01*
X0281719Y0115204D01*
X0282379Y0115345D01*
X0283036Y0115502D01*
X0283689Y0115675D01*
X0284338Y0115864D01*
X0284982Y0116069D01*
X0285620Y0116290D01*
X0286253Y0116526D01*
X0286880Y0116778D01*
X0287500Y0117045D01*
X0288114Y0117327D01*
X0288721Y0117624D01*
X0289320Y0117936D01*
X0289912Y0118263D01*
X0290495Y0118604D01*
X0291069Y0118959D01*
X0291635Y0119328D01*
X0292192Y0119711D01*
X0292739Y0120107D01*
X0293276Y0120517D01*
X0293803Y0120939D01*
X0294320Y0121375D01*
X0294825Y0121823D01*
X0295320Y0122283D01*
X0295803Y0122755D01*
X0296274Y0123239D01*
X0296733Y0123735D01*
X0297180Y0124241D01*
X0297615Y0124759D01*
X0298037Y0125286D01*
X0298445Y0125824D01*
X0298841Y0126372D01*
X0299222Y0126929D01*
X0299590Y0127496D01*
X0299944Y0128071D01*
X0300284Y0128655D01*
X0300610Y0129247D01*
X0300920Y0129847D01*
X0301216Y0130454D01*
X0301497Y0131069D01*
X0301763Y0131690D01*
X0302014Y0132317D01*
X0302249Y0132950D01*
X0302468Y0133589D01*
X0302672Y0134233D01*
X0302860Y0134882D01*
X0303032Y0135536D01*
X0303188Y0136193D01*
X0303328Y0136854D01*
X0303451Y0137518D01*
X0303558Y0138185D01*
X0303649Y0138855D01*
X0303724Y0139526D01*
X0303782Y0140199D01*
X0303823Y0140873D01*
X0303848Y0141548D01*
X0303856Y0142224D01*
X0303856Y0236216D01*
X0303848Y0236892D01*
X0303823Y0237567D01*
X0303782Y0238241D01*
X0303724Y0238914D01*
X0303649Y0239585D01*
X0303558Y0240255D01*
X0303451Y0240922D01*
X0303328Y0241586D01*
X0303188Y0242247D01*
X0303032Y0242904D01*
X0302860Y0243558D01*
X0302672Y0244207D01*
X0302468Y0244851D01*
X0302249Y0245490D01*
X0302014Y0246123D01*
X0301763Y0246750D01*
X0301497Y0247371D01*
X0301216Y0247986D01*
X0300920Y0248593D01*
X0300610Y0249193D01*
X0300284Y0249785D01*
X0299944Y0250369D01*
X0299590Y0250944D01*
X0299222Y0251511D01*
X0298841Y0252068D01*
X0298445Y0252616D01*
X0298037Y0253154D01*
X0297615Y0253681D01*
X0297180Y0254199D01*
X0296733Y0254705D01*
X0296274Y0255201D01*
X0295803Y0255685D01*
X0295320Y0256157D01*
X0294825Y0256617D01*
X0294320Y0257065D01*
X0293803Y0257501D01*
X0293276Y0257923D01*
X0292739Y0258333D01*
X0292192Y0258729D01*
X0291635Y0259112D01*
X0291069Y0259481D01*
X0290495Y0259836D01*
X0289912Y0260177D01*
X0289320Y0260504D01*
X0288721Y0260816D01*
X0288114Y0261113D01*
X0287500Y0261395D01*
X0286880Y0261662D01*
X0286253Y0261914D01*
X0285620Y0262150D01*
X0284982Y0262371D01*
X0284338Y0262576D01*
X0283689Y0262765D01*
X0283036Y0262938D01*
X0282379Y0263095D01*
X0281719Y0263236D01*
X0281055Y0263361D01*
X0280388Y0263470D01*
X0279719Y0263562D01*
X0279047Y0263637D01*
X0278374Y0263697D01*
X0277700Y0263739D01*
X0277025Y0263765D01*
X0276350Y0263775D01*
X0275674Y0263768D01*
X0274999Y0263744D01*
X0274325Y0263704D01*
X0273651Y0263648D01*
X0272980Y0263575D01*
X0272310Y0263485D01*
X0271643Y0263379D01*
X0270979Y0263257D01*
X0270317Y0263118D01*
X0269660Y0262964D01*
X0269006Y0262793D01*
X0268357Y0262606D01*
X0267712Y0262404D01*
X0267073Y0262186D01*
X0266439Y0261952D01*
X0265811Y0261702D01*
X0265190Y0261438D01*
X0264575Y0261158D01*
X0263967Y0260863D01*
X0263367Y0260553D01*
X0262774Y0260229D01*
X0262189Y0259890D01*
X0261613Y0259537D01*
X0261046Y0259171D01*
X0260488Y0258790D01*
X0233782Y0240087D01*
X0233354Y0239795D01*
X0232919Y0239513D01*
X0232477Y0239242D01*
X0232028Y0238982D01*
X0231573Y0238733D01*
X0231113Y0238496D01*
X0230646Y0238270D01*
X0230174Y0238055D01*
X0229697Y0237852D01*
X0229215Y0237660D01*
X0228729Y0237481D01*
X0228238Y0237313D01*
X0227744Y0237158D01*
X0227245Y0237015D01*
X0226744Y0236884D01*
X0226239Y0236765D01*
X0225732Y0236659D01*
X0225222Y0236565D01*
X0224710Y0236483D01*
X0224196Y0236415D01*
X0223680Y0236359D01*
X0223164Y0236315D01*
X0222646Y0236284D01*
X0222128Y0236266D01*
X0221610Y0236261D01*
X0221091Y0236268D01*
X0220573Y0236288D01*
X0220056Y0236321D01*
X0219539Y0236367D01*
X0219024Y0236425D01*
X0218510Y0236495D01*
X0217999Y0236579D01*
X0217489Y0236674D01*
X0216982Y0236783D01*
X0216478Y0236903D01*
X0215977Y0237036D01*
X0215479Y0237181D01*
X0214985Y0237339D01*
X0214495Y0237508D01*
X0214009Y0237689D01*
X0213528Y0237883D01*
X0213052Y0238087D01*
X0212581Y0238304D01*
X0212115Y0238532D01*
X0211656Y0238771D01*
X0211202Y0239022D01*
X0210754Y0239284D01*
X0210313Y0239556D01*
X0209879Y0239839D01*
X0209452Y0240133D01*
X0209032Y0240437D01*
X0208619Y0240752D01*
X0208215Y0241076D01*
X0207819Y0241410D01*
X0207431Y0241754D01*
X0207051Y0242108D01*
X0206680Y0242470D01*
X0206319Y0242841D01*
X0205966Y0243222D01*
X0205623Y0243610D01*
X0205290Y0244007D01*
X0204966Y0244412D01*
X0204652Y0244825D01*
X0204349Y0245246D01*
X0204056Y0245673D01*
X0203774Y0246108D01*
X0203502Y0246550D01*
X0203241Y0246998D01*
X0202991Y0247452D01*
X0202753Y0247912D01*
X0202526Y0248378D01*
X0202310Y0248850D01*
X0202106Y0249327D01*
X0201914Y0249808D01*
X0201733Y0250294D01*
X0201565Y0250784D01*
X0201409Y0251279D01*
X0201264Y0251777D01*
X0201132Y0252278D01*
X0201013Y0252783D01*
X0200905Y0253290D01*
X0200811Y0253800D01*
X0200728Y0254311D01*
X0200659Y0254825D01*
X0200602Y0255340D01*
X0200557Y0255857D01*
X0200525Y0256374D01*
X0200506Y0256893D01*
X0200500Y0257411D01*
X0200501Y0257412D02*
X0200055Y0257155D01*
X0199603Y0256910D01*
X0199145Y0256676D01*
X0198681Y0256453D01*
X0198212Y0256241D01*
X0197738Y0256041D01*
X0197260Y0255852D01*
X0196777Y0255675D01*
X0196289Y0255510D01*
X0195798Y0255357D01*
X0195304Y0255216D01*
X0194806Y0255087D01*
X0194305Y0254970D01*
X0193801Y0254865D01*
X0193295Y0254773D01*
X0192787Y0254693D01*
X0192277Y0254625D01*
X0191765Y0254570D01*
X0191253Y0254528D01*
X0190739Y0254498D01*
X0190225Y0254480D01*
X0189710Y0254475D01*
X0189196Y0254483D01*
X0188682Y0254503D01*
X0188169Y0254535D01*
X0187656Y0254580D01*
X0187145Y0254638D01*
X0186635Y0254708D01*
X0186128Y0254790D01*
X0185622Y0254885D01*
X0185119Y0254992D01*
X0184618Y0255111D01*
X0184121Y0255243D01*
X0183627Y0255387D01*
X0183137Y0255542D01*
X0182650Y0255710D01*
X0182168Y0255889D01*
X0181690Y0256080D01*
X0181217Y0256282D01*
X0180750Y0256496D01*
X0180287Y0256722D01*
X0179830Y0256958D01*
X0179379Y0257206D01*
X0178935Y0257464D01*
X0178496Y0257734D01*
X0178065Y0258014D01*
X0177640Y0258304D01*
X0177223Y0258605D01*
X0176813Y0258915D01*
X0176410Y0259236D01*
X0176016Y0259566D01*
X0175630Y0259906D01*
X0175252Y0260255D01*
X0174883Y0260614D01*
X0174522Y0260981D01*
X0174171Y0261357D01*
X0173829Y0261741D01*
X0173497Y0262133D01*
X0173174Y0262534D01*
X0172861Y0262942D01*
X0172558Y0263358D01*
X0172265Y0263781D01*
X0171983Y0264211D01*
X0171711Y0264648D01*
X0171450Y0265091D01*
X0171200Y0265540D01*
X0170960Y0265996D01*
X0170732Y0266457D01*
X0170516Y0266924D01*
X0170311Y0267395D01*
X0170117Y0267872D01*
X0169935Y0268353D01*
X0169765Y0268839D01*
X0169606Y0269328D01*
X0169460Y0269821D01*
X0169326Y0270318D01*
X0169204Y0270818D01*
X0169094Y0271320D01*
X0168996Y0271825D01*
X0168911Y0272333D01*
X0168838Y0272842D01*
X0168778Y0273353D01*
X0168730Y0273865D01*
X0168694Y0274378D01*
X0168671Y0274892D01*
X0168661Y0275406D01*
X0168663Y0275921D01*
X0168677Y0276435D01*
X0168705Y0276949D01*
X0168744Y0277462D01*
X0168744Y0277461D02*
X0171659Y0309973D01*
X0171711Y0310647D01*
X0171747Y0311322D01*
X0171766Y0311998D01*
X0171768Y0312674D01*
X0171754Y0313350D01*
X0171723Y0314026D01*
X0171676Y0314700D01*
X0171612Y0315374D01*
X0171531Y0316045D01*
X0171435Y0316714D01*
X0171321Y0317381D01*
X0171192Y0318045D01*
X0171046Y0318705D01*
X0170884Y0319361D01*
X0170706Y0320014D01*
X0170512Y0320662D01*
X0170302Y0321304D01*
X0170077Y0321942D01*
X0169836Y0322574D01*
X0169579Y0323199D01*
X0169308Y0323819D01*
X0169021Y0324431D01*
X0168719Y0325036D01*
X0168402Y0325634D01*
X0168071Y0326223D01*
X0167726Y0326804D01*
X0167366Y0327377D01*
X0166992Y0327941D01*
X0166605Y0328495D01*
X0166204Y0329040D01*
X0165790Y0329574D01*
X0165363Y0330099D01*
X0164924Y0330612D01*
X0164471Y0331115D01*
X0164007Y0331606D01*
X0163530Y0332086D01*
X0163042Y0332555D01*
X0162543Y0333011D01*
X0162033Y0333454D01*
X0161512Y0333885D01*
X0160980Y0334303D01*
X0160439Y0334708D01*
X0159887Y0335099D01*
X0159326Y0335477D01*
X0158756Y0335841D01*
X0158178Y0336191D01*
X0157591Y0336527D01*
X0156996Y0336848D01*
X0156393Y0337154D01*
X0155783Y0337445D01*
X0155165Y0337722D01*
X0154542Y0337983D01*
X0153912Y0338229D01*
X0153276Y0338459D01*
X0152635Y0338674D01*
X0151988Y0338873D01*
X0151337Y0339055D01*
X0150682Y0339222D01*
X0150023Y0339373D01*
X0149360Y0339507D01*
X0148694Y0339626D01*
X0148026Y0339728D01*
X0147355Y0339813D01*
X0146682Y0339882D01*
X0146008Y0339934D01*
X0145333Y0339970D01*
X0144657Y0339989D01*
X0143981Y0339992D01*
X0143305Y0339978D01*
X0142629Y0339948D01*
X0141955Y0339901D01*
X0141282Y0339837D01*
X0140610Y0339757D01*
X0139941Y0339660D01*
X0139274Y0339547D01*
X0138610Y0339418D01*
X0137950Y0339273D01*
X0137293Y0339111D01*
X0136641Y0338933D01*
X0135993Y0338740D01*
X0135350Y0338530D01*
X0134713Y0338305D01*
X0134081Y0338064D01*
X0133455Y0337808D01*
X0132836Y0337536D01*
X0132223Y0337250D01*
X0131618Y0336948D01*
X0131020Y0336632D01*
X0130430Y0336301D01*
X0048978Y0289274D01*
X0048978Y0289275D02*
X0048399Y0288931D01*
X0047828Y0288573D01*
X0047266Y0288201D01*
X0046713Y0287815D01*
X0046170Y0287416D01*
X0045637Y0287004D01*
X0045114Y0286579D01*
X0044602Y0286141D01*
X0044100Y0285691D01*
X0043610Y0285228D01*
X0043131Y0284754D01*
X0042664Y0284268D01*
X0042208Y0283771D01*
X0041766Y0283263D01*
X0041335Y0282745D01*
X0040918Y0282216D01*
X0040513Y0281677D01*
X0040122Y0281128D01*
X0039744Y0280570D01*
X0039381Y0280002D01*
X0039031Y0279426D01*
X0038695Y0278842D01*
X0038374Y0278249D01*
X0038067Y0277649D01*
X0037775Y0277042D01*
X0037498Y0276427D01*
X0037236Y0275806D01*
X0036989Y0275179D01*
X0036758Y0274546D01*
X0036542Y0273908D01*
X0036342Y0273264D01*
X0036158Y0272616D01*
X0035990Y0271963D01*
X0035838Y0271307D01*
X0035701Y0270647D01*
X0035581Y0269983D01*
X0035478Y0269318D01*
X0035390Y0268649D01*
X0035319Y0267979D01*
X0035265Y0267307D01*
X0035226Y0266635D01*
X0035205Y0265961D01*
X0035199Y0265287D01*
X0035210Y0264613D01*
X0035238Y0263940D01*
X0035282Y0263267D01*
X0035343Y0262596D01*
X0035420Y0261926D01*
X0035513Y0261259D01*
X0035623Y0260594D01*
X0035749Y0259932D01*
X0035891Y0259273D01*
X0036049Y0258618D01*
X0036223Y0257967D01*
X0036412Y0257320D01*
X0036618Y0256678D01*
X0036839Y0256042D01*
X0037076Y0255411D01*
X0037328Y0254786D01*
X0037596Y0254167D01*
X0037878Y0253555D01*
X0038175Y0252950D01*
X0038487Y0252353D01*
X0038814Y0251763D01*
X0039155Y0251182D01*
X0039510Y0250609D01*
X0039878Y0250045D01*
X0040261Y0249490D01*
X0040657Y0248945D01*
X0041066Y0248409D01*
X0041488Y0247884D01*
X0041923Y0247369D01*
X0042371Y0246865D01*
X0042830Y0246372D01*
X0043301Y0245890D01*
X0043785Y0245420D01*
X0044279Y0244962D01*
X0044784Y0244517D01*
X0045301Y0244083D01*
X0045827Y0243663D01*
X0046364Y0243255D01*
X0046911Y0242861D01*
X0047467Y0242480D01*
X0048032Y0242113D01*
X0048606Y0241760D01*
X0049189Y0241421D01*
X0049779Y0241096D01*
X0050378Y0240786D01*
X0050983Y0240491D01*
X0050983Y0240490D02*
X0086175Y0224223D01*
X0086631Y0224001D01*
X0087081Y0223768D01*
X0087526Y0223524D01*
X0087964Y0223269D01*
X0088396Y0223003D01*
X0088821Y0222727D01*
X0089240Y0222441D01*
X0089651Y0222145D01*
X0090055Y0221839D01*
X0090452Y0221523D01*
X0090840Y0221197D01*
X0091221Y0220862D01*
X0091593Y0220518D01*
X0091957Y0220165D01*
X0092312Y0219803D01*
X0092658Y0219432D01*
X0092996Y0219054D01*
X0093323Y0218667D01*
X0093642Y0218272D01*
X0093950Y0217870D01*
X0094249Y0217460D01*
X0094537Y0217043D01*
X0094816Y0216619D01*
X0095083Y0216189D01*
X0095341Y0215752D01*
X0095587Y0215309D01*
X0095823Y0214860D01*
X0096048Y0214406D01*
X0096262Y0213946D01*
X0096464Y0213481D01*
X0096655Y0213011D01*
X0096834Y0212537D01*
X0097002Y0212059D01*
X0097158Y0211576D01*
X0097303Y0211090D01*
X0097435Y0210601D01*
X0097556Y0210108D01*
X0097664Y0209613D01*
X0097760Y0209115D01*
X0097845Y0208615D01*
X0097917Y0208113D01*
X0097976Y0207610D01*
X0098024Y0207105D01*
X0098059Y0206599D01*
X0098082Y0206093D01*
X0098092Y0205586D01*
X0098090Y0205079D01*
X0098076Y0204572D01*
X0098050Y0204066D01*
X0098011Y0203560D01*
X0097959Y0203056D01*
X0097896Y0202553D01*
X0097820Y0202052D01*
X0097732Y0201552D01*
X0097632Y0201055D01*
X0097520Y0200561D01*
X0097396Y0200069D01*
X0097260Y0199581D01*
X0097112Y0199096D01*
X0096952Y0198615D01*
X0096781Y0198137D01*
X0096598Y0197665D01*
X0096403Y0197196D01*
X0096197Y0196733D01*
X0095980Y0196275D01*
X0095752Y0195822D01*
X0095513Y0195375D01*
X0095263Y0194934D01*
X0095003Y0194499D01*
X0094732Y0194070D01*
X0094450Y0193649D01*
X0094158Y0193234D01*
X0093857Y0192826D01*
X0093545Y0192426D01*
X0093224Y0192034D01*
X0092893Y0191650D01*
X0092554Y0191273D01*
X0092205Y0190906D01*
X0091847Y0190546D01*
X0091480Y0190196D01*
X0091105Y0189855D01*
X0090722Y0189522D01*
X0090331Y0189200D01*
X0089932Y0188887D01*
X0089526Y0188584D01*
X0089112Y0188290D01*
X0088692Y0188007D01*
X0088264Y0187734D01*
X0087830Y0187472D01*
X0087390Y0187221D01*
X0087774Y0186921D01*
X0088151Y0186613D01*
X0088520Y0186295D01*
X0088881Y0185968D01*
X0089234Y0185633D01*
X0089579Y0185289D01*
X0089915Y0184937D01*
X0090242Y0184577D01*
X0090561Y0184209D01*
X0090871Y0183833D01*
X0091171Y0183450D01*
X0091462Y0183060D01*
X0091744Y0182662D01*
X0092015Y0182258D01*
X0092277Y0181848D01*
X0092528Y0181431D01*
X0092770Y0181008D01*
X0093001Y0180580D01*
X0093221Y0180145D01*
X0093431Y0179706D01*
X0093630Y0179262D01*
X0093818Y0178813D01*
X0093996Y0178359D01*
X0094162Y0177902D01*
X0094317Y0177440D01*
X0094460Y0176975D01*
X0094593Y0176506D01*
X0094713Y0176035D01*
X0094823Y0175560D01*
X0094920Y0175083D01*
X0095006Y0174604D01*
X0095081Y0174123D01*
X0095143Y0173640D01*
X0095194Y0173156D01*
X0095233Y0172671D01*
X0095260Y0172184D01*
X0095275Y0171698D01*
X0095279Y0171211D01*
X0095270Y0170724D01*
X0095250Y0170238D01*
X0095218Y0169752D01*
X0095174Y0169267D01*
X0095118Y0168783D01*
X0095051Y0168301D01*
X0094971Y0167821D01*
X0094880Y0167343D01*
X0094778Y0166867D01*
X0094664Y0166393D01*
X0094538Y0165923D01*
X0094401Y0165456D01*
X0094253Y0164992D01*
X0094093Y0164532D01*
X0093922Y0164076D01*
X0093740Y0163625D01*
X0093547Y0163178D01*
X0093344Y0162735D01*
X0093129Y0162298D01*
X0092904Y0161866D01*
X0092669Y0161440D01*
X0092423Y0161020D01*
X0092167Y0160606D01*
X0091901Y0160198D01*
X0091626Y0159797D01*
X0091340Y0159402D01*
X0091045Y0159015D01*
X0090741Y0158635D01*
X0090427Y0158262D01*
X0090105Y0157898D01*
X0089774Y0157541D01*
X0089434Y0157192D01*
X0089085Y0156852D01*
X0088729Y0156520D01*
X0088365Y0156198D01*
X0087992Y0155884D01*
X0087613Y0155579D01*
X0087226Y0155284D01*
X0086831Y0154998D01*
X0086430Y0154722D01*
X0086023Y0154455D01*
X0085609Y0154199D01*
X0085189Y0153953D01*
X0084763Y0153717D01*
X0084331Y0153492D01*
X0083894Y0153277D01*
X0083452Y0153073D01*
X0083006Y0152879D01*
X0082554Y0152697D01*
X0082098Y0152526D01*
X0081639Y0152366D01*
X0081175Y0152217D01*
X0050983Y0137950D01*
X0050378Y0137655D01*
X0049779Y0137345D01*
X0049189Y0137020D01*
X0048606Y0136681D01*
X0048032Y0136328D01*
X0047467Y0135961D01*
X0046911Y0135580D01*
X0046364Y0135186D01*
X0045827Y0134778D01*
X0045301Y0134358D01*
X0044784Y0133924D01*
X0044279Y0133479D01*
X0043785Y0133021D01*
X0043301Y0132551D01*
X0042830Y0132069D01*
X0042371Y0131576D01*
X0041923Y0131072D01*
X0041488Y0130557D01*
X0041066Y0130032D01*
X0040657Y0129496D01*
X0040261Y0128951D01*
X0039878Y0128396D01*
X0039510Y0127832D01*
X0039155Y0127259D01*
X0038814Y0126678D01*
X0038487Y0126088D01*
X0038175Y0125491D01*
X0037878Y0124886D01*
X0037596Y0124274D01*
X0037328Y0123655D01*
X0037076Y0123030D01*
X0036839Y0122399D01*
X0036618Y0121763D01*
X0036412Y0121121D01*
X0036223Y0120474D01*
X0036049Y0119823D01*
X0035891Y0119168D01*
X0035749Y0118509D01*
X0035623Y0117847D01*
X0035513Y0117182D01*
X0035420Y0116515D01*
X0035343Y0115845D01*
X0035282Y0115174D01*
X0035238Y0114501D01*
X0035210Y0113828D01*
X0035199Y0113154D01*
X0035205Y0112480D01*
X0035226Y0111806D01*
X0035265Y0111134D01*
X0035319Y0110462D01*
X0035390Y0109792D01*
X0035478Y0109123D01*
X0035581Y0108458D01*
X0035701Y0107794D01*
X0035838Y0107134D01*
X0035990Y0106478D01*
X0036158Y0105825D01*
X0036342Y0105177D01*
X0036542Y0104533D01*
X0036758Y0103895D01*
X0036989Y0103262D01*
X0037236Y0102635D01*
X0037498Y0102014D01*
X0037775Y0101399D01*
X0038067Y0100792D01*
X0038374Y0100192D01*
X0038695Y0099599D01*
X0039031Y0099015D01*
X0039381Y0098439D01*
X0039744Y0097871D01*
X0040122Y0097313D01*
X0040513Y0096764D01*
X0040918Y0096225D01*
X0041335Y0095696D01*
X0041766Y0095178D01*
X0042208Y0094670D01*
X0042664Y0094173D01*
X0043131Y0093687D01*
X0043610Y0093213D01*
X0044100Y0092750D01*
X0044602Y0092300D01*
X0045114Y0091862D01*
X0045637Y0091437D01*
X0046170Y0091025D01*
X0046713Y0090626D01*
X0047266Y0090240D01*
X0047828Y0089868D01*
X0048399Y0089510D01*
X0048979Y0089166D01*
D11*
X0103243Y0098933D02*
X0113875Y0092794D01*
X0108559Y0095863D02*
X0117767Y0111812D01*
X0109381Y0109565D01*
X0115183Y0263129D02*
X0110990Y0264252D01*
X0109456Y0266910D01*
X0110579Y0271103D01*
X0113237Y0272637D01*
X0110579Y0271103D02*
X0106386Y0272226D01*
X0104852Y0274884D01*
X0105975Y0279077D01*
X0111291Y0282146D01*
X0115484Y0281023D01*
X0121623Y0270391D02*
X0120499Y0266198D01*
X0115183Y0263129D01*
X0249434Y0192848D02*
X0249434Y0186709D01*
X0252504Y0183640D01*
X0249434Y0192848D02*
X0252504Y0195917D01*
X0255573Y0195917D01*
X0267850Y0183640D01*
X0267850Y0195917D01*
D12*
X0243709Y0223196D02*
X0238709Y0223196D01*
X0236209Y0225696D01*
X0233709Y0223196D01*
X0228709Y0223196D01*
X0226209Y0225696D01*
X0226209Y0230696D01*
X0228709Y0233196D01*
X0233709Y0233196D01*
X0236209Y0230696D01*
X0238709Y0233196D01*
X0243709Y0233196D01*
X0246209Y0230696D01*
X0246209Y0225696D01*
X0243709Y0223196D01*
X0228634Y0204685D02*
X0222335Y0204685D01*
X0220760Y0203110D01*
X0220760Y0198779D01*
X0219028Y0201362D02*
X0200918Y0201362D01*
X0200918Y0191126D01*
X0219028Y0191126D01*
X0219028Y0201362D01*
X0228634Y0204685D02*
X0230209Y0203110D01*
X0230209Y0198779D01*
X0230209Y0190905D02*
X0230209Y0185000D01*
X0220760Y0185000D01*
X0220760Y0190905D01*
X0214044Y0184338D02*
X0214044Y0166622D01*
X0206367Y0166622D01*
X0206367Y0168590D01*
X0198493Y0168590D01*
X0198493Y0166622D01*
X0190815Y0166622D01*
X0190815Y0184338D01*
X0214044Y0184338D01*
X0199272Y0185299D02*
X0189823Y0185299D01*
X0189823Y0191204D01*
X0189823Y0199078D02*
X0189823Y0203409D01*
X0191398Y0204984D01*
X0197697Y0204984D01*
X0199272Y0203409D01*
X0199272Y0199078D01*
X0199272Y0191204D02*
X0199272Y0185299D01*
X0197451Y0209997D02*
X0200866Y0210912D01*
X0203366Y0215243D01*
X0202451Y0218658D01*
X0198121Y0221158D01*
X0194706Y0220243D01*
X0193791Y0223658D01*
X0189461Y0226158D01*
X0186046Y0225243D01*
X0185131Y0228658D01*
X0180801Y0231158D01*
X0177386Y0230243D01*
X0176471Y0233658D01*
X0172140Y0236158D01*
X0168725Y0235243D01*
X0166225Y0230912D01*
X0167140Y0227497D01*
X0171471Y0224997D01*
X0174886Y0225912D01*
X0175801Y0222497D01*
X0180131Y0219997D01*
X0183546Y0220912D01*
X0184461Y0217497D01*
X0188791Y0214997D01*
X0192206Y0215912D01*
X0193121Y0212497D01*
X0197451Y0209997D01*
X0175579Y0201503D02*
X0174398Y0202685D01*
X0149989Y0202685D02*
X0148807Y0201503D01*
X0138136Y0209056D02*
X0135074Y0205994D01*
X0132847Y0205994D01*
X0128392Y0210448D01*
X0128392Y0212675D01*
X0131455Y0215737D01*
X0137022Y0221305D02*
X0141198Y0225481D01*
X0147880Y0218800D01*
X0143704Y0214624D01*
X0140993Y0229703D02*
X0137578Y0230618D01*
X0135078Y0234948D01*
X0135993Y0238363D01*
X0140323Y0240863D01*
X0143738Y0239948D01*
X0144653Y0243363D01*
X0148983Y0245863D01*
X0152398Y0244948D01*
X0153313Y0248363D01*
X0157643Y0250863D01*
X0161059Y0249948D01*
X0161974Y0253363D01*
X0166304Y0255863D01*
X0169719Y0254948D01*
X0172219Y0250618D01*
X0171304Y0247203D01*
X0166974Y0244703D01*
X0163559Y0245618D01*
X0162643Y0242203D01*
X0158313Y0239703D01*
X0154898Y0240618D01*
X0153983Y0237203D01*
X0149653Y0234703D01*
X0146238Y0235618D01*
X0145323Y0232203D01*
X0140993Y0229703D01*
X0122494Y0201897D02*
X0120824Y0200226D01*
X0122494Y0191318D02*
X0125835Y0187977D01*
X0134743Y0186307D02*
X0136413Y0187977D01*
X0134743Y0196886D02*
X0131402Y0200226D01*
X0122930Y0178220D02*
X0122930Y0176409D01*
X0121709Y0175489D01*
X0122930Y0174598D02*
X0122930Y0176409D01*
X0122869Y0176509D02*
X0121709Y0177269D01*
X0115822Y0171304D02*
X0115822Y0159178D01*
X0110704Y0155241D02*
X0100822Y0155241D01*
X0095822Y0159178D02*
X0095822Y0171304D01*
X0100941Y0175241D02*
X0110704Y0175241D01*
X0100822Y0165241D02*
X0100824Y0165382D01*
X0100830Y0165523D01*
X0100840Y0165663D01*
X0100854Y0165803D01*
X0100872Y0165943D01*
X0100893Y0166082D01*
X0100919Y0166221D01*
X0100948Y0166359D01*
X0100982Y0166495D01*
X0101019Y0166631D01*
X0101060Y0166766D01*
X0101105Y0166900D01*
X0101154Y0167032D01*
X0101206Y0167163D01*
X0101262Y0167292D01*
X0101322Y0167419D01*
X0101385Y0167545D01*
X0101451Y0167669D01*
X0101522Y0167792D01*
X0101595Y0167912D01*
X0101672Y0168030D01*
X0101752Y0168146D01*
X0101836Y0168259D01*
X0101922Y0168370D01*
X0102012Y0168479D01*
X0102105Y0168585D01*
X0102200Y0168688D01*
X0102299Y0168789D01*
X0102400Y0168887D01*
X0102504Y0168982D01*
X0102611Y0169074D01*
X0102720Y0169163D01*
X0102832Y0169248D01*
X0102946Y0169331D01*
X0103062Y0169411D01*
X0103181Y0169487D01*
X0103302Y0169559D01*
X0103424Y0169629D01*
X0103549Y0169694D01*
X0103675Y0169757D01*
X0103803Y0169815D01*
X0103933Y0169870D01*
X0104064Y0169922D01*
X0104197Y0169969D01*
X0104331Y0170013D01*
X0104466Y0170054D01*
X0104602Y0170090D01*
X0104739Y0170122D01*
X0104877Y0170151D01*
X0105015Y0170176D01*
X0105155Y0170196D01*
X0105295Y0170213D01*
X0105435Y0170226D01*
X0105576Y0170235D01*
X0105716Y0170240D01*
X0105857Y0170241D01*
X0105998Y0170238D01*
X0106139Y0170231D01*
X0106279Y0170220D01*
X0106419Y0170205D01*
X0106559Y0170186D01*
X0106698Y0170164D01*
X0106836Y0170137D01*
X0106974Y0170107D01*
X0107110Y0170072D01*
X0107246Y0170034D01*
X0107380Y0169992D01*
X0107514Y0169946D01*
X0107646Y0169897D01*
X0107776Y0169843D01*
X0107905Y0169786D01*
X0108032Y0169726D01*
X0108158Y0169662D01*
X0108281Y0169594D01*
X0108403Y0169523D01*
X0108523Y0169449D01*
X0108640Y0169371D01*
X0108755Y0169290D01*
X0108868Y0169206D01*
X0108979Y0169119D01*
X0109087Y0169028D01*
X0109192Y0168935D01*
X0109295Y0168838D01*
X0109395Y0168739D01*
X0109492Y0168637D01*
X0109586Y0168532D01*
X0109677Y0168425D01*
X0109765Y0168315D01*
X0109850Y0168203D01*
X0109932Y0168088D01*
X0110011Y0167971D01*
X0110086Y0167852D01*
X0110158Y0167731D01*
X0110226Y0167608D01*
X0110291Y0167483D01*
X0110353Y0167356D01*
X0110410Y0167227D01*
X0110465Y0167097D01*
X0110515Y0166966D01*
X0110562Y0166833D01*
X0110605Y0166699D01*
X0110644Y0166563D01*
X0110679Y0166427D01*
X0110711Y0166290D01*
X0110738Y0166152D01*
X0110762Y0166013D01*
X0110782Y0165873D01*
X0110798Y0165733D01*
X0110810Y0165593D01*
X0110818Y0165452D01*
X0110822Y0165311D01*
X0110822Y0165171D01*
X0110818Y0165030D01*
X0110810Y0164889D01*
X0110798Y0164749D01*
X0110782Y0164609D01*
X0110762Y0164469D01*
X0110738Y0164330D01*
X0110711Y0164192D01*
X0110679Y0164055D01*
X0110644Y0163919D01*
X0110605Y0163783D01*
X0110562Y0163649D01*
X0110515Y0163516D01*
X0110465Y0163385D01*
X0110410Y0163255D01*
X0110353Y0163126D01*
X0110291Y0162999D01*
X0110226Y0162874D01*
X0110158Y0162751D01*
X0110086Y0162630D01*
X0110011Y0162511D01*
X0109932Y0162394D01*
X0109850Y0162279D01*
X0109765Y0162167D01*
X0109677Y0162057D01*
X0109586Y0161950D01*
X0109492Y0161845D01*
X0109395Y0161743D01*
X0109295Y0161644D01*
X0109192Y0161547D01*
X0109087Y0161454D01*
X0108979Y0161363D01*
X0108868Y0161276D01*
X0108755Y0161192D01*
X0108640Y0161111D01*
X0108523Y0161033D01*
X0108403Y0160959D01*
X0108281Y0160888D01*
X0108158Y0160820D01*
X0108032Y0160756D01*
X0107905Y0160696D01*
X0107776Y0160639D01*
X0107646Y0160585D01*
X0107514Y0160536D01*
X0107380Y0160490D01*
X0107246Y0160448D01*
X0107110Y0160410D01*
X0106974Y0160375D01*
X0106836Y0160345D01*
X0106698Y0160318D01*
X0106559Y0160296D01*
X0106419Y0160277D01*
X0106279Y0160262D01*
X0106139Y0160251D01*
X0105998Y0160244D01*
X0105857Y0160241D01*
X0105716Y0160242D01*
X0105576Y0160247D01*
X0105435Y0160256D01*
X0105295Y0160269D01*
X0105155Y0160286D01*
X0105015Y0160306D01*
X0104877Y0160331D01*
X0104739Y0160360D01*
X0104602Y0160392D01*
X0104466Y0160428D01*
X0104331Y0160469D01*
X0104197Y0160513D01*
X0104064Y0160560D01*
X0103933Y0160612D01*
X0103803Y0160667D01*
X0103675Y0160725D01*
X0103549Y0160788D01*
X0103424Y0160853D01*
X0103302Y0160923D01*
X0103181Y0160995D01*
X0103062Y0161071D01*
X0102946Y0161151D01*
X0102832Y0161234D01*
X0102720Y0161319D01*
X0102611Y0161408D01*
X0102504Y0161500D01*
X0102400Y0161595D01*
X0102299Y0161693D01*
X0102200Y0161794D01*
X0102105Y0161897D01*
X0102012Y0162003D01*
X0101922Y0162112D01*
X0101836Y0162223D01*
X0101752Y0162336D01*
X0101672Y0162452D01*
X0101595Y0162570D01*
X0101522Y0162690D01*
X0101451Y0162813D01*
X0101385Y0162937D01*
X0101322Y0163063D01*
X0101262Y0163190D01*
X0101206Y0163319D01*
X0101154Y0163450D01*
X0101105Y0163582D01*
X0101060Y0163716D01*
X0101019Y0163851D01*
X0100982Y0163987D01*
X0100948Y0164123D01*
X0100919Y0164261D01*
X0100893Y0164400D01*
X0100872Y0164539D01*
X0100854Y0164679D01*
X0100840Y0164819D01*
X0100830Y0164959D01*
X0100824Y0165100D01*
X0100822Y0165241D01*
X0096937Y0185466D02*
X0096017Y0186687D01*
X0094206Y0186687D01*
X0095157Y0185466D02*
X0095917Y0186626D01*
X0096017Y0186687D02*
X0097828Y0186687D01*
X0093161Y0224585D02*
X0089746Y0225500D01*
X0087246Y0229830D01*
X0088161Y0233245D01*
X0084746Y0234160D01*
X0082246Y0238490D01*
X0083161Y0241905D01*
X0087491Y0244405D01*
X0090906Y0243490D01*
X0093406Y0239160D01*
X0092491Y0235745D01*
X0095906Y0234830D01*
X0098406Y0230500D01*
X0097491Y0227085D01*
X0093161Y0224585D01*
X0148807Y0177094D02*
X0149989Y0175913D01*
X0174398Y0175913D02*
X0175579Y0177094D01*
X0150755Y0142720D02*
X0146425Y0145220D01*
X0143010Y0144305D01*
X0142095Y0147720D01*
X0137764Y0150220D01*
X0134349Y0149305D01*
X0131849Y0144975D01*
X0132764Y0141560D01*
X0137095Y0139060D01*
X0140510Y0139975D01*
X0141425Y0136560D01*
X0145755Y0134060D01*
X0149170Y0134975D01*
X0150085Y0131560D01*
X0154415Y0129060D01*
X0157830Y0129975D01*
X0160330Y0134305D01*
X0159415Y0137720D01*
X0155085Y0140220D01*
X0151670Y0139305D01*
X0150755Y0142720D01*
X0157457Y0114751D02*
X0154957Y0110421D01*
X0155872Y0107006D01*
X0152457Y0106091D01*
X0149957Y0101761D01*
X0150872Y0098346D01*
X0155202Y0095846D01*
X0158617Y0096761D01*
X0161117Y0101091D01*
X0160202Y0104506D01*
X0163617Y0105421D01*
X0166117Y0109751D01*
X0165202Y0113166D01*
X0160872Y0115666D01*
X0157457Y0114751D01*
X0194343Y0130451D02*
X0195248Y0128883D01*
X0195845Y0130290D01*
X0195248Y0128883D02*
X0196154Y0127315D01*
X0196735Y0128749D02*
X0195351Y0128827D01*
X0194221Y0247984D02*
X0195126Y0249552D01*
X0196643Y0249739D01*
X0196032Y0251121D02*
X0195126Y0249552D01*
X0195129Y0249435D02*
X0195753Y0248197D01*
D13*
X0166468Y0220269D02*
X0166468Y0219268D01*
X0165467Y0220269D01*
X0165217Y0220269D01*
X0164966Y0220019D01*
X0164966Y0219519D01*
X0165217Y0219268D01*
X0165217Y0218796D02*
X0165717Y0218796D01*
X0165967Y0218546D01*
X0165967Y0217795D01*
X0165967Y0218296D02*
X0166468Y0218796D01*
X0166468Y0217795D02*
X0164966Y0217795D01*
X0164966Y0218546D01*
X0165217Y0218796D01*
X0162558Y0220898D02*
X0161557Y0220898D01*
X0162558Y0221899D01*
X0162558Y0222149D01*
X0162308Y0222400D01*
X0161808Y0222400D01*
X0161557Y0222149D01*
X0161085Y0222400D02*
X0160585Y0222400D01*
X0160835Y0222400D02*
X0160835Y0221149D01*
X0160585Y0220898D01*
X0160334Y0220898D01*
X0160084Y0221149D01*
X0159612Y0221149D02*
X0159362Y0220898D01*
X0158861Y0220898D01*
X0158611Y0221149D01*
X0158861Y0221649D02*
X0159362Y0221649D01*
X0159612Y0221399D01*
X0159612Y0221149D01*
X0158861Y0221649D02*
X0158611Y0221899D01*
X0158611Y0222149D01*
X0158861Y0222400D01*
X0159362Y0222400D01*
X0159612Y0222149D01*
X0150994Y0216216D02*
X0150994Y0215215D01*
X0150994Y0214743D02*
X0150493Y0214242D01*
X0150493Y0214492D02*
X0150493Y0213742D01*
X0150994Y0213742D02*
X0149492Y0213742D01*
X0149492Y0214492D01*
X0149743Y0214743D01*
X0150243Y0214743D01*
X0150493Y0214492D01*
X0149993Y0215215D02*
X0149492Y0215715D01*
X0150994Y0215715D01*
X0147216Y0209274D02*
X0148278Y0208212D01*
X0147924Y0207858D02*
X0148632Y0208566D01*
X0147216Y0208566D02*
X0147216Y0209274D01*
X0146705Y0208409D02*
X0146351Y0208409D01*
X0145998Y0208055D01*
X0145998Y0207701D01*
X0146705Y0206994D01*
X0147059Y0206994D01*
X0147413Y0207347D01*
X0147413Y0207701D01*
X0135815Y0219036D02*
X0134754Y0220097D01*
X0134754Y0219036D01*
X0135461Y0219743D01*
X0134066Y0219055D02*
X0133712Y0219055D01*
X0133358Y0218701D01*
X0133358Y0218348D01*
X0134066Y0217640D01*
X0134420Y0217640D01*
X0134773Y0217994D01*
X0134773Y0218348D01*
X0114170Y0206927D02*
X0114170Y0206573D01*
X0113816Y0206219D01*
X0113462Y0206219D01*
X0113285Y0206396D01*
X0113285Y0206750D01*
X0113639Y0207103D01*
X0113993Y0207103D01*
X0114170Y0206927D01*
X0113639Y0207103D02*
X0113639Y0207457D01*
X0113462Y0207634D01*
X0113108Y0207634D01*
X0112754Y0207280D01*
X0112754Y0206927D01*
X0112931Y0206750D01*
X0113285Y0206750D01*
X0112420Y0206592D02*
X0112066Y0206592D01*
X0111712Y0206239D01*
X0111712Y0205885D01*
X0112420Y0205177D01*
X0112774Y0205177D01*
X0113128Y0205531D01*
X0113128Y0205885D01*
X0099208Y0193891D02*
X0099208Y0192890D01*
X0099208Y0193390D02*
X0097707Y0193390D01*
X0098207Y0192890D01*
X0097707Y0192417D02*
X0097707Y0191917D01*
X0097707Y0192167D02*
X0098958Y0192167D01*
X0099208Y0191917D01*
X0099208Y0191667D01*
X0098958Y0191416D01*
X0098958Y0190944D02*
X0099208Y0190694D01*
X0099208Y0190193D01*
X0098958Y0189943D01*
X0098457Y0190193D02*
X0098457Y0190694D01*
X0098707Y0190944D01*
X0098958Y0190944D01*
X0098457Y0190193D02*
X0098207Y0189943D01*
X0097957Y0189943D01*
X0097707Y0190193D01*
X0097707Y0190694D01*
X0097957Y0190944D01*
X0101393Y0187099D02*
X0102144Y0187099D01*
X0102394Y0186849D01*
X0102394Y0186348D01*
X0102144Y0186098D01*
X0101393Y0186098D01*
X0101893Y0186098D02*
X0102394Y0185598D01*
X0102866Y0185848D02*
X0103116Y0185598D01*
X0103617Y0185598D01*
X0103867Y0185848D01*
X0103867Y0186098D01*
X0103617Y0186348D01*
X0102866Y0186348D01*
X0102866Y0185848D01*
X0102866Y0186348D02*
X0103367Y0186849D01*
X0103867Y0187099D01*
X0101393Y0187099D02*
X0101393Y0185598D01*
X0118810Y0180710D02*
X0119561Y0180710D01*
X0119811Y0180460D01*
X0119811Y0179459D01*
X0119561Y0179209D01*
X0118810Y0179209D01*
X0118810Y0180710D01*
X0120283Y0180210D02*
X0120784Y0180710D01*
X0120784Y0179209D01*
X0121284Y0179209D02*
X0120283Y0179209D01*
X0122623Y0170239D02*
X0122623Y0169238D01*
X0121872Y0169988D01*
X0123373Y0169988D01*
X0123373Y0168765D02*
X0122873Y0168265D01*
X0122873Y0168515D02*
X0122873Y0167764D01*
X0123373Y0167764D02*
X0121872Y0167764D01*
X0121872Y0168515D01*
X0122122Y0168765D01*
X0122623Y0168765D01*
X0122873Y0168515D01*
X0134125Y0160356D02*
X0134125Y0160003D01*
X0134479Y0159649D01*
X0134833Y0159649D01*
X0135167Y0159315D02*
X0135167Y0158961D01*
X0135520Y0158607D01*
X0135874Y0158607D01*
X0136051Y0158784D01*
X0136051Y0159138D01*
X0135520Y0159668D01*
X0135167Y0159315D01*
X0135520Y0159668D02*
X0136228Y0159668D01*
X0136759Y0159492D01*
X0135540Y0160356D02*
X0135540Y0160710D01*
X0135186Y0161064D01*
X0134833Y0161064D01*
X0134125Y0160356D01*
X0139609Y0165519D02*
X0139963Y0165165D01*
X0140316Y0165165D01*
X0140650Y0164831D02*
X0140650Y0164477D01*
X0141004Y0164123D01*
X0141358Y0164123D01*
X0141712Y0164477D01*
X0141712Y0164831D01*
X0141535Y0165008D01*
X0141004Y0165185D01*
X0141535Y0165715D01*
X0142243Y0165008D01*
X0141024Y0165873D02*
X0141024Y0166226D01*
X0140670Y0166580D01*
X0140316Y0166580D01*
X0139609Y0165873D01*
X0139609Y0165519D01*
X0108431Y0143508D02*
X0108431Y0143257D01*
X0107430Y0142256D01*
X0107430Y0142006D01*
X0106957Y0142256D02*
X0106707Y0142006D01*
X0106207Y0142006D01*
X0105957Y0142256D01*
X0105957Y0143257D01*
X0106207Y0143508D01*
X0106707Y0143508D01*
X0106957Y0143257D01*
X0107430Y0143508D02*
X0108431Y0143508D01*
X0084898Y0097234D02*
X0084556Y0097143D01*
X0084306Y0096709D01*
X0084398Y0096368D01*
X0084898Y0097234D02*
X0085115Y0097109D01*
X0085481Y0095742D01*
X0085982Y0096609D01*
X0085245Y0095333D02*
X0084745Y0094466D01*
X0084995Y0094900D02*
X0083695Y0095650D01*
X0083878Y0094967D01*
X0083425Y0094683D02*
X0083083Y0094591D01*
X0082833Y0094158D01*
X0082925Y0093816D01*
X0083791Y0093315D01*
X0084133Y0093407D01*
X0084383Y0093840D01*
X0084292Y0094182D01*
X0109501Y0079630D02*
X0109250Y0079197D01*
X0109342Y0078855D01*
X0110209Y0078355D01*
X0110550Y0078446D01*
X0110801Y0078880D01*
X0110709Y0079222D01*
X0111162Y0079506D02*
X0111662Y0080372D01*
X0111899Y0080781D02*
X0112399Y0081648D01*
X0112149Y0081215D02*
X0110849Y0081965D01*
X0111032Y0081282D01*
X0110112Y0080690D02*
X0111412Y0079939D01*
X0110295Y0080006D02*
X0110112Y0080690D01*
X0109842Y0079722D02*
X0109501Y0079630D01*
X0177310Y0169854D02*
X0177664Y0169854D01*
X0178018Y0170208D01*
X0178018Y0170562D01*
X0178529Y0170719D02*
X0178529Y0172134D01*
X0178352Y0172311D01*
X0177998Y0172311D01*
X0177644Y0171958D01*
X0177644Y0171604D01*
X0177310Y0171270D02*
X0176956Y0171270D01*
X0176602Y0170916D01*
X0176602Y0170562D01*
X0177310Y0169854D01*
X0178529Y0170719D02*
X0179236Y0171427D01*
X0187810Y0185191D02*
X0188810Y0185191D01*
X0189061Y0185441D01*
X0189061Y0185942D01*
X0188810Y0186192D01*
X0189061Y0186665D02*
X0189061Y0187665D01*
X0189061Y0187165D02*
X0187559Y0187165D01*
X0188060Y0186665D01*
X0187810Y0186192D02*
X0187559Y0185942D01*
X0187559Y0185441D01*
X0187810Y0185191D01*
X0187810Y0188138D02*
X0187559Y0188388D01*
X0187559Y0188888D01*
X0187810Y0189139D01*
X0188810Y0188138D01*
X0189061Y0188388D01*
X0189061Y0188888D01*
X0188810Y0189139D01*
X0187810Y0189139D01*
X0187810Y0188138D02*
X0188810Y0188138D01*
X0192069Y0183242D02*
X0192819Y0183242D01*
X0193069Y0182992D01*
X0193069Y0182742D01*
X0192819Y0182492D01*
X0192069Y0182492D01*
X0192819Y0182492D02*
X0193069Y0182241D01*
X0193069Y0181991D01*
X0192819Y0181741D01*
X0192069Y0181741D01*
X0192069Y0183242D01*
X0193542Y0182742D02*
X0194042Y0183242D01*
X0194543Y0182742D01*
X0194543Y0181741D01*
X0194543Y0182492D02*
X0193542Y0182492D01*
X0193542Y0182742D02*
X0193542Y0181741D01*
X0195515Y0181741D02*
X0195515Y0183242D01*
X0195015Y0183242D02*
X0196016Y0183242D01*
X0196488Y0183242D02*
X0197489Y0183242D01*
X0196989Y0183242D02*
X0196989Y0181741D01*
X0218496Y0185142D02*
X0218747Y0184892D01*
X0219747Y0184892D01*
X0219998Y0185142D01*
X0219998Y0185643D01*
X0219747Y0185893D01*
X0219747Y0186365D02*
X0219998Y0186616D01*
X0219998Y0187116D01*
X0219747Y0187366D01*
X0218747Y0187366D01*
X0218496Y0187116D01*
X0218496Y0186616D01*
X0218747Y0186365D01*
X0218997Y0186365D01*
X0219247Y0186616D01*
X0219247Y0187366D01*
X0218747Y0185893D02*
X0218496Y0185643D01*
X0218496Y0185142D01*
X0218331Y0150257D02*
X0218581Y0150007D01*
X0218581Y0149506D01*
X0218331Y0149256D01*
X0217830Y0149256D02*
X0217580Y0149756D01*
X0217580Y0150007D01*
X0217830Y0150257D01*
X0218331Y0150257D01*
X0217830Y0149256D02*
X0217080Y0149256D01*
X0217080Y0150257D01*
X0217330Y0148783D02*
X0217080Y0148533D01*
X0217080Y0147783D01*
X0218581Y0147783D01*
X0218081Y0147783D02*
X0218081Y0148533D01*
X0217830Y0148783D01*
X0217330Y0148783D01*
X0218081Y0148283D02*
X0218581Y0148783D01*
X0211292Y0144729D02*
X0211793Y0143862D01*
X0211576Y0143737D01*
X0210209Y0144103D01*
X0209992Y0143978D01*
X0209756Y0144387D02*
X0209255Y0145254D01*
X0209506Y0144820D02*
X0210806Y0145571D01*
X0210122Y0145754D01*
X0210103Y0146289D02*
X0210194Y0146630D01*
X0209944Y0147064D01*
X0209602Y0147155D01*
X0208735Y0146655D01*
X0208644Y0146313D01*
X0208894Y0145880D01*
X0209236Y0145788D01*
X0183427Y0211732D02*
X0183074Y0211732D01*
X0182720Y0212086D01*
X0182720Y0212440D01*
X0182386Y0212774D02*
X0182032Y0212774D01*
X0181678Y0213127D01*
X0181678Y0213481D01*
X0182386Y0214189D01*
X0182739Y0214189D01*
X0183093Y0213835D01*
X0183093Y0213481D01*
X0183427Y0213147D02*
X0183781Y0213147D01*
X0184135Y0212793D01*
X0184135Y0212440D01*
X0183958Y0212263D01*
X0183604Y0212263D01*
X0183604Y0211909D01*
X0183427Y0211732D01*
X0183604Y0212263D02*
X0183427Y0212440D01*
X0225496Y0228850D02*
X0225496Y0229601D01*
X0225746Y0229851D01*
X0226246Y0229851D01*
X0226496Y0229601D01*
X0226496Y0228850D01*
X0226496Y0229351D02*
X0226997Y0229851D01*
X0226997Y0230324D02*
X0226747Y0230324D01*
X0225746Y0231324D01*
X0225496Y0231324D01*
X0225496Y0230324D01*
X0225496Y0228850D02*
X0226997Y0228850D01*
X0278331Y0198992D02*
X0278331Y0197991D01*
X0278582Y0197741D01*
X0279082Y0197741D01*
X0279332Y0197991D01*
X0279805Y0197741D02*
X0280806Y0197741D01*
X0280305Y0197741D02*
X0280305Y0199242D01*
X0279805Y0198742D01*
X0279332Y0198992D02*
X0279082Y0199242D01*
X0278582Y0199242D01*
X0278331Y0198992D01*
X0281278Y0198992D02*
X0281528Y0199242D01*
X0282029Y0199242D01*
X0282279Y0198992D01*
X0282279Y0198742D01*
X0282029Y0198492D01*
X0282279Y0198241D01*
X0282279Y0197991D01*
X0282029Y0197741D01*
X0281528Y0197741D01*
X0281278Y0197991D01*
X0281778Y0198492D02*
X0282029Y0198492D01*
X0282068Y0172864D02*
X0281317Y0172114D01*
X0282318Y0172114D01*
X0282068Y0172864D02*
X0282068Y0171363D01*
X0280845Y0171363D02*
X0279844Y0171363D01*
X0280344Y0171363D02*
X0280344Y0172864D01*
X0279844Y0172364D01*
X0279372Y0172614D02*
X0279121Y0172864D01*
X0278621Y0172864D01*
X0278371Y0172614D01*
X0278371Y0171613D01*
X0278621Y0171363D01*
X0279121Y0171363D01*
X0279372Y0171613D01*
X0118391Y0300829D02*
X0117924Y0301137D01*
X0117241Y0301320D01*
X0117616Y0300670D01*
X0117525Y0300328D01*
X0117308Y0300203D01*
X0116966Y0300295D01*
X0116716Y0300728D01*
X0116807Y0301070D01*
X0117241Y0301320D01*
X0116355Y0301354D02*
X0115854Y0302221D01*
X0116104Y0301787D02*
X0117405Y0302538D01*
X0116721Y0302721D01*
X0116701Y0303255D02*
X0116793Y0303597D01*
X0116543Y0304031D01*
X0116201Y0304122D01*
X0115334Y0303622D01*
X0115243Y0303280D01*
X0115493Y0302846D01*
X0115835Y0302755D01*
X0092247Y0287971D02*
X0090947Y0287220D01*
X0091197Y0286787D02*
X0090697Y0287654D01*
X0090677Y0288188D02*
X0090335Y0288280D01*
X0090085Y0288713D01*
X0090177Y0289055D01*
X0091044Y0289555D01*
X0091385Y0289464D01*
X0091636Y0289030D01*
X0091544Y0288688D01*
X0091563Y0288154D02*
X0092247Y0287971D01*
X0092733Y0287129D02*
X0092083Y0286753D01*
X0092550Y0286445D01*
X0092675Y0286228D01*
X0092584Y0285886D01*
X0092150Y0285636D01*
X0091809Y0285728D01*
X0091558Y0286161D01*
X0091650Y0286503D01*
X0092733Y0287129D02*
X0093234Y0286262D01*
D14*
X0089148Y0284477D02*
X0088940Y0284357D01*
X0114097Y0298924D02*
X0114305Y0299044D01*
X0181869Y0208793D02*
X0181699Y0208623D01*
X0181998Y0170045D02*
X0182168Y0169875D01*
X0207190Y0153591D02*
X0207398Y0153712D01*
X0142307Y0169425D02*
X0142138Y0169255D01*
X0136823Y0163908D02*
X0136654Y0163739D01*
X0105353Y0146676D02*
X0105353Y0146436D01*
X0088270Y0094713D02*
X0088478Y0094593D01*
X0114688Y0079752D02*
X0114896Y0079632D01*
X0117278Y0205198D02*
X0117108Y0205368D01*
X0141793Y0208084D02*
X0141963Y0207915D01*
X0279201Y0202411D02*
X0279201Y0202171D01*
X0279241Y0176033D02*
X0279241Y0175793D01*
D15*
X0098119Y0021027D02*
X0046976Y0050554D01*
X0061740Y0076126D01*
X0036168Y0090889D01*
X0032566Y0104335D02*
X0052251Y0138430D01*
X0065696Y0142033D02*
X0091267Y0127269D01*
X0106031Y0152841D01*
X0157174Y0123313D01*
X0142411Y0097741D01*
X0167982Y0082978D01*
X0171585Y0069532D02*
X0151900Y0035437D01*
X0138455Y0031834D02*
X0112883Y0046598D01*
X0098119Y0021027D01*
X0142855Y0082508D02*
X0144906Y0083058D01*
X0144356Y0085108D01*
X0148257Y0082856D01*
X0149057Y0084243D02*
X0145157Y0086495D01*
X0146283Y0088445D01*
X0147308Y0088720D01*
X0148608Y0087970D01*
X0148883Y0086944D01*
X0147757Y0084994D01*
X0148759Y0089732D02*
X0148209Y0091782D01*
X0152110Y0089531D01*
X0152861Y0090831D02*
X0151359Y0088230D01*
X0146755Y0080256D02*
X0142855Y0082508D01*
X0220185Y0159692D02*
X0220185Y0218748D01*
X0249713Y0218748D01*
X0249713Y0248275D01*
X0259556Y0258118D02*
X0298926Y0258118D01*
X0308768Y0248275D02*
X0308768Y0218748D01*
X0338296Y0218748D01*
X0338296Y0159692D01*
X0308768Y0159692D01*
X0308768Y0130165D01*
X0298926Y0120322D02*
X0259556Y0120322D01*
X0249713Y0130165D02*
X0249713Y0159692D01*
X0220185Y0159692D01*
X0221485Y0196342D02*
X0229485Y0196342D01*
X0250759Y0227046D02*
X0250759Y0231550D01*
X0252260Y0230049D01*
X0253762Y0231550D01*
X0253762Y0227046D01*
X0255363Y0227046D02*
X0255363Y0231550D01*
X0257615Y0231550D01*
X0258366Y0230800D01*
X0258366Y0229298D01*
X0257615Y0228548D01*
X0255363Y0228548D01*
X0259967Y0227046D02*
X0262969Y0230049D01*
X0262969Y0230800D01*
X0262219Y0231550D01*
X0260718Y0231550D01*
X0259967Y0230800D01*
X0259967Y0227046D02*
X0262969Y0227046D01*
X0198548Y0196641D02*
X0190548Y0196641D01*
X0139347Y0211292D02*
X0133690Y0216948D01*
X0115205Y0200280D02*
X0115207Y0200301D01*
X0115213Y0200320D01*
X0115222Y0200339D01*
X0115234Y0200355D01*
X0115250Y0200369D01*
X0115267Y0200380D01*
X0115286Y0200388D01*
X0115307Y0200392D01*
X0115327Y0200392D01*
X0115348Y0200388D01*
X0115367Y0200380D01*
X0115384Y0200369D01*
X0115400Y0200355D01*
X0115412Y0200339D01*
X0115421Y0200320D01*
X0115427Y0200301D01*
X0115429Y0200280D01*
X0115427Y0200259D01*
X0115421Y0200240D01*
X0115412Y0200221D01*
X0115400Y0200205D01*
X0115384Y0200191D01*
X0115367Y0200180D01*
X0115348Y0200172D01*
X0115327Y0200168D01*
X0115307Y0200168D01*
X0115286Y0200172D01*
X0115267Y0200180D01*
X0115250Y0200191D01*
X0115234Y0200205D01*
X0115222Y0200221D01*
X0115213Y0200240D01*
X0115207Y0200259D01*
X0115205Y0200280D01*
X0114744Y0200280D02*
X0114746Y0200327D01*
X0114752Y0200374D01*
X0114762Y0200421D01*
X0114775Y0200466D01*
X0114792Y0200510D01*
X0114813Y0200553D01*
X0114837Y0200593D01*
X0114865Y0200632D01*
X0114895Y0200668D01*
X0114929Y0200702D01*
X0114965Y0200732D01*
X0115004Y0200760D01*
X0115044Y0200784D01*
X0115087Y0200805D01*
X0115131Y0200822D01*
X0115176Y0200835D01*
X0115223Y0200845D01*
X0115270Y0200851D01*
X0115317Y0200853D01*
X0115364Y0200851D01*
X0115411Y0200845D01*
X0115458Y0200835D01*
X0115503Y0200822D01*
X0115547Y0200805D01*
X0115590Y0200784D01*
X0115630Y0200760D01*
X0115669Y0200732D01*
X0115705Y0200702D01*
X0115739Y0200668D01*
X0115769Y0200632D01*
X0115797Y0200593D01*
X0115821Y0200553D01*
X0115842Y0200510D01*
X0115859Y0200466D01*
X0115872Y0200421D01*
X0115882Y0200374D01*
X0115888Y0200327D01*
X0115890Y0200280D01*
X0115888Y0200233D01*
X0115882Y0200186D01*
X0115872Y0200139D01*
X0115859Y0200094D01*
X0115842Y0200050D01*
X0115821Y0200007D01*
X0115797Y0199967D01*
X0115769Y0199928D01*
X0115739Y0199892D01*
X0115705Y0199858D01*
X0115669Y0199828D01*
X0115630Y0199800D01*
X0115590Y0199776D01*
X0115547Y0199755D01*
X0115503Y0199738D01*
X0115458Y0199725D01*
X0115411Y0199715D01*
X0115364Y0199709D01*
X0115317Y0199707D01*
X0115270Y0199709D01*
X0115223Y0199715D01*
X0115176Y0199725D01*
X0115131Y0199738D01*
X0115087Y0199755D01*
X0115044Y0199776D01*
X0115004Y0199800D01*
X0114965Y0199828D01*
X0114929Y0199858D01*
X0114895Y0199892D01*
X0114865Y0199928D01*
X0114837Y0199967D01*
X0114813Y0200007D01*
X0114792Y0200050D01*
X0114775Y0200094D01*
X0114762Y0200139D01*
X0114752Y0200186D01*
X0114746Y0200233D01*
X0114744Y0200280D01*
X0114273Y0200280D02*
X0114275Y0200344D01*
X0114281Y0200408D01*
X0114291Y0200472D01*
X0114305Y0200535D01*
X0114322Y0200596D01*
X0114343Y0200657D01*
X0114369Y0200716D01*
X0114397Y0200774D01*
X0114429Y0200830D01*
X0114465Y0200883D01*
X0114504Y0200935D01*
X0114545Y0200983D01*
X0114590Y0201030D01*
X0114638Y0201073D01*
X0114688Y0201113D01*
X0114740Y0201150D01*
X0114795Y0201184D01*
X0114852Y0201215D01*
X0114910Y0201241D01*
X0114970Y0201265D01*
X0115031Y0201284D01*
X0115094Y0201300D01*
X0115157Y0201312D01*
X0115221Y0201320D01*
X0115285Y0201324D01*
X0115349Y0201324D01*
X0115413Y0201320D01*
X0115477Y0201312D01*
X0115540Y0201300D01*
X0115603Y0201284D01*
X0115664Y0201265D01*
X0115724Y0201241D01*
X0115782Y0201215D01*
X0115839Y0201184D01*
X0115894Y0201150D01*
X0115946Y0201113D01*
X0115996Y0201073D01*
X0116044Y0201030D01*
X0116089Y0200983D01*
X0116130Y0200935D01*
X0116169Y0200883D01*
X0116205Y0200830D01*
X0116237Y0200774D01*
X0116265Y0200716D01*
X0116291Y0200657D01*
X0116312Y0200596D01*
X0116329Y0200535D01*
X0116343Y0200472D01*
X0116353Y0200408D01*
X0116359Y0200344D01*
X0116361Y0200280D01*
X0116359Y0200216D01*
X0116353Y0200152D01*
X0116343Y0200088D01*
X0116329Y0200025D01*
X0116312Y0199964D01*
X0116291Y0199903D01*
X0116265Y0199844D01*
X0116237Y0199786D01*
X0116205Y0199730D01*
X0116169Y0199677D01*
X0116130Y0199625D01*
X0116089Y0199577D01*
X0116044Y0199530D01*
X0115996Y0199487D01*
X0115946Y0199447D01*
X0115894Y0199410D01*
X0115839Y0199376D01*
X0115782Y0199345D01*
X0115724Y0199319D01*
X0115664Y0199295D01*
X0115603Y0199276D01*
X0115540Y0199260D01*
X0115477Y0199248D01*
X0115413Y0199240D01*
X0115349Y0199236D01*
X0115285Y0199236D01*
X0115221Y0199240D01*
X0115157Y0199248D01*
X0115094Y0199260D01*
X0115031Y0199276D01*
X0114970Y0199295D01*
X0114910Y0199319D01*
X0114852Y0199345D01*
X0114795Y0199376D01*
X0114740Y0199410D01*
X0114688Y0199447D01*
X0114638Y0199487D01*
X0114590Y0199530D01*
X0114545Y0199577D01*
X0114504Y0199625D01*
X0114465Y0199677D01*
X0114429Y0199730D01*
X0114397Y0199786D01*
X0114369Y0199844D01*
X0114343Y0199903D01*
X0114322Y0199964D01*
X0114305Y0200025D01*
X0114291Y0200088D01*
X0114281Y0200152D01*
X0114275Y0200216D01*
X0114273Y0200280D01*
X0106031Y0225599D02*
X0157174Y0255127D01*
X0142411Y0280699D01*
X0167982Y0295462D01*
X0171585Y0308908D02*
X0151900Y0343003D01*
X0138455Y0346606D02*
X0112883Y0331842D01*
X0098119Y0357413D01*
X0046976Y0327886D01*
X0061740Y0302314D01*
X0036168Y0287551D01*
X0032566Y0274105D02*
X0052251Y0240010D01*
X0065696Y0236407D02*
X0091267Y0251171D01*
X0106031Y0225599D01*
X0084501Y0247347D02*
X0083851Y0246972D01*
X0082826Y0247246D01*
X0082551Y0246221D01*
X0081901Y0245846D01*
X0080876Y0246120D01*
X0080125Y0247421D01*
X0080400Y0248446D01*
X0082451Y0247896D02*
X0082826Y0247246D01*
X0084501Y0247347D02*
X0084776Y0248372D01*
X0084025Y0249672D01*
X0083000Y0249947D01*
X0082199Y0251334D02*
X0080899Y0250583D01*
X0079874Y0250858D01*
X0078748Y0252808D01*
X0077448Y0252058D02*
X0081348Y0254310D01*
X0082474Y0252359D01*
X0082199Y0251334D01*
X0080548Y0255696D02*
X0076647Y0253445D01*
X0075146Y0256045D02*
X0079046Y0258297D01*
X0078497Y0256246D01*
X0080548Y0255696D01*
D16*
X0131604Y0240565D02*
X0132424Y0240345D01*
X0132644Y0241166D01*
X0133545Y0239605D01*
X0134099Y0239926D02*
X0133199Y0241486D01*
X0133979Y0241936D01*
X0134389Y0241826D01*
X0134689Y0241306D01*
X0134579Y0240896D01*
X0133799Y0240446D01*
X0135544Y0241107D02*
X0135954Y0240997D01*
X0136474Y0241297D01*
X0136584Y0241707D01*
X0135834Y0243007D01*
X0134793Y0242407D02*
X0135544Y0241107D01*
X0132505Y0239005D02*
X0131604Y0240565D01*
X0189816Y0211294D02*
X0190716Y0212854D01*
X0191757Y0212253D01*
X0192311Y0211933D02*
X0191411Y0210373D01*
X0192451Y0209772D01*
X0193005Y0209452D02*
X0193606Y0210492D01*
X0194426Y0210712D01*
X0194646Y0209892D01*
X0194045Y0208851D01*
X0194750Y0208791D02*
X0194860Y0208381D01*
X0195380Y0208081D01*
X0195790Y0208191D01*
X0195941Y0208451D01*
X0195831Y0208861D01*
X0195311Y0209161D01*
X0195201Y0209571D01*
X0195351Y0209831D01*
X0195761Y0209941D01*
X0196281Y0209641D01*
X0196391Y0209231D01*
X0197096Y0209171D02*
X0196195Y0207610D01*
X0196645Y0208390D02*
X0197686Y0207790D01*
X0198136Y0208570D02*
X0197235Y0207010D01*
X0194496Y0209631D02*
X0193456Y0210232D01*
X0190786Y0211773D02*
X0190266Y0212074D01*
X0147803Y0130223D02*
X0148583Y0129773D01*
X0148693Y0129362D01*
X0148093Y0128322D01*
X0147682Y0128212D01*
X0146902Y0128663D01*
X0147803Y0130223D01*
X0149398Y0129302D02*
X0148497Y0127742D01*
X0149537Y0127141D01*
X0150092Y0126821D02*
X0150872Y0126371D01*
X0151282Y0126481D01*
X0151432Y0126741D01*
X0151322Y0127151D01*
X0150542Y0127601D01*
X0150092Y0126821D02*
X0150993Y0128381D01*
X0151773Y0127931D01*
X0151883Y0127521D01*
X0151733Y0127261D01*
X0151322Y0127151D01*
X0151837Y0126160D02*
X0151947Y0125750D01*
X0152467Y0125450D01*
X0152877Y0125560D01*
X0153628Y0126860D01*
X0154032Y0126280D02*
X0153432Y0125240D01*
X0153542Y0124830D01*
X0154062Y0124529D01*
X0154472Y0124639D01*
X0154772Y0125159D01*
X0154252Y0125459D01*
X0155072Y0125679D02*
X0154963Y0126089D01*
X0154442Y0126390D01*
X0154032Y0126280D01*
X0152588Y0127461D02*
X0151837Y0126160D01*
X0150438Y0128702D02*
X0149398Y0129302D01*
X0148948Y0128522D02*
X0149468Y0128222D01*
D17*
X0165677Y0137660D02*
X0173177Y0124670D01*
X0176592Y0123755D01*
X0180922Y0126255D01*
X0181837Y0129670D01*
X0185252Y0128755D01*
X0189583Y0131255D01*
X0190498Y0134670D01*
X0193913Y0133755D01*
X0198243Y0136255D01*
X0199158Y0139670D01*
X0202573Y0138755D01*
X0206903Y0141255D01*
X0207818Y0144670D01*
X0200318Y0157660D01*
X0196903Y0158575D01*
X0192573Y0156075D01*
X0191658Y0152660D01*
X0188243Y0153575D01*
X0183913Y0151075D01*
X0182998Y0147660D01*
X0179583Y0148575D01*
X0175252Y0146075D01*
X0174337Y0142660D01*
X0170922Y0143575D01*
X0166592Y0141075D01*
X0165677Y0137660D01*
X0108258Y0189893D02*
X0108258Y0199893D01*
X0108256Y0199953D01*
X0108251Y0200014D01*
X0108242Y0200073D01*
X0108229Y0200132D01*
X0108213Y0200191D01*
X0108193Y0200248D01*
X0108170Y0200303D01*
X0108143Y0200358D01*
X0108114Y0200410D01*
X0108081Y0200461D01*
X0108045Y0200510D01*
X0108007Y0200556D01*
X0107965Y0200600D01*
X0107921Y0200642D01*
X0107875Y0200680D01*
X0107826Y0200716D01*
X0107775Y0200749D01*
X0107723Y0200778D01*
X0107668Y0200805D01*
X0107613Y0200828D01*
X0107556Y0200848D01*
X0107497Y0200864D01*
X0107438Y0200877D01*
X0107379Y0200886D01*
X0107318Y0200891D01*
X0107258Y0200893D01*
X0101258Y0200893D01*
X0101198Y0200891D01*
X0101137Y0200886D01*
X0101078Y0200877D01*
X0101019Y0200864D01*
X0100960Y0200848D01*
X0100903Y0200828D01*
X0100848Y0200805D01*
X0100793Y0200778D01*
X0100741Y0200749D01*
X0100690Y0200716D01*
X0100641Y0200680D01*
X0100595Y0200642D01*
X0100551Y0200600D01*
X0100509Y0200556D01*
X0100471Y0200510D01*
X0100435Y0200461D01*
X0100402Y0200410D01*
X0100373Y0200358D01*
X0100346Y0200303D01*
X0100323Y0200248D01*
X0100303Y0200191D01*
X0100287Y0200132D01*
X0100274Y0200073D01*
X0100265Y0200014D01*
X0100260Y0199953D01*
X0100258Y0199893D01*
X0100258Y0189893D01*
X0100260Y0189833D01*
X0100265Y0189772D01*
X0100274Y0189713D01*
X0100287Y0189654D01*
X0100303Y0189595D01*
X0100323Y0189538D01*
X0100346Y0189483D01*
X0100373Y0189428D01*
X0100402Y0189376D01*
X0100435Y0189325D01*
X0100471Y0189276D01*
X0100509Y0189230D01*
X0100551Y0189186D01*
X0100595Y0189144D01*
X0100641Y0189106D01*
X0100690Y0189070D01*
X0100741Y0189037D01*
X0100793Y0189008D01*
X0100848Y0188981D01*
X0100903Y0188958D01*
X0100960Y0188938D01*
X0101019Y0188922D01*
X0101078Y0188909D01*
X0101137Y0188900D01*
X0101198Y0188895D01*
X0101258Y0188893D01*
X0107258Y0188893D01*
X0107318Y0188895D01*
X0107379Y0188900D01*
X0107438Y0188909D01*
X0107497Y0188922D01*
X0107556Y0188938D01*
X0107613Y0188958D01*
X0107668Y0188981D01*
X0107723Y0189008D01*
X0107775Y0189037D01*
X0107826Y0189070D01*
X0107875Y0189106D01*
X0107921Y0189144D01*
X0107965Y0189186D01*
X0108007Y0189230D01*
X0108045Y0189276D01*
X0108081Y0189325D01*
X0108114Y0189376D01*
X0108143Y0189428D01*
X0108170Y0189483D01*
X0108193Y0189538D01*
X0108213Y0189595D01*
X0108229Y0189654D01*
X0108242Y0189713D01*
X0108251Y0189772D01*
X0108256Y0189833D01*
X0108258Y0189893D01*
X0151981Y0224448D02*
X0151981Y0230448D01*
X0151983Y0230508D01*
X0151988Y0230569D01*
X0151997Y0230628D01*
X0152010Y0230687D01*
X0152026Y0230746D01*
X0152046Y0230803D01*
X0152069Y0230858D01*
X0152096Y0230913D01*
X0152125Y0230965D01*
X0152158Y0231016D01*
X0152194Y0231065D01*
X0152232Y0231111D01*
X0152274Y0231155D01*
X0152318Y0231197D01*
X0152364Y0231235D01*
X0152413Y0231271D01*
X0152464Y0231304D01*
X0152516Y0231333D01*
X0152571Y0231360D01*
X0152626Y0231383D01*
X0152683Y0231403D01*
X0152742Y0231419D01*
X0152801Y0231432D01*
X0152860Y0231441D01*
X0152921Y0231446D01*
X0152981Y0231448D01*
X0162981Y0231448D01*
X0163041Y0231446D01*
X0163102Y0231441D01*
X0163161Y0231432D01*
X0163220Y0231419D01*
X0163279Y0231403D01*
X0163336Y0231383D01*
X0163391Y0231360D01*
X0163446Y0231333D01*
X0163498Y0231304D01*
X0163549Y0231271D01*
X0163598Y0231235D01*
X0163644Y0231197D01*
X0163688Y0231155D01*
X0163730Y0231111D01*
X0163768Y0231065D01*
X0163804Y0231016D01*
X0163837Y0230965D01*
X0163866Y0230913D01*
X0163893Y0230858D01*
X0163916Y0230803D01*
X0163936Y0230746D01*
X0163952Y0230687D01*
X0163965Y0230628D01*
X0163974Y0230569D01*
X0163979Y0230508D01*
X0163981Y0230448D01*
X0163981Y0224448D01*
X0163979Y0224388D01*
X0163974Y0224327D01*
X0163965Y0224268D01*
X0163952Y0224209D01*
X0163936Y0224150D01*
X0163916Y0224093D01*
X0163893Y0224038D01*
X0163866Y0223983D01*
X0163837Y0223931D01*
X0163804Y0223880D01*
X0163768Y0223831D01*
X0163730Y0223785D01*
X0163688Y0223741D01*
X0163644Y0223699D01*
X0163598Y0223661D01*
X0163549Y0223625D01*
X0163498Y0223592D01*
X0163446Y0223563D01*
X0163391Y0223536D01*
X0163336Y0223513D01*
X0163279Y0223493D01*
X0163220Y0223477D01*
X0163161Y0223464D01*
X0163102Y0223455D01*
X0163041Y0223450D01*
X0162981Y0223448D01*
X0152981Y0223448D01*
X0152921Y0223450D01*
X0152860Y0223455D01*
X0152801Y0223464D01*
X0152742Y0223477D01*
X0152683Y0223493D01*
X0152626Y0223513D01*
X0152571Y0223536D01*
X0152516Y0223563D01*
X0152464Y0223592D01*
X0152413Y0223625D01*
X0152364Y0223661D01*
X0152318Y0223699D01*
X0152274Y0223741D01*
X0152232Y0223785D01*
X0152194Y0223831D01*
X0152158Y0223880D01*
X0152125Y0223931D01*
X0152096Y0223983D01*
X0152069Y0224038D01*
X0152046Y0224093D01*
X0152026Y0224150D01*
X0152010Y0224209D01*
X0151997Y0224268D01*
X0151988Y0224327D01*
X0151983Y0224388D01*
X0151981Y0224448D01*
X0177392Y0233475D02*
X0176477Y0236890D01*
X0183977Y0249881D01*
X0187392Y0250796D01*
X0191722Y0248296D01*
X0192637Y0244881D01*
X0196052Y0245796D01*
X0200383Y0243296D01*
X0201298Y0239881D01*
X0204713Y0240796D01*
X0209043Y0238296D01*
X0209958Y0234881D01*
X0213373Y0235796D01*
X0217703Y0233296D01*
X0218618Y0229881D01*
X0211118Y0216890D01*
X0207703Y0215975D01*
X0203373Y0218475D01*
X0202458Y0221890D01*
X0199043Y0220975D01*
X0194713Y0223475D01*
X0193798Y0226890D01*
X0190383Y0225975D01*
X0186052Y0228475D01*
X0185137Y0231890D01*
X0181722Y0230975D01*
X0177392Y0233475D01*
D18*
X0161918Y0217192D03*
X0118823Y0167161D03*
X0221631Y0151233D03*
X0222447Y0228247D03*
D19*
X0152351Y0199141D03*
D20*
X0100634Y0286128D02*
X0107453Y0290065D01*
X0103516Y0296885D02*
X0096697Y0292948D01*
X0095713Y0293970D02*
X0095715Y0294009D01*
X0095721Y0294048D01*
X0095731Y0294086D01*
X0095744Y0294123D01*
X0095761Y0294158D01*
X0095781Y0294192D01*
X0095805Y0294223D01*
X0095832Y0294252D01*
X0095861Y0294278D01*
X0095893Y0294301D01*
X0095927Y0294321D01*
X0095963Y0294337D01*
X0096000Y0294349D01*
X0096039Y0294358D01*
X0096078Y0294363D01*
X0096117Y0294364D01*
X0096156Y0294361D01*
X0096195Y0294354D01*
X0096232Y0294343D01*
X0096269Y0294329D01*
X0096304Y0294311D01*
X0096337Y0294290D01*
X0096368Y0294265D01*
X0096396Y0294238D01*
X0096421Y0294208D01*
X0096443Y0294175D01*
X0096462Y0294141D01*
X0096477Y0294105D01*
X0096489Y0294067D01*
X0096497Y0294029D01*
X0096501Y0293990D01*
X0096501Y0293950D01*
X0096497Y0293911D01*
X0096489Y0293873D01*
X0096477Y0293835D01*
X0096462Y0293799D01*
X0096443Y0293765D01*
X0096421Y0293732D01*
X0096396Y0293702D01*
X0096368Y0293675D01*
X0096337Y0293650D01*
X0096304Y0293629D01*
X0096269Y0293611D01*
X0096232Y0293597D01*
X0096195Y0293586D01*
X0096156Y0293579D01*
X0096117Y0293576D01*
X0096078Y0293577D01*
X0096039Y0293582D01*
X0096000Y0293591D01*
X0095963Y0293603D01*
X0095927Y0293619D01*
X0095893Y0293639D01*
X0095861Y0293662D01*
X0095832Y0293688D01*
X0095805Y0293717D01*
X0095781Y0293748D01*
X0095761Y0293782D01*
X0095744Y0293817D01*
X0095731Y0293854D01*
X0095721Y0293892D01*
X0095715Y0293931D01*
X0095713Y0293970D01*
X0100634Y0092312D02*
X0107453Y0088375D01*
X0103516Y0081555D02*
X0096697Y0085492D01*
X0102532Y0080533D02*
X0102534Y0080572D01*
X0102540Y0080611D01*
X0102550Y0080649D01*
X0102563Y0080686D01*
X0102580Y0080721D01*
X0102600Y0080755D01*
X0102624Y0080786D01*
X0102651Y0080815D01*
X0102680Y0080841D01*
X0102712Y0080864D01*
X0102746Y0080884D01*
X0102782Y0080900D01*
X0102819Y0080912D01*
X0102858Y0080921D01*
X0102897Y0080926D01*
X0102936Y0080927D01*
X0102975Y0080924D01*
X0103014Y0080917D01*
X0103051Y0080906D01*
X0103088Y0080892D01*
X0103123Y0080874D01*
X0103156Y0080853D01*
X0103187Y0080828D01*
X0103215Y0080801D01*
X0103240Y0080771D01*
X0103262Y0080738D01*
X0103281Y0080704D01*
X0103296Y0080668D01*
X0103308Y0080630D01*
X0103316Y0080592D01*
X0103320Y0080553D01*
X0103320Y0080513D01*
X0103316Y0080474D01*
X0103308Y0080436D01*
X0103296Y0080398D01*
X0103281Y0080362D01*
X0103262Y0080328D01*
X0103240Y0080295D01*
X0103215Y0080265D01*
X0103187Y0080238D01*
X0103156Y0080213D01*
X0103123Y0080192D01*
X0103088Y0080174D01*
X0103051Y0080160D01*
X0103014Y0080149D01*
X0102975Y0080142D01*
X0102936Y0080139D01*
X0102897Y0080140D01*
X0102858Y0080145D01*
X0102819Y0080154D01*
X0102782Y0080166D01*
X0102746Y0080182D01*
X0102712Y0080202D01*
X0102680Y0080225D01*
X0102651Y0080251D01*
X0102624Y0080280D01*
X0102600Y0080311D01*
X0102580Y0080345D01*
X0102563Y0080380D01*
X0102550Y0080417D01*
X0102540Y0080455D01*
X0102534Y0080494D01*
X0102532Y0080533D01*
X0275304Y0185283D02*
X0275304Y0193157D01*
X0283178Y0193157D02*
X0283178Y0185283D01*
X0283965Y0193157D02*
X0283967Y0193196D01*
X0283973Y0193235D01*
X0283983Y0193273D01*
X0283996Y0193310D01*
X0284013Y0193345D01*
X0284033Y0193379D01*
X0284057Y0193410D01*
X0284084Y0193439D01*
X0284113Y0193465D01*
X0284145Y0193488D01*
X0284179Y0193508D01*
X0284215Y0193524D01*
X0284252Y0193536D01*
X0284291Y0193545D01*
X0284330Y0193550D01*
X0284369Y0193551D01*
X0284408Y0193548D01*
X0284447Y0193541D01*
X0284484Y0193530D01*
X0284521Y0193516D01*
X0284556Y0193498D01*
X0284589Y0193477D01*
X0284620Y0193452D01*
X0284648Y0193425D01*
X0284673Y0193395D01*
X0284695Y0193362D01*
X0284714Y0193328D01*
X0284729Y0193292D01*
X0284741Y0193254D01*
X0284749Y0193216D01*
X0284753Y0193177D01*
X0284753Y0193137D01*
X0284749Y0193098D01*
X0284741Y0193060D01*
X0284729Y0193022D01*
X0284714Y0192986D01*
X0284695Y0192952D01*
X0284673Y0192919D01*
X0284648Y0192889D01*
X0284620Y0192862D01*
X0284589Y0192837D01*
X0284556Y0192816D01*
X0284521Y0192798D01*
X0284484Y0192784D01*
X0284447Y0192773D01*
X0284408Y0192766D01*
X0284369Y0192763D01*
X0284330Y0192764D01*
X0284291Y0192769D01*
X0284252Y0192778D01*
X0284215Y0192790D01*
X0284179Y0192806D01*
X0284145Y0192826D01*
X0284113Y0192849D01*
X0284084Y0192875D01*
X0284057Y0192904D01*
X0284033Y0192935D01*
X0284013Y0192969D01*
X0283996Y0193004D01*
X0283983Y0193041D01*
X0283973Y0193079D01*
X0283967Y0193118D01*
X0283965Y0193157D01*
D21*
X0104843Y0182548D03*
M02*
