G75*
%MOIN*%
%OFA0B0*%
%FSLAX25Y25*%
%IPPOS*%
%LPD*%
%AMOC8*
5,1,8,0,0,1.08239X$1,22.5*
%
%ADD10C,0.07099*%
%ADD11R,0.08200X0.08200*%
%ADD12C,0.08200*%
%ADD13C,0.01640*%
%ADD14R,0.05131X0.04737*%
%ADD15C,0.17005*%
D10*
X0198493Y0173315D03*
X0206367Y0173315D03*
D11*
G36*
X0191936Y0213644D02*
X0196036Y0220744D01*
X0203136Y0216644D01*
X0199036Y0209544D01*
X0191936Y0213644D01*
G37*
G36*
X0141908Y0241316D02*
X0146008Y0234216D01*
X0138908Y0230116D01*
X0134808Y0237216D01*
X0141908Y0241316D01*
G37*
D12*
X0149568Y0239850D03*
X0157728Y0245716D03*
X0166889Y0249850D03*
X0172055Y0231011D03*
X0180216Y0225144D03*
X0189376Y0221011D03*
X0231209Y0228196D03*
X0241209Y0228196D03*
X0154500Y0134207D03*
X0146340Y0140073D03*
X0137179Y0144207D03*
X0160537Y0110086D03*
X0155537Y0101426D03*
X0092826Y0230165D03*
X0087826Y0238825D03*
D13*
X0168558Y0138352D02*
X0167738Y0137532D01*
X0168441Y0140156D01*
X0170794Y0141514D01*
X0173418Y0140811D01*
X0174776Y0138458D01*
X0174073Y0135834D01*
X0171720Y0134476D01*
X0169096Y0135179D01*
X0167738Y0137532D01*
X0169058Y0137706D01*
X0169497Y0139345D01*
X0170968Y0140194D01*
X0172607Y0139755D01*
X0173456Y0138284D01*
X0173017Y0136645D01*
X0171546Y0135796D01*
X0169907Y0136235D01*
X0169058Y0137706D01*
X0170378Y0137879D01*
X0170554Y0138535D01*
X0171141Y0138874D01*
X0171797Y0138698D01*
X0172136Y0138111D01*
X0171960Y0137455D01*
X0171373Y0137116D01*
X0170717Y0137292D01*
X0170378Y0137879D01*
X0173558Y0129692D02*
X0172738Y0128872D01*
X0173441Y0131496D01*
X0175794Y0132854D01*
X0178418Y0132151D01*
X0179776Y0129798D01*
X0179073Y0127174D01*
X0176720Y0125816D01*
X0174096Y0126519D01*
X0172738Y0128872D01*
X0174058Y0129046D01*
X0174497Y0130685D01*
X0175968Y0131534D01*
X0177607Y0131095D01*
X0178456Y0129624D01*
X0178017Y0127985D01*
X0176546Y0127136D01*
X0174907Y0127575D01*
X0174058Y0129046D01*
X0175378Y0129219D01*
X0175554Y0129875D01*
X0176141Y0130214D01*
X0176797Y0130038D01*
X0177136Y0129451D01*
X0176960Y0128795D01*
X0176373Y0128456D01*
X0175717Y0128632D01*
X0175378Y0129219D01*
X0182219Y0134692D02*
X0181399Y0133872D01*
X0182102Y0136496D01*
X0184455Y0137854D01*
X0187079Y0137151D01*
X0188437Y0134798D01*
X0187734Y0132174D01*
X0185381Y0130816D01*
X0182757Y0131519D01*
X0181399Y0133872D01*
X0182719Y0134046D01*
X0183158Y0135685D01*
X0184629Y0136534D01*
X0186268Y0136095D01*
X0187117Y0134624D01*
X0186678Y0132985D01*
X0185207Y0132136D01*
X0183568Y0132575D01*
X0182719Y0134046D01*
X0184039Y0134219D01*
X0184215Y0134875D01*
X0184802Y0135214D01*
X0185458Y0135038D01*
X0185797Y0134451D01*
X0185621Y0133795D01*
X0185034Y0133456D01*
X0184378Y0133632D01*
X0184039Y0134219D01*
X0177219Y0143352D02*
X0176399Y0142532D01*
X0177102Y0145156D01*
X0179455Y0146514D01*
X0182079Y0145811D01*
X0183437Y0143458D01*
X0182734Y0140834D01*
X0180381Y0139476D01*
X0177757Y0140179D01*
X0176399Y0142532D01*
X0177719Y0142706D01*
X0178158Y0144345D01*
X0179629Y0145194D01*
X0181268Y0144755D01*
X0182117Y0143284D01*
X0181678Y0141645D01*
X0180207Y0140796D01*
X0178568Y0141235D01*
X0177719Y0142706D01*
X0179039Y0142879D01*
X0179215Y0143535D01*
X0179802Y0143874D01*
X0180458Y0143698D01*
X0180797Y0143111D01*
X0180621Y0142455D01*
X0180034Y0142116D01*
X0179378Y0142292D01*
X0179039Y0142879D01*
X0185879Y0148352D02*
X0185059Y0147532D01*
X0185762Y0150156D01*
X0188115Y0151514D01*
X0190739Y0150811D01*
X0192097Y0148458D01*
X0191394Y0145834D01*
X0189041Y0144476D01*
X0186417Y0145179D01*
X0185059Y0147532D01*
X0186379Y0147706D01*
X0186818Y0149345D01*
X0188289Y0150194D01*
X0189928Y0149755D01*
X0190777Y0148284D01*
X0190338Y0146645D01*
X0188867Y0145796D01*
X0187228Y0146235D01*
X0186379Y0147706D01*
X0187699Y0147879D01*
X0187875Y0148535D01*
X0188462Y0148874D01*
X0189118Y0148698D01*
X0189457Y0148111D01*
X0189281Y0147455D01*
X0188694Y0147116D01*
X0188038Y0147292D01*
X0187699Y0147879D01*
X0190879Y0139692D02*
X0190059Y0138872D01*
X0190762Y0141496D01*
X0193115Y0142854D01*
X0195739Y0142151D01*
X0197097Y0139798D01*
X0196394Y0137174D01*
X0194041Y0135816D01*
X0191417Y0136519D01*
X0190059Y0138872D01*
X0191379Y0139046D01*
X0191818Y0140685D01*
X0193289Y0141534D01*
X0194928Y0141095D01*
X0195777Y0139624D01*
X0195338Y0137985D01*
X0193867Y0137136D01*
X0192228Y0137575D01*
X0191379Y0139046D01*
X0192699Y0139219D01*
X0192875Y0139875D01*
X0193462Y0140214D01*
X0194118Y0140038D01*
X0194457Y0139451D01*
X0194281Y0138795D01*
X0193694Y0138456D01*
X0193038Y0138632D01*
X0192699Y0139219D01*
X0199539Y0144692D02*
X0198719Y0143872D01*
X0199422Y0146496D01*
X0201775Y0147854D01*
X0204399Y0147151D01*
X0205757Y0144798D01*
X0205054Y0142174D01*
X0202701Y0140816D01*
X0200077Y0141519D01*
X0198719Y0143872D01*
X0200039Y0144046D01*
X0200478Y0145685D01*
X0201949Y0146534D01*
X0203588Y0146095D01*
X0204437Y0144624D01*
X0203998Y0142985D01*
X0202527Y0142136D01*
X0200888Y0142575D01*
X0200039Y0144046D01*
X0201359Y0144219D01*
X0201535Y0144875D01*
X0202122Y0145214D01*
X0202778Y0145038D01*
X0203117Y0144451D01*
X0202941Y0143795D01*
X0202354Y0143456D01*
X0201698Y0143632D01*
X0201359Y0144219D01*
X0194539Y0153352D02*
X0193719Y0152532D01*
X0194422Y0155156D01*
X0196775Y0156514D01*
X0199399Y0155811D01*
X0200757Y0153458D01*
X0200054Y0150834D01*
X0197701Y0149476D01*
X0195077Y0150179D01*
X0193719Y0152532D01*
X0195039Y0152706D01*
X0195478Y0154345D01*
X0196949Y0155194D01*
X0198588Y0154755D01*
X0199437Y0153284D01*
X0198998Y0151645D01*
X0197527Y0150796D01*
X0195888Y0151235D01*
X0195039Y0152706D01*
X0196359Y0152879D01*
X0196535Y0153535D01*
X0197122Y0153874D01*
X0197778Y0153698D01*
X0198117Y0153111D01*
X0197941Y0152455D01*
X0197354Y0152116D01*
X0196698Y0152292D01*
X0196359Y0152879D01*
X0209379Y0219559D02*
X0210199Y0218739D01*
X0207575Y0218036D01*
X0205222Y0219394D01*
X0204519Y0222018D01*
X0205877Y0224371D01*
X0208501Y0225074D01*
X0210854Y0223716D01*
X0211557Y0221092D01*
X0210199Y0218739D01*
X0209388Y0219795D01*
X0207749Y0219356D01*
X0206278Y0220205D01*
X0205839Y0221844D01*
X0206688Y0223315D01*
X0208327Y0223754D01*
X0209798Y0222905D01*
X0210237Y0221266D01*
X0209388Y0219795D01*
X0208578Y0220852D01*
X0207922Y0220676D01*
X0207335Y0221015D01*
X0207159Y0221671D01*
X0207498Y0222258D01*
X0208154Y0222434D01*
X0208741Y0222095D01*
X0208917Y0221439D01*
X0208578Y0220852D01*
X0214379Y0228219D02*
X0215199Y0227399D01*
X0212575Y0226696D01*
X0210222Y0228054D01*
X0209519Y0230678D01*
X0210877Y0233031D01*
X0213501Y0233734D01*
X0215854Y0232376D01*
X0216557Y0229752D01*
X0215199Y0227399D01*
X0214388Y0228455D01*
X0212749Y0228016D01*
X0211278Y0228865D01*
X0210839Y0230504D01*
X0211688Y0231975D01*
X0213327Y0232414D01*
X0214798Y0231565D01*
X0215237Y0229926D01*
X0214388Y0228455D01*
X0213578Y0229512D01*
X0212922Y0229336D01*
X0212335Y0229675D01*
X0212159Y0230331D01*
X0212498Y0230918D01*
X0213154Y0231094D01*
X0213741Y0230755D01*
X0213917Y0230099D01*
X0213578Y0229512D01*
X0205719Y0233219D02*
X0206539Y0232399D01*
X0203915Y0231696D01*
X0201562Y0233054D01*
X0200859Y0235678D01*
X0202217Y0238031D01*
X0204841Y0238734D01*
X0207194Y0237376D01*
X0207897Y0234752D01*
X0206539Y0232399D01*
X0205728Y0233455D01*
X0204089Y0233016D01*
X0202618Y0233865D01*
X0202179Y0235504D01*
X0203028Y0236975D01*
X0204667Y0237414D01*
X0206138Y0236565D01*
X0206577Y0234926D01*
X0205728Y0233455D01*
X0204918Y0234512D01*
X0204262Y0234336D01*
X0203675Y0234675D01*
X0203499Y0235331D01*
X0203838Y0235918D01*
X0204494Y0236094D01*
X0205081Y0235755D01*
X0205257Y0235099D01*
X0204918Y0234512D01*
X0200719Y0224559D02*
X0201539Y0223739D01*
X0198915Y0223036D01*
X0196562Y0224394D01*
X0195859Y0227018D01*
X0197217Y0229371D01*
X0199841Y0230074D01*
X0202194Y0228716D01*
X0202897Y0226092D01*
X0201539Y0223739D01*
X0200728Y0224795D01*
X0199089Y0224356D01*
X0197618Y0225205D01*
X0197179Y0226844D01*
X0198028Y0228315D01*
X0199667Y0228754D01*
X0201138Y0227905D01*
X0201577Y0226266D01*
X0200728Y0224795D01*
X0199918Y0225852D01*
X0199262Y0225676D01*
X0198675Y0226015D01*
X0198499Y0226671D01*
X0198838Y0227258D01*
X0199494Y0227434D01*
X0200081Y0227095D01*
X0200257Y0226439D01*
X0199918Y0225852D01*
X0192059Y0229559D02*
X0192879Y0228739D01*
X0190255Y0228036D01*
X0187902Y0229394D01*
X0187199Y0232018D01*
X0188557Y0234371D01*
X0191181Y0235074D01*
X0193534Y0233716D01*
X0194237Y0231092D01*
X0192879Y0228739D01*
X0192068Y0229795D01*
X0190429Y0229356D01*
X0188958Y0230205D01*
X0188519Y0231844D01*
X0189368Y0233315D01*
X0191007Y0233754D01*
X0192478Y0232905D01*
X0192917Y0231266D01*
X0192068Y0229795D01*
X0191258Y0230852D01*
X0190602Y0230676D01*
X0190015Y0231015D01*
X0189839Y0231671D01*
X0190178Y0232258D01*
X0190834Y0232434D01*
X0191421Y0232095D01*
X0191597Y0231439D01*
X0191258Y0230852D01*
X0197059Y0238219D02*
X0197879Y0237399D01*
X0195255Y0236696D01*
X0192902Y0238054D01*
X0192199Y0240678D01*
X0193557Y0243031D01*
X0196181Y0243734D01*
X0198534Y0242376D01*
X0199237Y0239752D01*
X0197879Y0237399D01*
X0197068Y0238455D01*
X0195429Y0238016D01*
X0193958Y0238865D01*
X0193519Y0240504D01*
X0194368Y0241975D01*
X0196007Y0242414D01*
X0197478Y0241565D01*
X0197917Y0239926D01*
X0197068Y0238455D01*
X0196258Y0239512D01*
X0195602Y0239336D01*
X0195015Y0239675D01*
X0194839Y0240331D01*
X0195178Y0240918D01*
X0195834Y0241094D01*
X0196421Y0240755D01*
X0196597Y0240099D01*
X0196258Y0239512D01*
X0188398Y0243219D02*
X0189218Y0242399D01*
X0186594Y0241696D01*
X0184241Y0243054D01*
X0183538Y0245678D01*
X0184896Y0248031D01*
X0187520Y0248734D01*
X0189873Y0247376D01*
X0190576Y0244752D01*
X0189218Y0242399D01*
X0188407Y0243455D01*
X0186768Y0243016D01*
X0185297Y0243865D01*
X0184858Y0245504D01*
X0185707Y0246975D01*
X0187346Y0247414D01*
X0188817Y0246565D01*
X0189256Y0244926D01*
X0188407Y0243455D01*
X0187597Y0244512D01*
X0186941Y0244336D01*
X0186354Y0244675D01*
X0186178Y0245331D01*
X0186517Y0245918D01*
X0187173Y0246094D01*
X0187760Y0245755D01*
X0187936Y0245099D01*
X0187597Y0244512D01*
X0183398Y0234559D02*
X0184218Y0233739D01*
X0181594Y0233036D01*
X0179241Y0234394D01*
X0178538Y0237018D01*
X0179896Y0239371D01*
X0182520Y0240074D01*
X0184873Y0238716D01*
X0185576Y0236092D01*
X0184218Y0233739D01*
X0183407Y0234795D01*
X0181768Y0234356D01*
X0180297Y0235205D01*
X0179858Y0236844D01*
X0180707Y0238315D01*
X0182346Y0238754D01*
X0183817Y0237905D01*
X0184256Y0236266D01*
X0183407Y0234795D01*
X0182597Y0235852D01*
X0181941Y0235676D01*
X0181354Y0236015D01*
X0181178Y0236671D01*
X0181517Y0237258D01*
X0182173Y0237434D01*
X0182760Y0237095D01*
X0182936Y0236439D01*
X0182597Y0235852D01*
D14*
G36*
X0172494Y0171251D02*
X0176121Y0167624D01*
X0172772Y0164275D01*
X0169145Y0167902D01*
X0172494Y0171251D01*
G37*
G36*
X0177227Y0166518D02*
X0180854Y0162891D01*
X0177505Y0159542D01*
X0173878Y0163169D01*
X0177227Y0166518D01*
G37*
D15*
X0071389Y0104650D03*
X0056046Y0113508D03*
X0086327Y0141976D03*
X0132761Y0069217D03*
X0148104Y0060359D03*
X0235933Y0149850D03*
X0279241Y0153787D03*
X0279241Y0136070D03*
X0279241Y0224653D03*
X0279241Y0242370D03*
X0148104Y0318081D03*
X0132761Y0309223D03*
X0071389Y0273790D03*
X0056046Y0264932D03*
X0106012Y0216779D03*
M02*
