%
M48
M72
T01C0.01200
T02C0.03346
T03C0.03937
T04C0.04000
T05C0.05118
T06C0.12205
%
T01
X54600Y58600
X61600Y58600
X69600Y71100
X70600Y87100
X69700Y94700
X67600Y98600
X74300Y101300
X74100Y105600
X70600Y108100
X60100Y119100
X49600Y120100
X42600Y120100
X40600Y110100
X52600Y101600
X56600Y87100
X48100Y72100
X26100Y83600
X19600Y84100
X13100Y85100
X11100Y91600
X9600Y102600
X10600Y110100
X13100Y117600
X15600Y128100
X28100Y120600
X32100Y96100
X63600Y134100
X76600Y131100
X81600Y127100
X81600Y122100
X87600Y132100
X94100Y128100
X94100Y123100
X103600Y126100
X107100Y121100
X103600Y116600
X96600Y112100
X97600Y108100
X92100Y98100
X96100Y94600
X104100Y88100
X110100Y88100
X115100Y101100
X120600Y103100
X131600Y110100
X138600Y107100
X140600Y111100
X140600Y116100
X140600Y122600
X134600Y122600
X140100Y129100
X135600Y132100
X129100Y140600
X127600Y147100
X124600Y150100
X121600Y147100
X118600Y150100
X114600Y154100
X111100Y148100
X98600Y148100
X90100Y152600
X88600Y148600
X84100Y149100
X82600Y154100
X85100Y158600
X77600Y152600
X75600Y148600
X70600Y147100
X66600Y152100
X63100Y154600
X59100Y152100
X61100Y159600
X66100Y159100
X71600Y154100
X94100Y136600
X117600Y126600
X130600Y150100
X124600Y159100
X125100Y164100
X120100Y164600
X114100Y164600
X107600Y164100
X107600Y171100
X108100Y179600
X111600Y185100
X119600Y185100
X124100Y190100
X125100Y194100
X130100Y193100
X135600Y192600
X147100Y187600
X151600Y185100
X152600Y179600
X156600Y177100
X160600Y179100
X156600Y182600
X152100Y174100
X148100Y162600
X144600Y158600
X148600Y155100
X143600Y153100
X136100Y165600
X128600Y172100
X128100Y176100
X129100Y180600
X124100Y173100
X100100Y180100
X97600Y185100
X98600Y172600
X98600Y163100
X84100Y179100
X82100Y189100
X83600Y194100
X78100Y192600
X71600Y190600
X73600Y185100
X65100Y188100
X58600Y183600
X53100Y179100
X101100Y198100
X108600Y198100
X147600Y129100
X144600Y101100
X144600Y97100
X144100Y87600
X151100Y81100
X154600Y77100
X157600Y81100
X135100Y101100
X117100Y75100
X131100Y73600
X93600Y75100
X77100Y92600
X82700Y99000
X84600Y109100
X86600Y112100
X63600Y27600
X145600Y26100
X191100Y137600
T02
X32568Y63929
X27577Y74633
T03
X119120Y40360
T04
X65600Y114100
X55600Y114100
X57545Y127592
X47545Y128592
X37545Y127592
X37631Y138301
X47631Y139301
X57631Y138301
X27631Y139301
X136600Y147100
X146600Y147100
T05
X89592Y40360
T06
X45970Y43470
X45970Y161580
X164080Y161580
X164080Y43470
M30
