G75*
%MOIN*%
%OFA0B0*%
%FSLAX25Y25*%
%IPPOS*%
%LPD*%
%AMOC8*
5,1,8,0,0,1.08239X$1,22.5*
%
%ADD10C,0.00000*%
%ADD11C,0.00300*%
%ADD12R,0.04800X0.00300*%
%ADD13R,0.06000X0.00300*%
%ADD14R,0.09900X0.00300*%
%ADD15R,0.12300X0.00300*%
%ADD16R,0.13800X0.00300*%
%ADD17R,0.13500X0.00300*%
%ADD18R,0.12600X0.00300*%
%ADD19R,0.15000X0.00300*%
%ADD20R,0.17100X0.00300*%
%ADD21R,0.18900X0.00300*%
%ADD22R,0.20700X0.00300*%
%ADD23R,0.21600X0.00300*%
%ADD24R,0.17400X0.00300*%
%ADD25R,0.18000X0.00300*%
%ADD26R,0.19800X0.00300*%
%ADD27R,0.22200X0.00300*%
%ADD28R,0.23400X0.00300*%
%ADD29R,0.24900X0.00300*%
%ADD30R,0.26400X0.00300*%
%ADD31R,0.27000X0.00300*%
%ADD32R,0.13200X0.00300*%
%ADD33R,0.12000X0.00300*%
%ADD34R,0.11100X0.00300*%
%ADD35R,0.10500X0.00300*%
%ADD36R,0.09000X0.00300*%
%ADD37R,0.08700X0.00300*%
%ADD38R,0.08100X0.00300*%
%ADD39R,0.07800X0.00300*%
%ADD40R,0.07500X0.00300*%
%ADD41R,0.06900X0.00300*%
%ADD42R,0.06600X0.00300*%
%ADD43R,0.06300X0.00300*%
%ADD44R,0.05700X0.00300*%
%ADD45R,0.05400X0.00300*%
%ADD46R,0.04500X0.00300*%
%ADD47R,0.04200X0.00300*%
%ADD48R,0.03900X0.00300*%
%ADD49R,0.03600X0.00300*%
%ADD50R,0.03300X0.00300*%
%ADD51R,0.03000X0.00300*%
%ADD52R,0.02700X0.00300*%
%ADD53R,0.00300X0.00300*%
%ADD54R,0.00600X0.00300*%
%ADD55R,0.02400X0.00300*%
%ADD56R,0.00900X0.00300*%
%ADD57R,0.02100X0.00300*%
%ADD58R,0.01200X0.00300*%
%ADD59R,0.01800X0.00300*%
%ADD60R,0.01500X0.00300*%
%ADD61R,0.10200X0.00300*%
%ADD62R,0.12900X0.00300*%
%ADD63R,0.15300X0.00300*%
%ADD64R,0.16800X0.00300*%
%ADD65R,0.19200X0.00300*%
%ADD66R,0.20400X0.00300*%
%ADD67R,0.23700X0.00300*%
%ADD68R,0.24300X0.00300*%
%ADD69R,0.25200X0.00300*%
%ADD70R,0.25800X0.00300*%
%ADD71R,0.26100X0.00300*%
%ADD72R,0.26700X0.00300*%
%ADD73R,0.27600X0.00300*%
%ADD74R,0.27900X0.00300*%
%ADD75R,0.28200X0.00300*%
%ADD76R,0.28800X0.00300*%
%ADD77R,0.29100X0.00300*%
%ADD78R,0.29400X0.00300*%
%ADD79R,0.29700X0.00300*%
%ADD80R,0.28500X0.00300*%
%ADD81R,0.24000X0.00300*%
%ADD82R,0.22500X0.00300*%
%ADD83R,0.21300X0.00300*%
%ADD84R,0.20100X0.00300*%
%ADD85R,0.16500X0.00300*%
%ADD86R,0.15600X0.00300*%
%ADD87R,0.14400X0.00300*%
%ADD88R,0.14100X0.00300*%
%ADD89R,0.08400X0.00300*%
%ADD90R,0.05100X0.00300*%
D10*
X0030895Y0063929D02*
X0030897Y0064010D01*
X0030903Y0064092D01*
X0030913Y0064173D01*
X0030927Y0064253D01*
X0030944Y0064332D01*
X0030966Y0064411D01*
X0030991Y0064488D01*
X0031020Y0064565D01*
X0031053Y0064639D01*
X0031090Y0064712D01*
X0031129Y0064783D01*
X0031173Y0064852D01*
X0031219Y0064919D01*
X0031269Y0064983D01*
X0031322Y0065045D01*
X0031378Y0065105D01*
X0031436Y0065161D01*
X0031498Y0065215D01*
X0031562Y0065266D01*
X0031628Y0065313D01*
X0031696Y0065357D01*
X0031767Y0065398D01*
X0031839Y0065435D01*
X0031914Y0065469D01*
X0031989Y0065499D01*
X0032067Y0065525D01*
X0032145Y0065548D01*
X0032224Y0065566D01*
X0032304Y0065581D01*
X0032385Y0065592D01*
X0032466Y0065599D01*
X0032548Y0065602D01*
X0032629Y0065601D01*
X0032710Y0065596D01*
X0032791Y0065587D01*
X0032872Y0065574D01*
X0032952Y0065557D01*
X0033030Y0065537D01*
X0033108Y0065512D01*
X0033185Y0065484D01*
X0033260Y0065452D01*
X0033333Y0065417D01*
X0033404Y0065378D01*
X0033474Y0065335D01*
X0033541Y0065290D01*
X0033607Y0065241D01*
X0033669Y0065189D01*
X0033729Y0065133D01*
X0033786Y0065075D01*
X0033841Y0065015D01*
X0033892Y0064951D01*
X0033940Y0064886D01*
X0033985Y0064818D01*
X0034027Y0064748D01*
X0034065Y0064676D01*
X0034100Y0064602D01*
X0034131Y0064527D01*
X0034158Y0064450D01*
X0034181Y0064372D01*
X0034201Y0064293D01*
X0034217Y0064213D01*
X0034229Y0064132D01*
X0034237Y0064051D01*
X0034241Y0063970D01*
X0034241Y0063888D01*
X0034237Y0063807D01*
X0034229Y0063726D01*
X0034217Y0063645D01*
X0034201Y0063565D01*
X0034181Y0063486D01*
X0034158Y0063408D01*
X0034131Y0063331D01*
X0034100Y0063256D01*
X0034065Y0063182D01*
X0034027Y0063110D01*
X0033985Y0063040D01*
X0033940Y0062972D01*
X0033892Y0062907D01*
X0033841Y0062843D01*
X0033786Y0062783D01*
X0033729Y0062725D01*
X0033669Y0062669D01*
X0033607Y0062617D01*
X0033541Y0062568D01*
X0033474Y0062523D01*
X0033405Y0062480D01*
X0033333Y0062441D01*
X0033260Y0062406D01*
X0033185Y0062374D01*
X0033108Y0062346D01*
X0033030Y0062321D01*
X0032952Y0062301D01*
X0032872Y0062284D01*
X0032791Y0062271D01*
X0032710Y0062262D01*
X0032629Y0062257D01*
X0032548Y0062256D01*
X0032466Y0062259D01*
X0032385Y0062266D01*
X0032304Y0062277D01*
X0032224Y0062292D01*
X0032145Y0062310D01*
X0032067Y0062333D01*
X0031989Y0062359D01*
X0031914Y0062389D01*
X0031839Y0062423D01*
X0031767Y0062460D01*
X0031696Y0062501D01*
X0031628Y0062545D01*
X0031562Y0062592D01*
X0031498Y0062643D01*
X0031436Y0062697D01*
X0031378Y0062753D01*
X0031322Y0062813D01*
X0031269Y0062875D01*
X0031219Y0062939D01*
X0031173Y0063006D01*
X0031129Y0063075D01*
X0031090Y0063146D01*
X0031053Y0063219D01*
X0031020Y0063293D01*
X0030991Y0063370D01*
X0030966Y0063447D01*
X0030944Y0063526D01*
X0030927Y0063605D01*
X0030913Y0063685D01*
X0030903Y0063766D01*
X0030897Y0063848D01*
X0030895Y0063929D01*
X0025904Y0074633D02*
X0025906Y0074714D01*
X0025912Y0074796D01*
X0025922Y0074877D01*
X0025936Y0074957D01*
X0025953Y0075036D01*
X0025975Y0075115D01*
X0026000Y0075192D01*
X0026029Y0075269D01*
X0026062Y0075343D01*
X0026099Y0075416D01*
X0026138Y0075487D01*
X0026182Y0075556D01*
X0026228Y0075623D01*
X0026278Y0075687D01*
X0026331Y0075749D01*
X0026387Y0075809D01*
X0026445Y0075865D01*
X0026507Y0075919D01*
X0026571Y0075970D01*
X0026637Y0076017D01*
X0026705Y0076061D01*
X0026776Y0076102D01*
X0026848Y0076139D01*
X0026923Y0076173D01*
X0026998Y0076203D01*
X0027076Y0076229D01*
X0027154Y0076252D01*
X0027233Y0076270D01*
X0027313Y0076285D01*
X0027394Y0076296D01*
X0027475Y0076303D01*
X0027557Y0076306D01*
X0027638Y0076305D01*
X0027719Y0076300D01*
X0027800Y0076291D01*
X0027881Y0076278D01*
X0027961Y0076261D01*
X0028039Y0076241D01*
X0028117Y0076216D01*
X0028194Y0076188D01*
X0028269Y0076156D01*
X0028342Y0076121D01*
X0028413Y0076082D01*
X0028483Y0076039D01*
X0028550Y0075994D01*
X0028616Y0075945D01*
X0028678Y0075893D01*
X0028738Y0075837D01*
X0028795Y0075779D01*
X0028850Y0075719D01*
X0028901Y0075655D01*
X0028949Y0075590D01*
X0028994Y0075522D01*
X0029036Y0075452D01*
X0029074Y0075380D01*
X0029109Y0075306D01*
X0029140Y0075231D01*
X0029167Y0075154D01*
X0029190Y0075076D01*
X0029210Y0074997D01*
X0029226Y0074917D01*
X0029238Y0074836D01*
X0029246Y0074755D01*
X0029250Y0074674D01*
X0029250Y0074592D01*
X0029246Y0074511D01*
X0029238Y0074430D01*
X0029226Y0074349D01*
X0029210Y0074269D01*
X0029190Y0074190D01*
X0029167Y0074112D01*
X0029140Y0074035D01*
X0029109Y0073960D01*
X0029074Y0073886D01*
X0029036Y0073814D01*
X0028994Y0073744D01*
X0028949Y0073676D01*
X0028901Y0073611D01*
X0028850Y0073547D01*
X0028795Y0073487D01*
X0028738Y0073429D01*
X0028678Y0073373D01*
X0028616Y0073321D01*
X0028550Y0073272D01*
X0028483Y0073227D01*
X0028414Y0073184D01*
X0028342Y0073145D01*
X0028269Y0073110D01*
X0028194Y0073078D01*
X0028117Y0073050D01*
X0028039Y0073025D01*
X0027961Y0073005D01*
X0027881Y0072988D01*
X0027800Y0072975D01*
X0027719Y0072966D01*
X0027638Y0072961D01*
X0027557Y0072960D01*
X0027475Y0072963D01*
X0027394Y0072970D01*
X0027313Y0072981D01*
X0027233Y0072996D01*
X0027154Y0073014D01*
X0027076Y0073037D01*
X0026998Y0073063D01*
X0026923Y0073093D01*
X0026848Y0073127D01*
X0026776Y0073164D01*
X0026705Y0073205D01*
X0026637Y0073249D01*
X0026571Y0073296D01*
X0026507Y0073347D01*
X0026445Y0073401D01*
X0026387Y0073457D01*
X0026331Y0073517D01*
X0026278Y0073579D01*
X0026228Y0073643D01*
X0026182Y0073710D01*
X0026138Y0073779D01*
X0026099Y0073850D01*
X0026062Y0073923D01*
X0026029Y0073997D01*
X0026000Y0074074D01*
X0025975Y0074151D01*
X0025953Y0074230D01*
X0025936Y0074309D01*
X0025922Y0074389D01*
X0025912Y0074470D01*
X0025906Y0074552D01*
X0025904Y0074633D01*
X0087033Y0040360D02*
X0087035Y0040461D01*
X0087041Y0040562D01*
X0087051Y0040663D01*
X0087065Y0040763D01*
X0087083Y0040862D01*
X0087105Y0040961D01*
X0087130Y0041059D01*
X0087160Y0041156D01*
X0087193Y0041251D01*
X0087230Y0041345D01*
X0087271Y0041438D01*
X0087315Y0041529D01*
X0087363Y0041618D01*
X0087415Y0041705D01*
X0087470Y0041790D01*
X0087528Y0041872D01*
X0087589Y0041953D01*
X0087654Y0042031D01*
X0087721Y0042106D01*
X0087791Y0042178D01*
X0087865Y0042248D01*
X0087941Y0042315D01*
X0088019Y0042379D01*
X0088100Y0042439D01*
X0088183Y0042496D01*
X0088269Y0042550D01*
X0088357Y0042601D01*
X0088446Y0042648D01*
X0088537Y0042692D01*
X0088630Y0042731D01*
X0088725Y0042768D01*
X0088820Y0042800D01*
X0088917Y0042829D01*
X0089016Y0042853D01*
X0089114Y0042874D01*
X0089214Y0042891D01*
X0089314Y0042904D01*
X0089415Y0042913D01*
X0089516Y0042918D01*
X0089617Y0042919D01*
X0089718Y0042916D01*
X0089819Y0042909D01*
X0089920Y0042898D01*
X0090020Y0042883D01*
X0090119Y0042864D01*
X0090218Y0042841D01*
X0090315Y0042815D01*
X0090412Y0042784D01*
X0090507Y0042750D01*
X0090600Y0042712D01*
X0090693Y0042670D01*
X0090783Y0042625D01*
X0090872Y0042576D01*
X0090958Y0042524D01*
X0091042Y0042468D01*
X0091125Y0042409D01*
X0091204Y0042347D01*
X0091282Y0042282D01*
X0091356Y0042214D01*
X0091428Y0042142D01*
X0091497Y0042069D01*
X0091563Y0041992D01*
X0091626Y0041913D01*
X0091686Y0041831D01*
X0091742Y0041747D01*
X0091795Y0041661D01*
X0091845Y0041573D01*
X0091891Y0041483D01*
X0091934Y0041392D01*
X0091973Y0041298D01*
X0092008Y0041203D01*
X0092039Y0041107D01*
X0092067Y0041010D01*
X0092091Y0040912D01*
X0092111Y0040813D01*
X0092127Y0040713D01*
X0092139Y0040612D01*
X0092147Y0040512D01*
X0092151Y0040411D01*
X0092151Y0040309D01*
X0092147Y0040208D01*
X0092139Y0040108D01*
X0092127Y0040007D01*
X0092111Y0039907D01*
X0092091Y0039808D01*
X0092067Y0039710D01*
X0092039Y0039613D01*
X0092008Y0039517D01*
X0091973Y0039422D01*
X0091934Y0039328D01*
X0091891Y0039237D01*
X0091845Y0039147D01*
X0091795Y0039059D01*
X0091742Y0038973D01*
X0091686Y0038889D01*
X0091626Y0038807D01*
X0091563Y0038728D01*
X0091497Y0038651D01*
X0091428Y0038578D01*
X0091356Y0038506D01*
X0091282Y0038438D01*
X0091204Y0038373D01*
X0091125Y0038311D01*
X0091042Y0038252D01*
X0090958Y0038196D01*
X0090871Y0038144D01*
X0090783Y0038095D01*
X0090693Y0038050D01*
X0090600Y0038008D01*
X0090507Y0037970D01*
X0090412Y0037936D01*
X0090315Y0037905D01*
X0090218Y0037879D01*
X0090119Y0037856D01*
X0090020Y0037837D01*
X0089920Y0037822D01*
X0089819Y0037811D01*
X0089718Y0037804D01*
X0089617Y0037801D01*
X0089516Y0037802D01*
X0089415Y0037807D01*
X0089314Y0037816D01*
X0089214Y0037829D01*
X0089114Y0037846D01*
X0089016Y0037867D01*
X0088917Y0037891D01*
X0088820Y0037920D01*
X0088725Y0037952D01*
X0088630Y0037989D01*
X0088537Y0038028D01*
X0088446Y0038072D01*
X0088357Y0038119D01*
X0088269Y0038170D01*
X0088183Y0038224D01*
X0088100Y0038281D01*
X0088019Y0038341D01*
X0087941Y0038405D01*
X0087865Y0038472D01*
X0087791Y0038542D01*
X0087721Y0038614D01*
X0087654Y0038689D01*
X0087589Y0038767D01*
X0087528Y0038848D01*
X0087470Y0038930D01*
X0087415Y0039015D01*
X0087363Y0039102D01*
X0087315Y0039191D01*
X0087271Y0039282D01*
X0087230Y0039375D01*
X0087193Y0039469D01*
X0087160Y0039564D01*
X0087130Y0039661D01*
X0087105Y0039759D01*
X0087083Y0039858D01*
X0087065Y0039957D01*
X0087051Y0040057D01*
X0087041Y0040158D01*
X0087035Y0040259D01*
X0087033Y0040360D01*
X0117151Y0040360D02*
X0117153Y0040448D01*
X0117159Y0040536D01*
X0117169Y0040624D01*
X0117183Y0040712D01*
X0117200Y0040798D01*
X0117222Y0040884D01*
X0117247Y0040968D01*
X0117277Y0041052D01*
X0117309Y0041134D01*
X0117346Y0041214D01*
X0117386Y0041293D01*
X0117430Y0041370D01*
X0117477Y0041445D01*
X0117527Y0041517D01*
X0117581Y0041588D01*
X0117637Y0041655D01*
X0117697Y0041721D01*
X0117759Y0041783D01*
X0117825Y0041843D01*
X0117892Y0041899D01*
X0117963Y0041953D01*
X0118035Y0042003D01*
X0118110Y0042050D01*
X0118187Y0042094D01*
X0118266Y0042134D01*
X0118346Y0042171D01*
X0118428Y0042203D01*
X0118512Y0042233D01*
X0118596Y0042258D01*
X0118682Y0042280D01*
X0118768Y0042297D01*
X0118856Y0042311D01*
X0118944Y0042321D01*
X0119032Y0042327D01*
X0119120Y0042329D01*
X0119208Y0042327D01*
X0119296Y0042321D01*
X0119384Y0042311D01*
X0119472Y0042297D01*
X0119558Y0042280D01*
X0119644Y0042258D01*
X0119728Y0042233D01*
X0119812Y0042203D01*
X0119894Y0042171D01*
X0119974Y0042134D01*
X0120053Y0042094D01*
X0120130Y0042050D01*
X0120205Y0042003D01*
X0120277Y0041953D01*
X0120348Y0041899D01*
X0120415Y0041843D01*
X0120481Y0041783D01*
X0120543Y0041721D01*
X0120603Y0041655D01*
X0120659Y0041588D01*
X0120713Y0041517D01*
X0120763Y0041445D01*
X0120810Y0041370D01*
X0120854Y0041293D01*
X0120894Y0041214D01*
X0120931Y0041134D01*
X0120963Y0041052D01*
X0120993Y0040968D01*
X0121018Y0040884D01*
X0121040Y0040798D01*
X0121057Y0040712D01*
X0121071Y0040624D01*
X0121081Y0040536D01*
X0121087Y0040448D01*
X0121089Y0040360D01*
X0121087Y0040272D01*
X0121081Y0040184D01*
X0121071Y0040096D01*
X0121057Y0040008D01*
X0121040Y0039922D01*
X0121018Y0039836D01*
X0120993Y0039752D01*
X0120963Y0039668D01*
X0120931Y0039586D01*
X0120894Y0039506D01*
X0120854Y0039427D01*
X0120810Y0039350D01*
X0120763Y0039275D01*
X0120713Y0039203D01*
X0120659Y0039132D01*
X0120603Y0039065D01*
X0120543Y0038999D01*
X0120481Y0038937D01*
X0120415Y0038877D01*
X0120348Y0038821D01*
X0120277Y0038767D01*
X0120205Y0038717D01*
X0120130Y0038670D01*
X0120053Y0038626D01*
X0119974Y0038586D01*
X0119894Y0038549D01*
X0119812Y0038517D01*
X0119728Y0038487D01*
X0119644Y0038462D01*
X0119558Y0038440D01*
X0119472Y0038423D01*
X0119384Y0038409D01*
X0119296Y0038399D01*
X0119208Y0038393D01*
X0119120Y0038391D01*
X0119032Y0038393D01*
X0118944Y0038399D01*
X0118856Y0038409D01*
X0118768Y0038423D01*
X0118682Y0038440D01*
X0118596Y0038462D01*
X0118512Y0038487D01*
X0118428Y0038517D01*
X0118346Y0038549D01*
X0118266Y0038586D01*
X0118187Y0038626D01*
X0118110Y0038670D01*
X0118035Y0038717D01*
X0117963Y0038767D01*
X0117892Y0038821D01*
X0117825Y0038877D01*
X0117759Y0038937D01*
X0117697Y0038999D01*
X0117637Y0039065D01*
X0117581Y0039132D01*
X0117527Y0039203D01*
X0117477Y0039275D01*
X0117430Y0039350D01*
X0117386Y0039427D01*
X0117346Y0039506D01*
X0117309Y0039586D01*
X0117277Y0039668D01*
X0117247Y0039752D01*
X0117222Y0039836D01*
X0117200Y0039922D01*
X0117183Y0040008D01*
X0117169Y0040096D01*
X0117159Y0040184D01*
X0117153Y0040272D01*
X0117151Y0040360D01*
X0105025Y0004100D02*
X0102628Y0004129D01*
X0100233Y0004217D01*
X0097840Y0004363D01*
X0095452Y0004567D01*
X0093070Y0004829D01*
X0090694Y0005149D01*
X0088327Y0005527D01*
X0085970Y0005962D01*
X0083624Y0006455D01*
X0081291Y0007004D01*
X0078972Y0007611D01*
X0076669Y0008273D01*
X0074382Y0008992D01*
X0072114Y0009766D01*
X0069865Y0010594D01*
X0067636Y0011478D01*
X0065430Y0012415D01*
X0063248Y0013406D01*
X0061090Y0014450D01*
X0058958Y0015546D01*
X0056854Y0016694D01*
X0054778Y0017892D01*
X0052732Y0019141D01*
X0050717Y0020439D01*
X0048734Y0021786D01*
X0046785Y0023180D01*
X0044870Y0024622D01*
X0042991Y0026110D01*
X0041149Y0027643D01*
X0039344Y0029221D01*
X0037579Y0030842D01*
X0035853Y0032506D01*
X0034169Y0034211D01*
X0032526Y0035956D01*
X0030926Y0037742D01*
X0029371Y0039565D01*
X0027860Y0041426D01*
X0026395Y0043323D01*
X0024977Y0045256D01*
X0023606Y0047222D01*
X0022284Y0049221D01*
X0021010Y0051251D01*
X0019786Y0053312D01*
X0018613Y0055403D01*
X0017491Y0057521D01*
X0016422Y0059666D01*
X0015404Y0061836D01*
X0014440Y0064031D01*
X0013529Y0066248D01*
X0012673Y0068487D01*
X0011872Y0070745D01*
X0011125Y0073023D01*
X0010435Y0075319D01*
X0009800Y0077630D01*
X0009222Y0079956D01*
X0008701Y0082296D01*
X0008237Y0084647D01*
X0007831Y0087010D01*
X0007482Y0089381D01*
X0007190Y0091760D01*
X0006957Y0094146D01*
X0006782Y0096536D01*
X0006666Y0098930D01*
X0006607Y0101327D01*
X0006607Y0103723D01*
X0006666Y0106120D01*
X0006782Y0108514D01*
X0006957Y0110904D01*
X0007190Y0113290D01*
X0007482Y0115669D01*
X0007831Y0118040D01*
X0008237Y0120403D01*
X0008701Y0122754D01*
X0009222Y0125094D01*
X0009800Y0127420D01*
X0010435Y0129731D01*
X0011125Y0132027D01*
X0011872Y0134305D01*
X0012673Y0136563D01*
X0013529Y0138802D01*
X0014440Y0141019D01*
X0015404Y0143214D01*
X0016422Y0145384D01*
X0017491Y0147529D01*
X0018613Y0149647D01*
X0019786Y0151737D01*
X0021010Y0153799D01*
X0022284Y0155829D01*
X0023606Y0157828D01*
X0024977Y0159794D01*
X0026395Y0161727D01*
X0027860Y0163624D01*
X0029371Y0165485D01*
X0030926Y0167308D01*
X0032526Y0169094D01*
X0034169Y0170839D01*
X0035853Y0172544D01*
X0037579Y0174208D01*
X0039344Y0175829D01*
X0041149Y0177407D01*
X0042991Y0178940D01*
X0044870Y0180428D01*
X0046785Y0181870D01*
X0048734Y0183264D01*
X0050717Y0184611D01*
X0052732Y0185909D01*
X0054778Y0187158D01*
X0056854Y0188356D01*
X0058958Y0189504D01*
X0061090Y0190600D01*
X0063248Y0191644D01*
X0065430Y0192635D01*
X0067636Y0193572D01*
X0069865Y0194456D01*
X0072114Y0195284D01*
X0074382Y0196058D01*
X0076669Y0196777D01*
X0078972Y0197439D01*
X0081291Y0198046D01*
X0083624Y0198595D01*
X0085970Y0199088D01*
X0088327Y0199523D01*
X0090694Y0199901D01*
X0093070Y0200221D01*
X0095452Y0200483D01*
X0097840Y0200687D01*
X0100233Y0200833D01*
X0102628Y0200921D01*
X0105025Y0200950D01*
X0107422Y0200921D01*
X0109817Y0200833D01*
X0112210Y0200687D01*
X0114598Y0200483D01*
X0116980Y0200221D01*
X0119356Y0199901D01*
X0121723Y0199523D01*
X0124080Y0199088D01*
X0126426Y0198595D01*
X0128759Y0198046D01*
X0131078Y0197439D01*
X0133381Y0196777D01*
X0135668Y0196058D01*
X0137936Y0195284D01*
X0140185Y0194456D01*
X0142414Y0193572D01*
X0144620Y0192635D01*
X0146802Y0191644D01*
X0148960Y0190600D01*
X0151092Y0189504D01*
X0153196Y0188356D01*
X0155272Y0187158D01*
X0157318Y0185909D01*
X0159333Y0184611D01*
X0161316Y0183264D01*
X0163265Y0181870D01*
X0165180Y0180428D01*
X0167059Y0178940D01*
X0168901Y0177407D01*
X0170706Y0175829D01*
X0172471Y0174208D01*
X0174197Y0172544D01*
X0175881Y0170839D01*
X0177524Y0169094D01*
X0179124Y0167308D01*
X0180679Y0165485D01*
X0182190Y0163624D01*
X0183655Y0161727D01*
X0185073Y0159794D01*
X0186444Y0157828D01*
X0187766Y0155829D01*
X0189040Y0153799D01*
X0190264Y0151738D01*
X0191437Y0149647D01*
X0192559Y0147529D01*
X0193628Y0145384D01*
X0194646Y0143214D01*
X0195610Y0141019D01*
X0196521Y0138802D01*
X0197377Y0136563D01*
X0198178Y0134305D01*
X0198925Y0132027D01*
X0199615Y0129731D01*
X0200250Y0127420D01*
X0200828Y0125094D01*
X0201349Y0122754D01*
X0201813Y0120403D01*
X0202219Y0118040D01*
X0202568Y0115669D01*
X0202860Y0113290D01*
X0203093Y0110904D01*
X0203268Y0108514D01*
X0203384Y0106120D01*
X0203443Y0103723D01*
X0203443Y0101327D01*
X0203384Y0098930D01*
X0203268Y0096536D01*
X0203093Y0094146D01*
X0202860Y0091760D01*
X0202568Y0089381D01*
X0202219Y0087010D01*
X0201813Y0084647D01*
X0201349Y0082296D01*
X0200828Y0079956D01*
X0200250Y0077630D01*
X0199615Y0075319D01*
X0198925Y0073023D01*
X0198178Y0070745D01*
X0197377Y0068487D01*
X0196521Y0066248D01*
X0195610Y0064031D01*
X0194646Y0061836D01*
X0193628Y0059666D01*
X0192559Y0057521D01*
X0191437Y0055403D01*
X0190264Y0053313D01*
X0189040Y0051251D01*
X0187766Y0049221D01*
X0186444Y0047222D01*
X0185073Y0045256D01*
X0183655Y0043323D01*
X0182190Y0041426D01*
X0180679Y0039565D01*
X0179124Y0037742D01*
X0177524Y0035956D01*
X0175881Y0034211D01*
X0174197Y0032506D01*
X0172471Y0030842D01*
X0170706Y0029221D01*
X0168901Y0027643D01*
X0167059Y0026110D01*
X0165180Y0024622D01*
X0163265Y0023180D01*
X0161316Y0021786D01*
X0159333Y0020439D01*
X0157318Y0019141D01*
X0155272Y0017892D01*
X0153196Y0016694D01*
X0151092Y0015546D01*
X0148960Y0014450D01*
X0146802Y0013406D01*
X0144620Y0012415D01*
X0142414Y0011478D01*
X0140185Y0010594D01*
X0137936Y0009766D01*
X0135668Y0008992D01*
X0133381Y0008273D01*
X0131078Y0007611D01*
X0128759Y0007004D01*
X0126426Y0006455D01*
X0124080Y0005962D01*
X0121723Y0005527D01*
X0119356Y0005149D01*
X0116980Y0004829D01*
X0114598Y0004567D01*
X0112210Y0004363D01*
X0109817Y0004217D01*
X0107422Y0004129D01*
X0105025Y0004100D01*
D11*
X0112908Y0064966D02*
X0112291Y0065583D01*
X0112291Y0068669D01*
X0111070Y0068669D02*
X0109218Y0068669D01*
X0108601Y0068052D01*
X0108601Y0066200D01*
X0107387Y0066200D02*
X0104918Y0068669D01*
X0103704Y0066817D02*
X0103086Y0066817D01*
X0103086Y0066200D01*
X0103704Y0066200D01*
X0103704Y0066817D01*
X0104918Y0066200D02*
X0107387Y0068669D01*
X0111070Y0068669D02*
X0111070Y0066200D01*
X0112908Y0064966D02*
X0113525Y0064966D01*
X0114746Y0066200D02*
X0115981Y0066200D01*
X0115364Y0066200D02*
X0115364Y0068669D01*
X0115981Y0068669D01*
X0117198Y0068669D02*
X0117816Y0068669D01*
X0119050Y0067434D01*
X0119050Y0066200D02*
X0119050Y0068669D01*
X0115364Y0069903D02*
X0115364Y0070520D01*
X0112291Y0070520D02*
X0112291Y0069903D01*
X0101862Y0068052D02*
X0101862Y0066817D01*
X0101245Y0066200D01*
X0099393Y0066200D01*
X0098179Y0066817D02*
X0097562Y0066200D01*
X0096327Y0066200D01*
X0095710Y0066817D01*
X0095710Y0068052D01*
X0096327Y0068669D01*
X0097562Y0068669D01*
X0098179Y0068052D01*
X0098179Y0066817D01*
X0099393Y0068669D02*
X0101245Y0068669D01*
X0101862Y0068052D01*
X0094496Y0068669D02*
X0094496Y0066200D01*
X0093261Y0066200D02*
X0093261Y0068052D01*
X0092644Y0068669D01*
X0092027Y0068052D01*
X0092027Y0066200D01*
X0093261Y0068052D02*
X0093879Y0068669D01*
X0094496Y0068669D01*
D12*
X0096250Y0080800D03*
X0116650Y0093100D03*
X0116950Y0093400D03*
X0088750Y0121000D03*
X0088450Y0121300D03*
D13*
X0089650Y0119800D03*
X0117850Y0115600D03*
X0117850Y0115300D03*
X0117850Y0115000D03*
X0117850Y0114700D03*
X0117850Y0114400D03*
X0117850Y0114100D03*
X0098950Y0081400D03*
X0097750Y0081100D03*
D14*
X0098200Y0081700D03*
X0110500Y0088900D03*
X0103000Y0103900D03*
D15*
X0103000Y0104200D03*
X0097900Y0082000D03*
D16*
X0097750Y0082300D03*
X0102850Y0104500D03*
D17*
X0098800Y0082600D03*
D18*
X0100150Y0082900D03*
X0091450Y0116500D03*
D19*
X0106150Y0087400D03*
X0099550Y0083200D03*
D20*
X0099100Y0083500D03*
X0104800Y0087100D03*
D21*
X0098800Y0083800D03*
D22*
X0098500Y0084100D03*
D23*
X0098350Y0084400D03*
D24*
X0101050Y0084700D03*
X0095350Y0114100D03*
D25*
X0095950Y0113800D03*
X0104050Y0106000D03*
X0101350Y0085000D03*
D26*
X0100750Y0085300D03*
D27*
X0100150Y0085600D03*
D28*
X0099850Y0085900D03*
D29*
X0099700Y0086200D03*
D30*
X0099250Y0086500D03*
D31*
X0099250Y0086800D03*
X0103750Y0108700D03*
D32*
X0092350Y0115900D03*
X0107350Y0087700D03*
D33*
X0108250Y0088000D03*
D34*
X0109000Y0088300D03*
D35*
X0109900Y0088600D03*
D36*
X0111250Y0089200D03*
X0092650Y0116800D03*
D37*
X0111700Y0089500D03*
D38*
X0112300Y0089800D03*
X0116800Y0112900D03*
X0091600Y0117700D03*
D39*
X0112750Y0090100D03*
D40*
X0113200Y0090400D03*
X0103000Y0103600D03*
X0091300Y0118000D03*
X0091000Y0118300D03*
D41*
X0090700Y0118600D03*
X0090400Y0118900D03*
X0117400Y0113200D03*
X0113800Y0090700D03*
D42*
X0114250Y0091000D03*
X0114550Y0091300D03*
D43*
X0115000Y0091600D03*
X0117700Y0113500D03*
X0117700Y0113800D03*
X0090100Y0119200D03*
X0089800Y0119500D03*
D44*
X0118000Y0117400D03*
X0118000Y0117100D03*
X0118000Y0116800D03*
X0118000Y0116500D03*
X0118000Y0116200D03*
X0118000Y0115900D03*
X0115600Y0092200D03*
X0115300Y0091900D03*
D45*
X0116050Y0092500D03*
X0116350Y0092800D03*
X0118150Y0117700D03*
X0118150Y0118000D03*
X0118150Y0118300D03*
X0118150Y0118600D03*
X0118150Y0118900D03*
X0089350Y0120100D03*
X0089050Y0120400D03*
D46*
X0088300Y0121600D03*
X0088000Y0121900D03*
X0117100Y0093700D03*
X0117400Y0094000D03*
X0117700Y0094300D03*
D47*
X0117850Y0094600D03*
X0118150Y0094900D03*
X0087850Y0122200D03*
D48*
X0087700Y0122500D03*
X0118000Y0120100D03*
X0118300Y0120400D03*
X0118600Y0095500D03*
X0118300Y0095200D03*
D49*
X0118750Y0095800D03*
X0119050Y0096100D03*
X0087550Y0122800D03*
D50*
X0087400Y0123100D03*
X0115600Y0112600D03*
X0118600Y0120700D03*
X0119500Y0097000D03*
X0119500Y0096700D03*
X0119200Y0096400D03*
D51*
X0119650Y0097300D03*
X0119950Y0097600D03*
X0119950Y0097900D03*
X0119050Y0119200D03*
X0087250Y0123400D03*
X0086950Y0123700D03*
X0086950Y0124000D03*
D52*
X0086800Y0124300D03*
X0086200Y0117100D03*
X0086500Y0116800D03*
X0120700Y0099400D03*
X0120400Y0098800D03*
X0120400Y0098500D03*
X0120100Y0098200D03*
D53*
X0119500Y0100900D03*
X0119500Y0101200D03*
X0119800Y0102100D03*
X0119800Y0102400D03*
X0119800Y0102700D03*
X0113200Y0098500D03*
X0104500Y0103300D03*
X0101500Y0103300D03*
X0112300Y0112900D03*
X0121600Y0111100D03*
X0121600Y0110800D03*
X0121600Y0110500D03*
X0121600Y0121900D03*
X0120100Y0123100D03*
X0085600Y0127900D03*
X0083800Y0121000D03*
X0083800Y0120700D03*
X0085300Y0113200D03*
D54*
X0085450Y0112900D03*
X0085750Y0112600D03*
X0086350Y0112300D03*
X0086650Y0112000D03*
X0084250Y0120100D03*
X0083950Y0120400D03*
X0085750Y0127300D03*
X0085750Y0127600D03*
X0113950Y0099700D03*
X0113950Y0099400D03*
X0113650Y0099100D03*
X0113350Y0098800D03*
X0114250Y0100000D03*
X0119650Y0101500D03*
X0119650Y0101800D03*
X0119950Y0103000D03*
X0119950Y0103300D03*
X0119950Y0103600D03*
X0119950Y0103900D03*
X0119950Y0104200D03*
X0121750Y0109600D03*
X0121750Y0109900D03*
X0121750Y0110200D03*
X0116650Y0112000D03*
X0121150Y0122200D03*
D55*
X0119050Y0121000D03*
X0119050Y0119500D03*
X0119650Y0112600D03*
X0121150Y0100600D03*
X0121150Y0100300D03*
X0120850Y0100000D03*
X0120850Y0099700D03*
X0120550Y0099100D03*
X0086050Y0117400D03*
X0086650Y0124600D03*
D56*
X0085900Y0126700D03*
X0085900Y0127000D03*
X0084400Y0119800D03*
X0087100Y0111700D03*
X0095200Y0105100D03*
X0114400Y0100600D03*
X0114400Y0100300D03*
X0114700Y0100900D03*
X0120100Y0104500D03*
X0120100Y0104800D03*
X0120100Y0105100D03*
X0120100Y0105400D03*
X0120100Y0105700D03*
X0120100Y0106000D03*
X0121900Y0107800D03*
X0121900Y0108100D03*
X0121900Y0108400D03*
X0121900Y0108700D03*
X0121900Y0109000D03*
X0121900Y0109300D03*
D57*
X0119800Y0112300D03*
X0115900Y0106600D03*
X0115900Y0106300D03*
X0115900Y0106000D03*
X0115900Y0105700D03*
X0115900Y0105400D03*
X0121600Y0102400D03*
X0121600Y0102100D03*
X0121300Y0101500D03*
X0121300Y0101200D03*
X0121300Y0100900D03*
X0118900Y0119800D03*
X0119200Y0121300D03*
X0119200Y0121600D03*
X0120100Y0122500D03*
X0096100Y0104800D03*
X0085900Y0117700D03*
X0085600Y0118000D03*
X0086500Y0124900D03*
X0086500Y0125200D03*
D58*
X0086050Y0126400D03*
X0084550Y0119500D03*
X0084850Y0119200D03*
X0084850Y0118900D03*
X0087550Y0111400D03*
X0114850Y0101500D03*
X0114850Y0101200D03*
X0115150Y0101800D03*
X0115150Y0102100D03*
X0115150Y0102400D03*
X0115450Y0102700D03*
X0115450Y0103000D03*
X0120250Y0106300D03*
X0120250Y0106600D03*
X0120250Y0106900D03*
X0120250Y0107200D03*
X0120250Y0107500D03*
X0120250Y0107800D03*
X0120250Y0108100D03*
X0120250Y0108400D03*
X0120250Y0108700D03*
X0120250Y0109000D03*
X0120250Y0109300D03*
X0120250Y0109600D03*
X0120250Y0109900D03*
X0120250Y0110200D03*
X0120250Y0110500D03*
X0120250Y0110800D03*
X0120250Y0111100D03*
X0122050Y0107500D03*
X0122050Y0107200D03*
X0122050Y0106900D03*
X0122050Y0106600D03*
X0122050Y0106300D03*
X0122050Y0106000D03*
X0122050Y0105700D03*
X0122050Y0105400D03*
D59*
X0121750Y0103600D03*
X0121750Y0103300D03*
X0121750Y0103000D03*
X0121750Y0102700D03*
X0121450Y0101800D03*
X0115750Y0104500D03*
X0115750Y0104800D03*
X0115750Y0105100D03*
X0119950Y0112000D03*
X0116650Y0119800D03*
X0119350Y0121900D03*
X0119650Y0122200D03*
X0086350Y0125500D03*
X0085450Y0118300D03*
D60*
X0085000Y0118600D03*
X0086200Y0125800D03*
X0086200Y0126100D03*
X0088000Y0111100D03*
X0103000Y0103300D03*
X0115600Y0103300D03*
X0115600Y0103600D03*
X0115600Y0103900D03*
X0115600Y0104200D03*
X0121900Y0104200D03*
X0121900Y0103900D03*
X0121900Y0104500D03*
X0121900Y0104800D03*
X0121900Y0105100D03*
X0120100Y0111400D03*
X0120100Y0111700D03*
X0116200Y0119200D03*
X0116500Y0119500D03*
X0120100Y0122800D03*
D61*
X0105550Y0104800D03*
D62*
X0104800Y0105100D03*
X0091900Y0116200D03*
D63*
X0093700Y0115000D03*
X0104500Y0105400D03*
D64*
X0104350Y0105700D03*
D65*
X0104050Y0106300D03*
X0096550Y0113500D03*
D66*
X0104050Y0106600D03*
D67*
X0105100Y0106900D03*
D68*
X0104800Y0107200D03*
D69*
X0104650Y0107500D03*
D70*
X0104350Y0107800D03*
D71*
X0104200Y0108100D03*
D72*
X0103900Y0108400D03*
D73*
X0103450Y0109000D03*
X0101950Y0112000D03*
D74*
X0103300Y0109300D03*
D75*
X0103150Y0109600D03*
X0103150Y0111100D03*
D76*
X0102850Y0111700D03*
X0102850Y0109900D03*
D77*
X0102700Y0110200D03*
D78*
X0102550Y0110500D03*
D79*
X0102400Y0110800D03*
D80*
X0103000Y0111400D03*
D81*
X0100150Y0112300D03*
D82*
X0099100Y0112600D03*
D83*
X0098200Y0112900D03*
D84*
X0097300Y0113200D03*
D85*
X0094600Y0114400D03*
D86*
X0094150Y0114700D03*
D87*
X0093250Y0115300D03*
D88*
X0092800Y0115600D03*
D89*
X0092350Y0117100D03*
X0092050Y0117400D03*
D90*
X0088900Y0120700D03*
M02*
